<?xml version="1.0" encoding="UTF-8" standalone="no"?><svg xmlns="http://www.w3.org/2000/svg" xmlns:xlink="http://www.w3.org/1999/xlink" contentScriptType="application/ecmascript" contentStyleType="text/css" height="371px" preserveAspectRatio="none" style="width:709px;height:371px;" version="1.1" viewBox="0 0 709 371" width="709px" zoomAndPan="magnify"><defs><filter height="300%" id="f6yu8fd7nnvm0" width="300%" x="-1" y="-1"><feGaussianBlur result="blurOut" stdDeviation="2.0"/><feColorMatrix in="blurOut" result="blurOut2" type="matrix" values="0 0 0 0 0 0 0 0 0 0 0 0 0 0 0 0 0 0 .4 0"/><feOffset dx="4.0" dy="4.0" in="blurOut2" result="blurOut3"/><feBlend in="SourceGraphic" in2="blurOut3" mode="normal"/></filter></defs><g><!--MD5=[04679fed20899f034c9375d8a5fedd20]
cluster comp_a--><rect fill="#BAFFC9" filter="url(#f6yu8fd7nnvm0)" height="227" style="stroke: #000000; stroke-width: 1.5;" width="155" x="6" y="53"/><rect fill="#BAFFC9" height="10" style="stroke: #000000; stroke-width: 1.5;" width="15" x="141" y="58"/><rect fill="#BAFFC9" height="2" style="stroke: #000000; stroke-width: 1.5;" width="4" x="139" y="60"/><rect fill="#BAFFC9" height="2" style="stroke: #000000; stroke-width: 1.5;" width="4" x="139" y="64"/><text fill="#000000" font-family="sans-serif" font-size="14" font-weight="bold" lengthAdjust="spacingAndGlyphs" textLength="134" x="14" y="78.9951">&lt;&lt;subsystem&gt;&gt;</text><text fill="#000000" font-family="sans-serif" font-size="14" font-weight="bold" lengthAdjust="spacingAndGlyphs" textLength="0" x="26" y="95.292"/><text fill="#000000" font-family="sans-serif" font-size="14" font-weight="bold" lengthAdjust="spacingAndGlyphs" textLength="115" x="26" y="95.292">component AB</text><text fill="#000000" font-family="sans-serif" font-size="14" font-weight="bold" lengthAdjust="spacingAndGlyphs" textLength="0" x="146" y="95.292"/><text fill="#000000" font-family="sans-serif" font-size="14" font-weight="bold" lengthAdjust="spacingAndGlyphs" textLength="0" x="86" y="111.5889"/><!--MD5=[30d4a42b4ffc4e061cca9cd316f6c479]
entity comp_a_a--><rect fill="#FEFECE" filter="url(#f6yu8fd7nnvm0)" height="36.2969" style="stroke: #A80036; stroke-width: 1.5;" width="113" x="26.5" y="112"/><rect fill="#FEFECE" height="5" style="stroke: #A80036; stroke-width: 1.5;" width="10" x="21.5" y="117"/><rect fill="#FEFECE" height="5" style="stroke: #A80036; stroke-width: 1.5;" width="10" x="21.5" y="138.2969"/><text fill="#000000" font-family="sans-serif" font-size="14" lengthAdjust="spacingAndGlyphs" textLength="93" x="36.5" y="134.9951">component A</text><!--MD5=[dadd56962995db23df6aef100ff12e48]
entity comp_a_b--><rect fill="#FEFECE" filter="url(#f6yu8fd7nnvm0)" height="36.2969" style="stroke: #A80036; stroke-width: 1.5;" width="114" x="26" y="236"/><rect fill="#FEFECE" height="5" style="stroke: #A80036; stroke-width: 1.5;" width="10" x="21" y="241"/><rect fill="#FEFECE" height="5" style="stroke: #A80036; stroke-width: 1.5;" width="10" x="21" y="262.2969"/><text fill="#000000" font-family="sans-serif" font-size="14" lengthAdjust="spacingAndGlyphs" textLength="94" x="36" y="258.9951">component B</text><!--MD5=[ea4128e1b5db6200a10193b8015cde63]
entity interface--><ellipse cx="83" cy="192" fill="#FEFECE" filter="url(#f6yu8fd7nnvm0)" rx="8" ry="8" style="stroke: #A80036; stroke-width: 2.0;"/><text fill="#000000" font-family="sans-serif" font-size="14" lengthAdjust="spacingAndGlyphs" textLength="60" x="53" y="221.9951">interface</text><!--MD5=[a89ea9d84f5894a1c6d8f1b164b22ecd]
entity port1--><rect fill="#FEFECE" filter="url(#f6yu8fd7nnvm0)" height="20" style="stroke: #000000; stroke-width: 1.5;" width="20" x="373" y="120"/><!--MD5=[aa5fd4e480218f931f34435731d80cd9]
entity interface_a--><ellipse cx="659" cy="37" fill="#FEFECE" filter="url(#f6yu8fd7nnvm0)" rx="8" ry="8" style="stroke: #A80036; stroke-width: 2.0;"/><text fill="#000000" font-family="sans-serif" font-size="14" lengthAdjust="spacingAndGlyphs" textLength="75" x="621.5" y="66.9951">interface_a</text><!--MD5=[a6b54211ec6dcb07a8961026ccfa5012]
entity interface_b--><ellipse cx="659" cy="130" fill="#FEFECE" filter="url(#f6yu8fd7nnvm0)" rx="8" ry="8" style="stroke: #A80036; stroke-width: 2.0;"/><text fill="#000000" font-family="sans-serif" font-size="14" lengthAdjust="spacingAndGlyphs" textLength="76" x="621" y="159.9951">interface_b</text><!--MD5=[febe0a2b3016efbc67e1673a2a5cdd49]
entity interface_c--><ellipse cx="659" cy="223" fill="#FEFECE" filter="url(#f6yu8fd7nnvm0)" rx="8" ry="8" style="stroke: #A80036; stroke-width: 2.0;"/><text fill="#000000" font-family="sans-serif" font-size="14" lengthAdjust="spacingAndGlyphs" textLength="75" x="621.5" y="252.9951">interface_c</text><path d="M252.5,45 L252.5,85.2656 A0,0 0 0 0 252.5,85.2656 L379,85.2656 L383,119.8437 L387,85.2656 L513.5,85.2656 A0,0 0 0 0 513.5,85.2656 L513.5,55 L503.5,45 L252.5,45 A0,0 0 0 0 252.5,45 " fill="#FCA985" filter="url(#f6yu8fd7nnvm0)" style="stroke: #A80036; stroke-width: 1.0;"/><path d="M503.5,45 L503.5,55 L513.5,55 L503.5,45 " fill="#FCA985" style="stroke: #A80036; stroke-width: 1.0;"/><text fill="#000000" font-family="sans-serif" font-size="13" lengthAdjust="spacingAndGlyphs" textLength="30" x="258.5" y="62.0669">port:</text><text fill="#000000" font-family="sans-serif" font-size="13" font-weight="bold" lengthAdjust="spacingAndGlyphs" textLength="206" x="292.5" y="62.0669">ROS_service : myRosService</text><text fill="#000000" font-family="sans-serif" font-size="13" lengthAdjust="spacingAndGlyphs" textLength="41" x="258.5" y="77.1997">name:</text><text fill="#000000" font-family="sans-serif" font-size="13" font-weight="bold" lengthAdjust="spacingAndGlyphs" textLength="102" x="303.5" y="77.1997">myRosService</text><text fill="#000000" font-family="sans-serif" font-size="13" lengthAdjust="spacingAndGlyphs" textLength="7" x="409.5" y="77.1997">?</text><path d="M213,175 L213,359.4609 A0,0 0 0 0 213,359.4609 L553,359.4609 A0,0 0 0 0 553,359.4609 L553,185 L543,175 L387,175 L383,140.1847 L379,175 L213,175 A0,0 0 0 0 213,175 " fill="#FCA985" filter="url(#f6yu8fd7nnvm0)" style="stroke: #A80036; stroke-width: 1.0;"/><path d="M543,175 L543,185 L553,185 L543,175 " fill="#FCA985" style="stroke: #A80036; stroke-width: 1.0;"/><text fill="#000000" font-family="sans-serif" font-size="13" font-weight="bold" lengthAdjust="spacingAndGlyphs" textLength="31" x="219" y="192.0669">port</text><line style="stroke: #A80036; stroke-width: 1.0;" x1="214" x2="552" y1="195.1328" y2="195.1328"/><text fill="#000000" font-family="sans-serif" font-size="13" lengthAdjust="spacingAndGlyphs" textLength="290" x="219" y="211.1997">In dit voorbeeld is de weergaven van een port</text><text fill="#000000" font-family="sans-serif" font-size="13" lengthAdjust="spacingAndGlyphs" textLength="267" x="219" y="226.3325">te zien. Een port is een connectie, digitaal</text><text fill="#000000" font-family="sans-serif" font-size="13" lengthAdjust="spacingAndGlyphs" textLength="56" x="219" y="241.4653">of fysiek.</text><text fill="#000000" font-family="sans-serif" font-size="13" lengthAdjust="spacingAndGlyphs" textLength="314" x="219" y="256.5981">Een port moet voorzien worden van een instantie</text><text fill="#000000" font-family="sans-serif" font-size="13" lengthAdjust="spacingAndGlyphs" textLength="307" x="219" y="271.731">naam en een type, deze zijn te zien in de notitie</text><text fill="#000000" font-family="sans-serif" font-size="13" lengthAdjust="spacingAndGlyphs" textLength="148" x="219" y="286.8638">gekoppeld aan de port.</text><text fill="#000000" font-family="sans-serif" font-size="13" lengthAdjust="spacingAndGlyphs" textLength="0" x="223" y="301.9966"/><text fill="#000000" font-family="sans-serif" font-size="13" lengthAdjust="spacingAndGlyphs" textLength="315" x="219" y="317.1294">Verder kan een port gekoppeld worden aan nul of</text><text fill="#000000" font-family="sans-serif" font-size="13" lengthAdjust="spacingAndGlyphs" textLength="319" x="219" y="332.2622">meerdere externe componenten/interfaces en nul</text><text fill="#000000" font-family="sans-serif" font-size="13" lengthAdjust="spacingAndGlyphs" textLength="300" x="219" y="347.395">of meerdere interene componenten/interfaces.</text><!--MD5=[8fba500c27d69e7afa7b2e7ea39e5ab1]
link interface to comp_a_a--><path d="M83,182.7969 C83,171.2476 83,159.6982 83,148.1489 " fill="none" id="interface-comp_a_a" style="stroke: #A80036; stroke-width: 1.0;"/><!--MD5=[b498b172b12e6b06199fabc2ddd3d8bd]
link comp_a_b to interface--><path d="M83,235.5937 C83,227.5317 83,219.4696 83,211.4075 " fill="none" id="comp_a_b-&gt;interface" style="stroke: #A80036; stroke-width: 1.0;"/><path d="M74.5428,204.2739 A9,9 0 0 0 91.4573 204.2737" fill="none" style="stroke: #A80036; stroke-width: 1.5;"/><!--MD5=[7c561e21c07d9e39c767b3f9e973441c]
link comp_a_a to port1--><path d="M139.7804,130 C210.3359,130 326.4802,130 367.8144,130 " fill="none" id="comp_a_a-&gt;port1" style="stroke: #A80036; stroke-width: 1.0; stroke-dasharray: 7.0,7.0;"/><polygon fill="#A80036" points="372.9186,130,363.9186,126,367.9186,130,363.9186,134,372.9186,130" style="stroke: #A80036; stroke-width: 1.0;"/><!--MD5=[4ba98a814ffc650bb28dc449e94bac55]
link port1 to interface_a--><path d="M393.3139,129.6749 C420.3665,128.5343 495.2599,123.5135 553,102 C586.8562,89.3855 621.7507,65.4825 641.8548,50.4431 " fill="none" id="port1-&gt;interface_a" style="stroke: #A80036; stroke-width: 1.0;"/><path d="M642.4156,39.3749 A9,9 0 0 0 652.6795 52.8193" fill="none" style="stroke: #A80036; stroke-width: 1.5;"/><!--MD5=[0df4b4bf2a54cf7c2717b22fd21d6566]
link port1 to interface_b--><path d="M393.1503,130 C436.8174,130 608.3474,130 649.8987,130 " fill="none" id="port1-interface_b" style="stroke: #A80036; stroke-width: 1.0;"/><!--MD5=[1019bc9ba1f4b2eaecf23024ba8d5eb3]
link port1 to interface_c--><path d="M393.3214,130.2242 C420.392,131.1087 495.3252,135.4749 553,157 C586.8163,169.6207 621.4838,193.7432 641.5908,209.0675 " fill="none" id="port1-&gt;interface_c" style="stroke: #A80036; stroke-width: 1.0;"/><path d="M652.5137,206.8514 A9,9 0 0 0 642.1259 220.2003" fill="none" style="stroke: #A80036; stroke-width: 1.5;"/><!--MD5=[1cfeebb04c32a02ba0ca95c7a2cd2f54]
@startuml

left to right direction

    component [comp_a] as "<<subsystem>> \n **component AB** \n" #BAFFC9{
        component [comp_a_a] as "component A"
        component [comp_a_b] as "component B"

        comp_a_a -left- interface
        comp_a_b -right-( interface
    }

    rectangle port1 as " "

    comp_a_a .down.> port1

    port1 -down-( interface_a
    port1 -down- interface_b
    port1 -down-( interface_c

    note top of port1 #FCA985
        port: **ROS_service : myRosService**
        name: **myRosService** ?
    end note

note bottom of port1 #FCA985
    **port**
    - -
    In dit voorbeeld is de weergaven van een port
    te zien. Een port is een connectie, digitaal
    of fysiek.
    Een port moet voorzien worden van een instantie
    naam en een type, deze zijn te zien in de notitie
    gekoppeld aan de port.

    Verder kan een port gekoppeld worden aan nul of
    meerdere externe componenten/interfaces en nul
    of meerdere interene componenten/interfaces.
end note

@enduml

PlantUML version 1.2020.06(Sun Apr 05 12:38:32 GMT 2020)
(GPL source distribution)
Java Runtime: OpenJDK Runtime Environment
JVM: OpenJDK 64-Bit Server VM
Java Version: 14-ea+33
Operating System: Linux
Default Encoding: UTF-8
Language: en
Country: US
--></g></svg>