<?xml version="1.0" encoding="UTF-8" standalone="no"?><svg xmlns="http://www.w3.org/2000/svg" xmlns:xlink="http://www.w3.org/1999/xlink" contentScriptType="application/ecmascript" contentStyleType="text/css" height="526px" preserveAspectRatio="none" style="width:902px;height:526px;" version="1.1" viewBox="0 0 902 526" width="902px" zoomAndPan="magnify"><defs><filter height="300%" id="fag5vy3lwflpw" width="300%" x="-1" y="-1"><feGaussianBlur result="blurOut" stdDeviation="2.0"/><feColorMatrix in="blurOut" result="blurOut2" type="matrix" values="0 0 0 0 0 0 0 0 0 0 0 0 0 0 0 0 0 0 .4 0"/><feOffset dx="4.0" dy="4.0" in="blurOut2" result="blurOut3"/><feBlend in="SourceGraphic" in2="blurOut3" mode="normal"/></filter></defs><g><!--MD5=[005506d257fab70adc88451566f9129d]
cluster r1--><rect fill="#FFFFFF" filter="url(#fag5vy3lwflpw)" height="295" style="stroke: #000000; stroke-width: 1.5;" width="768" x="6" y="16"/><text fill="#000000" font-family="sans-serif" font-size="14" font-weight="bold" lengthAdjust="spacingAndGlyphs" textLength="33" x="373.5" y="30.9951">port</text><text fill="#000000" font-family="sans-serif" font-size="14" font-weight="bold" lengthAdjust="spacingAndGlyphs" textLength="0" x="392.5" y="47.292"/><!--MD5=[04679fed20899f034c9375d8a5fedd20]
cluster comp_a--><rect fill="#FFFFFF" filter="url(#fag5vy3lwflpw)" height="227" style="stroke: #000000; stroke-width: 1.5;" width="155" x="14" y="76"/><rect fill="#FFFFFF" height="10" style="stroke: #000000; stroke-width: 1.5;" width="15" x="149" y="81"/><rect fill="#FFFFFF" height="2" style="stroke: #000000; stroke-width: 1.5;" width="4" x="147" y="83"/><rect fill="#FFFFFF" height="2" style="stroke: #000000; stroke-width: 1.5;" width="4" x="147" y="87"/><text fill="#000000" font-family="sans-serif" font-size="14" font-weight="bold" lengthAdjust="spacingAndGlyphs" textLength="134" x="22" y="101.9951">&lt;&lt;subsystem&gt;&gt;</text><text fill="#000000" font-family="sans-serif" font-size="14" font-weight="bold" lengthAdjust="spacingAndGlyphs" textLength="0" x="34" y="118.292"/><text fill="#000000" font-family="sans-serif" font-size="14" font-weight="bold" lengthAdjust="spacingAndGlyphs" textLength="115" x="34" y="118.292">component_ab</text><text fill="#000000" font-family="sans-serif" font-size="14" font-weight="bold" lengthAdjust="spacingAndGlyphs" textLength="0" x="154" y="118.292"/><text fill="#000000" font-family="sans-serif" font-size="14" font-weight="bold" lengthAdjust="spacingAndGlyphs" textLength="0" x="94" y="134.5889"/><!--MD5=[a89ea9d84f5894a1c6d8f1b164b22ecd]
entity port1--><rect fill="#FEFECE" filter="url(#fag5vy3lwflpw)" height="20" style="stroke: #000000; stroke-width: 1.5;" width="20" x="349.5" y="171"/><!--MD5=[aa5fd4e480218f931f34435731d80cd9]
entity interface_a--><ellipse cx="720" cy="274" fill="#FEFECE" filter="url(#fag5vy3lwflpw)" rx="8" ry="8" style="stroke: #A80036; stroke-width: 2.0;"/><text fill="#000000" font-family="sans-serif" font-size="14" lengthAdjust="spacingAndGlyphs" textLength="75" x="682.5" y="303.9951">interface_a</text><!--MD5=[a6b54211ec6dcb07a8961026ccfa5012]
entity interface_b--><ellipse cx="720" cy="181" fill="#FEFECE" filter="url(#fag5vy3lwflpw)" rx="8" ry="8" style="stroke: #A80036; stroke-width: 2.0;"/><text fill="#000000" font-family="sans-serif" font-size="14" lengthAdjust="spacingAndGlyphs" textLength="76" x="682" y="210.9951">interface_b</text><!--MD5=[febe0a2b3016efbc67e1673a2a5cdd49]
entity interface_c--><ellipse cx="720" cy="88" fill="#FEFECE" filter="url(#fag5vy3lwflpw)" rx="8" ry="8" style="stroke: #A80036; stroke-width: 2.0;"/><text fill="#000000" font-family="sans-serif" font-size="14" lengthAdjust="spacingAndGlyphs" textLength="75" x="682.5" y="117.9951">interface_c</text><path d="M229,96 L229,136.2656 A0,0 0 0 0 229,136.2656 L355.5,136.2656 L359.5,170.8437 L363.5,136.2656 L490,136.2656 A0,0 0 0 0 490,136.2656 L490,106 L480,96 L229,96 A0,0 0 0 0 229,96 " fill="#FBFB77" filter="url(#fag5vy3lwflpw)" style="stroke: #A80036; stroke-width: 1.0;"/><path d="M480,96 L480,106 L490,106 L480,96 " fill="#FBFB77" style="stroke: #A80036; stroke-width: 1.0;"/><text fill="#000000" font-family="sans-serif" font-size="13" lengthAdjust="spacingAndGlyphs" textLength="30" x="235" y="113.0669">port:</text><text fill="#000000" font-family="sans-serif" font-size="13" font-weight="bold" lengthAdjust="spacingAndGlyphs" textLength="206" x="269" y="113.0669">ROS_service : myRosService</text><text fill="#000000" font-family="sans-serif" font-size="13" lengthAdjust="spacingAndGlyphs" textLength="41" x="235" y="128.1997">name:</text><text fill="#000000" font-family="sans-serif" font-size="13" font-weight="bold" lengthAdjust="spacingAndGlyphs" textLength="102" x="280" y="128.1997">myRosService</text><text fill="#000000" font-family="sans-serif" font-size="13" lengthAdjust="spacingAndGlyphs" textLength="7" x="386" y="128.1997">?</text><!--MD5=[30d4a42b4ffc4e061cca9cd316f6c479]
entity comp_a_a--><rect fill="#FEFECE" filter="url(#fag5vy3lwflpw)" height="36.2969" style="stroke: #A80036; stroke-width: 1.5;" width="115" x="33.5" y="135"/><rect fill="#FEFECE" height="5" style="stroke: #A80036; stroke-width: 1.5;" width="10" x="28.5" y="140"/><rect fill="#FEFECE" height="5" style="stroke: #A80036; stroke-width: 1.5;" width="10" x="28.5" y="161.2969"/><text fill="#000000" font-family="sans-serif" font-size="14" lengthAdjust="spacingAndGlyphs" textLength="95" x="43.5" y="157.9951">component_a</text><!--MD5=[dadd56962995db23df6aef100ff12e48]
entity comp_a_b--><rect fill="#FEFECE" filter="url(#fag5vy3lwflpw)" height="36.2969" style="stroke: #A80036; stroke-width: 1.5;" width="116" x="33" y="259"/><rect fill="#FEFECE" height="5" style="stroke: #A80036; stroke-width: 1.5;" width="10" x="28" y="264"/><rect fill="#FEFECE" height="5" style="stroke: #A80036; stroke-width: 1.5;" width="10" x="28" y="285.2969"/><text fill="#000000" font-family="sans-serif" font-size="14" lengthAdjust="spacingAndGlyphs" textLength="96" x="43" y="281.9951">component_b</text><!--MD5=[ea4128e1b5db6200a10193b8015cde63]
entity interface--><ellipse cx="91" cy="215" fill="#FEFECE" filter="url(#fag5vy3lwflpw)" rx="8" ry="8" style="stroke: #A80036; stroke-width: 2.0;"/><text fill="#000000" font-family="sans-serif" font-size="14" lengthAdjust="spacingAndGlyphs" textLength="60" x="61" y="244.9951">interface</text><path d="M550,338 L550,514.4609 L890,514.4609 L890,348 L880,338 L550,338 " fill="#FBFB77" filter="url(#fag5vy3lwflpw)" style="stroke: #A80036; stroke-width: 1.0;"/><path d="M880,338 L880,348 L890,348 L880,338 " fill="#FBFB77" style="stroke: #A80036; stroke-width: 1.0;"/><text fill="#000000" font-family="sans-serif" font-size="13" font-weight="bold" lengthAdjust="spacingAndGlyphs" textLength="31" x="556" y="355.0669">port</text><text fill="#000000" font-family="sans-serif" font-size="13" lengthAdjust="spacingAndGlyphs" textLength="290" x="556" y="370.1997">In dit voorbeeld is de weergaven van een port</text><text fill="#000000" font-family="sans-serif" font-size="13" lengthAdjust="spacingAndGlyphs" textLength="267" x="556" y="385.3325">te zien. Een port is een connectie, digitaal</text><text fill="#000000" font-family="sans-serif" font-size="13" lengthAdjust="spacingAndGlyphs" textLength="56" x="556" y="400.4653">of fysiek.</text><text fill="#000000" font-family="sans-serif" font-size="13" lengthAdjust="spacingAndGlyphs" textLength="314" x="556" y="415.5981">Een port moet voorzien worden van een instantie</text><text fill="#000000" font-family="sans-serif" font-size="13" lengthAdjust="spacingAndGlyphs" textLength="307" x="556" y="430.731">naam en een type, deze zijn te zien in de notitie</text><text fill="#000000" font-family="sans-serif" font-size="13" lengthAdjust="spacingAndGlyphs" textLength="148" x="556" y="445.8638">gekoppeld aan de port.</text><text fill="#000000" font-family="sans-serif" font-size="13" lengthAdjust="spacingAndGlyphs" textLength="0" x="560" y="460.9966"/><text fill="#000000" font-family="sans-serif" font-size="13" lengthAdjust="spacingAndGlyphs" textLength="315" x="556" y="476.1294">Verder kan een port gekoppeld worden aan nul of</text><text fill="#000000" font-family="sans-serif" font-size="13" lengthAdjust="spacingAndGlyphs" textLength="319" x="556" y="491.2622">meerdere externe componenten/interfaces en nul</text><text fill="#000000" font-family="sans-serif" font-size="13" lengthAdjust="spacingAndGlyphs" textLength="300" x="556" y="506.395">of meerdere interene componenten/interfaces.</text><!--MD5=[8fba500c27d69e7afa7b2e7ea39e5ab1]
link interface to comp_a_a--><path d="M91,205.7969 C91,194.2476 91,182.6982 91,171.1489 " fill="none" id="interface-comp_a_a" style="stroke: #A80036; stroke-width: 1.0;"/><!--MD5=[b498b172b12e6b06199fabc2ddd3d8bd]
link comp_a_b to interface--><path d="M91,258.5937 C91,250.5317 91,242.4696 91,234.4075 " fill="none" id="comp_a_b-&gt;interface" style="stroke: #A80036; stroke-width: 1.0;"/><path d="M82.5428,227.2739 A9,9 0 0 0 99.4573 227.2737" fill="none" style="stroke: #A80036; stroke-width: 1.5;"/><!--MD5=[7c561e21c07d9e39c767b3f9e973441c]
link comp_a_a to port1--><path d="M148.6,159.0067 C211.1654,165.5312 307.1326,175.539 344.1772,179.4021 " fill="none" id="comp_a_a-&gt;port1" style="stroke: #A80036; stroke-width: 1.0; stroke-dasharray: 7.0,7.0;"/><polygon fill="#A80036" points="349.2042,179.9263,340.6676,175.0144,344.2312,179.4077,339.8379,182.9713,349.2042,179.9263" style="stroke: #A80036; stroke-width: 1.0;"/><!--MD5=[4ba98a814ffc650bb28dc449e94bac55]
link port1 to interface_a--><path d="M369.5181,183.5844 C418.7525,196.2857 635.3357,252.1587 701.0381,269.1083 " fill="none" id="port1-&gt;interface_a" style="stroke: #A80036; stroke-width: 1.0;"/><path d="M709.9965,262.6853 A9,9 0 0 0 705.7713 279.0635" fill="none" style="stroke: #A80036; stroke-width: 1.5;"/><!--MD5=[0df4b4bf2a54cf7c2717b22fd21d6566]
link port1 to interface_b--><path d="M369.5181,181 C421.6007,181 660.955,181 710.8645,181 " fill="none" id="port1-interface_b" style="stroke: #A80036; stroke-width: 1.0;"/><!--MD5=[1019bc9ba1f4b2eaecf23024ba8d5eb3]
link port1 to interface_c--><path d="M369.7311,179.1491 C391.8381,175.0746 445.6501,164.7513 490,153 C517.0387,145.8356 523.1603,141.877 550,134 C604.3484,118.0496 669.0598,101.096 700.6769,92.9435 " fill="none" id="port1-&gt;interface_c" style="stroke: #A80036; stroke-width: 1.0;"/><path d="M705.6616,82.9311 A9,9 0 0 0 709.8707 99.3135" fill="none" style="stroke: #A80036; stroke-width: 1.5;"/><!--MD5=[09e9eec193ead54a8b259a7a4ba6414f]
link port1 to GMN23--><path d="M369.6576,188.7186 C397.8484,210.0611 479.6217,271.4338 550,319 C559.2458,325.2489 568.8364,331.6075 578.5412,337.9506 " fill="none" id="port1-GMN23" style="stroke: #A80036; stroke-width: 1.0; stroke-dasharray: 7.0,7.0;"/><!--MD5=[d1357676bbd600ea11c44850122dfd66]
@startuml

left to right direction

rectangle r1 as "**port**\n" {
    component [comp_a] as "<<subsystem>> \n **component_ab** \n"{
        component [comp_a_a] as "component_a"
        component [comp_a_b] as "component_b"

        comp_a_a - -left- interface
        comp_a_b - -right-( interface
    }

    rectangle port1 as " "

    comp_a_a .down.> port1

    port1 - -( interface_a
    port1 - - interface_b
    port1 - -( interface_c

    note bottom of port1
        port: **ROS_service : myRosService**
        name: **myRosService** ?
    end note
}

note right of port1
    **port**
    In dit voorbeeld is de weergaven van een port
    te zien. Een port is een connectie, digitaal
    of fysiek.
    Een port moet voorzien worden van een instantie
    naam en een type, deze zijn te zien in de notitie
    gekoppeld aan de port.

    Verder kan een port gekoppeld worden aan nul of
    meerdere externe componenten/interfaces en nul
    of meerdere interene componenten/interfaces.
end note

@enduml

PlantUML version 1.2020.06(Sun Apr 05 12:38:32 GMT 2020)
(GPL source distribution)
Java Runtime: OpenJDK Runtime Environment
JVM: OpenJDK 64-Bit Server VM
Java Version: 14-ea+33
Operating System: Linux
Default Encoding: UTF-8
Language: en
Country: US
--></g></svg>