<?xml version="1.0" encoding="UTF-8" standalone="no"?><svg xmlns="http://www.w3.org/2000/svg" xmlns:xlink="http://www.w3.org/1999/xlink" contentScriptType="application/ecmascript" contentStyleType="text/css" height="395px" preserveAspectRatio="none" style="width:873px;height:395px;" version="1.1" viewBox="0 0 873 395" width="873px" zoomAndPan="magnify"><defs><filter height="300%" id="fvltx003x5c0t" width="300%" x="-1" y="-1"><feGaussianBlur result="blurOut" stdDeviation="2.0"/><feColorMatrix in="blurOut" result="blurOut2" type="matrix" values="0 0 0 0 0 0 0 0 0 0 0 0 0 0 0 0 0 0 .4 0"/><feOffset dx="4.0" dy="4.0" in="blurOut2" result="blurOut3"/><feBlend in="SourceGraphic" in2="blurOut3" mode="normal"/></filter></defs><g><!--MD5=[16c00dd52f7264bd31ae52f457116191]
cluster SensorBoard--><rect fill="#BAFFC9" filter="url(#fvltx003x5c0t)" height="310" style="stroke: #000000; stroke-width: 1.5;" width="486" x="14" y="74"/><rect fill="#BAFFC9" height="10" style="stroke: #000000; stroke-width: 1.5;" width="15" x="480" y="79"/><rect fill="#BAFFC9" height="2" style="stroke: #000000; stroke-width: 1.5;" width="4" x="478" y="81"/><rect fill="#BAFFC9" height="2" style="stroke: #000000; stroke-width: 1.5;" width="4" x="478" y="85"/><text fill="#000000" font-family="sans-serif" font-size="14" font-weight="bold" lengthAdjust="spacingAndGlyphs" textLength="134" x="190" y="99.9951">&lt;&lt;subsystem&gt;&gt;</text><text fill="#000000" font-family="sans-serif" font-size="14" font-weight="bold" lengthAdjust="spacingAndGlyphs" textLength="102" x="206" y="116.292">SensorBoard</text><text fill="#000000" font-family="sans-serif" font-size="14" font-weight="bold" lengthAdjust="spacingAndGlyphs" textLength="0" x="259.5" y="132.5889"/><!--MD5=[0dc3a655c088fd6165ba4a37cb8fe693]
entity tc--><ellipse cx="332" cy="262" fill="#FEFECE" filter="url(#fvltx003x5c0t)" rx="8" ry="8" style="stroke: #A80036; stroke-width: 2.0;"/><text fill="#000000" font-family="sans-serif" font-size="14" lengthAdjust="spacingAndGlyphs" textLength="67" x="298.5" y="291.9951">tiltCorrect</text><!--MD5=[c9750dafa4ae4a01f4cdbdcf14d4b946]
entity ws--><rect fill="#FEFECE" filter="url(#fvltx003x5c0t)" height="36.2969" style="stroke: #A80036; stroke-width: 1.5;" width="115" x="376.5" y="244"/><rect fill="#FEFECE" height="5" style="stroke: #A80036; stroke-width: 1.5;" width="10" x="371.5" y="249"/><rect fill="#FEFECE" height="5" style="stroke: #A80036; stroke-width: 1.5;" width="10" x="371.5" y="270.2969"/><text fill="#000000" font-family="sans-serif" font-size="14" lengthAdjust="spacingAndGlyphs" textLength="95" x="386.5" y="266.9951">weightSensor</text><!--MD5=[b11004e29fb17caaa709b870774d4c20]
entity rect1--><rect fill="#FEFECE" filter="url(#fvltx003x5c0t)" height="36.2969" style="stroke: #000000; stroke-width: 1.5;" width="265" x="22.5" y="244"/><text fill="#000000" font-family="sans-serif" font-size="14" lengthAdjust="spacingAndGlyphs" textLength="245" x="32.5" y="266.9951">WeightTiltCorrection : TiltCorrection</text><path d="M194.5,351 L194.5,376.1328 A0,0 0 0 0 194.5,376.1328 L491.5,376.1328 A0,0 0 0 0 491.5,376.1328 L491.5,361 L481.5,351 L358.2482,351 L417.731,280.1462 L350.2482,351 L194.5,351 A0,0 0 0 0 194.5,351 " fill="#FCA985" filter="url(#fvltx003x5c0t)" style="stroke: #A80036; stroke-width: 1.0;"/><path d="M481.5,351 L481.5,361 L491.5,361 L481.5,351 " fill="#FCA985" style="stroke: #A80036; stroke-width: 1.0;"/><text fill="#000000" font-family="sans-serif" font-size="13" lengthAdjust="spacingAndGlyphs" textLength="276" x="200.5" y="368.0669">A component may contain subcomponents</text><path d="M22,133 L22,173.2656 A0,0 0 0 0 22,173.2656 L182.7558,173.2656 L161.5566,243.6752 L190.7558,173.2656 L366,173.2656 A0,0 0 0 0 366,173.2656 L366,143 L356,133 L22,133 A0,0 0 0 0 22,133 " fill="#FCA985" filter="url(#fvltx003x5c0t)" style="stroke: #A80036; stroke-width: 1.0;"/><path d="M356,133 L356,143 L366,143 L356,133 " fill="#FCA985" style="stroke: #A80036; stroke-width: 1.0;"/><text fill="#000000" font-family="sans-serif" font-size="13" font-weight="bold" lengthAdjust="spacingAndGlyphs" textLength="120" x="28" y="150.0669">onderdeel: Type</text><text fill="#000000" font-family="sans-serif" font-size="13" lengthAdjust="spacingAndGlyphs" textLength="323" x="28" y="165.1997">Hier een objectinstantie van de TiltCorrection class</text><!--MD5=[a89ea9d84f5894a1c6d8f1b164b22ecd]
entity port1--><rect fill="#FEFECE" filter="url(#fvltx003x5c0t)" height="20" style="stroke: #000000; stroke-width: 1.5;" width="20" x="667" y="143"/><!--MD5=[20ba3d1745ec99426a3c6afeb80ff0c3]
entity iTemperature--><ellipse cx="815" cy="37" fill="#FEFECE" filter="url(#fvltx003x5c0t)" rx="8" ry="8" style="stroke: #A80036; stroke-width: 2.0;"/><text fill="#000000" font-family="sans-serif" font-size="14" lengthAdjust="spacingAndGlyphs" textLength="93" x="768.5" y="66.9951">iTemperature</text><!--MD5=[94a8a8c5702fd09d053220148c769844]
entity SensorControl--><ellipse cx="731" cy="153" fill="#FEFECE" filter="url(#fvltx003x5c0t)" rx="8" ry="8" style="stroke: #A80036; stroke-width: 2.0;"/><text fill="#000000" font-family="sans-serif" font-size="14" lengthAdjust="spacingAndGlyphs" textLength="99" x="681.5" y="182.9951">SensorControl</text><!--MD5=[4b60518d67ff3f1e37d1f312c5cea839]
entity WeightValues--><ellipse cx="704" cy="262" fill="#FEFECE" filter="url(#fvltx003x5c0t)" rx="8" ry="8" style="stroke: #A80036; stroke-width: 2.0;"/><text fill="#000000" font-family="sans-serif" font-size="14" lengthAdjust="spacingAndGlyphs" textLength="94" x="657" y="291.9951">WeightValues</text><!--MD5=[24707b6e1edcc3abe56dbe9cf7e33343]
entity TestBench--><ellipse cx="336" cy="37" fill="#FEFECE" filter="url(#fvltx003x5c0t)" rx="8" ry="8" style="stroke: #A80036; stroke-width: 2.0;"/><text fill="#000000" font-family="sans-serif" font-size="14" lengthAdjust="spacingAndGlyphs" textLength="76" x="298" y="66.9951">TestBench</text><path d="M417.5,17 L417.5,57.2656 A0,0 0 0 0 417.5,57.2656 L604.4575,57.2656 L669.6343,142.7058 L612.4575,57.2656 L770.5,57.2656 A0,0 0 0 0 770.5,57.2656 L770.5,27 L760.5,17 L417.5,17 A0,0 0 0 0 417.5,17 " fill="#FCA985" filter="url(#fvltx003x5c0t)" style="stroke: #A80036; stroke-width: 1.0;"/><path d="M760.5,17 L760.5,27 L770.5,27 L760.5,17 " fill="#FCA985" style="stroke: #A80036; stroke-width: 1.0;"/><text fill="#000000" font-family="sans-serif" font-size="13" lengthAdjust="spacingAndGlyphs" textLength="30" x="423.5" y="34.0669">port:</text><text fill="#000000" font-family="sans-serif" font-size="13" font-weight="bold" lengthAdjust="spacingAndGlyphs" textLength="298" x="457.5" y="34.0669">Measurement connector : SerialOverUSB</text><text fill="#000000" font-family="sans-serif" font-size="13" lengthAdjust="spacingAndGlyphs" textLength="69" x="423.5" y="49.1997">portName:</text><text fill="#000000" font-family="sans-serif" font-size="13" font-weight="bold" lengthAdjust="spacingAndGlyphs" textLength="33" x="496.5" y="49.1997">type</text><!--MD5=[b751f78ab0f9d2198c5ce168eb96d188]
reverse link tc to ws--><path d="M351.3322,262 C359.6682,262 368.0042,262 376.3402,262 " fill="none" id="tc&lt;-ws" style="stroke: #A80036; stroke-width: 1.0;"/><path d="M344.2424,270.4572 A9,9 0 0 0 344.2422 253.5427" fill="none" style="stroke: #A80036; stroke-width: 1.5;"/><!--MD5=[c8265ca9d23975753d31dfebd5e46eff]
link rect1 to tc--><path d="M287.75,262 C299.3887,262 311.0273,262 322.666,262 " fill="none" id="rect1-tc" style="stroke: #A80036; stroke-width: 1.0;"/><!--MD5=[6fb5de8394f167d018ac7efbf09babe7]
link port1 to ws--><path d="M666.868,157.5448 C635.3284,171.6922 537.526,215.5624 479.1804,241.7339 " fill="none" id="port1-&gt;ws" style="stroke: #A80036; stroke-width: 1.0; stroke-dasharray: 7.0,7.0;"/><polygon fill="#A80036" points="474.3556,243.8981,484.2044,243.8641,478.9176,241.8517,480.9301,236.5649,474.3556,243.8981" style="stroke: #A80036; stroke-width: 1.0;"/><!--MD5=[f67523080d4d2e00988bfb606f574cb8]
link iTemperature to SensorControl--><!--MD5=[6bf70c27f94f5a1bceb8ce455b266c28]
link SensorControl to WeightValues--><!--MD5=[9e5bdcf86ccbad6e4b3af864e5ef53b9]
reverse link iTemperature to port1--><path d="M802.6676,54.3101 C798.5366,58.8613 793.5514,63.2593 788,66 C771.3847,74.203 719.6028,62.5932 705,74 C683.4414,90.8403 678.4464,125.5516 677.3139,142.8038 " fill="none" id="iTemperature&lt;-port1" style="stroke: #A80036; stroke-width: 1.0;"/><path d="M800.597,43.3819 A9,9 0 0 0 813.7852 53.973" fill="none" style="stroke: #A80036; stroke-width: 1.5;"/><!--MD5=[eef5ef00351fd7d2c41d78689b5e6c65]
link port1 to SensorControl--><path d="M687.125,153 C698.665,153 710.2051,153 721.7451,153 " fill="none" id="port1-SensorControl" style="stroke: #A80036; stroke-width: 1.0;"/><!--MD5=[0afd1891e873bbc94ecee6ab10848e7d]
link port1 to WeightValues--><path d="M679.4917,163.0591 C684.7136,184.1402 696.735,232.6708 701.7444,252.8942 " fill="none" id="port1-WeightValues" style="stroke: #A80036; stroke-width: 1.0;"/><!--MD5=[2f34bb4c0aeb4053299c8b71d5d5d3c9]
link TestBench to SensorBoard--><path d="M345.1538,41.6699 C350.5438,44.6645 357.6461,49.017 364.5806,54.4858 C368.0478,57.2202 371.4731,60.2337 374.6213,63.4962 C376.1955,65.1274 377.7003,66.8208 379.1066,68.5727 C379.8097,69.4487 380.4882,70.3392 381.1383,71.2439 C381.4633,71.6963 381.7813,72.1522 382.0918,72.6115 C382.247,72.8412 382.4003,73.0718 382.5517,73.3032 C382.6274,73.4189 382.7026,73.5348 382.7773,73.6509 C382.8147,73.709 382.8519,73.7671 382.889,73.8253 " fill="none" id="TestBench-SensorBoard" style="stroke: #A80036; stroke-width: 1.0;"/><!--MD5=[92fe2015de2ac14f54c8f7a9f6be11fd]
@startuml

component [SensorBoard] as "<<subsystem>>\nSensorBoard\n" #BAFFC9{
    interface tc as "tiltCorrect"
    component [weightSensor] as ws
    rectangle rect1 as "WeightTiltCorrection : TiltCorrection"

    ws -left-( tc
    tc -left- rect1

    note as n1 #FCA985
        A component may contain subcomponents
    end note

    note as n2 #FCA985
        **onderdeel: Type**
        Hier een objectinstantie van de TiltCorrection class
    end note

    ws .down. n1
    rect1 .up. n2
}

rectangle port1 as " "

port1 .down.> ws

iTemperature    -[hidden]- SensorControl
SensorControl   -[hidden]- WeightValues

port1 -left-( iTemperature
port1 -right- SensorControl
port1 - - WeightValues
SensorBoard -up- TestBench
note as n3 #FCA985
    port: **Measurement connector : SerialOverUSB**
    portName: **type**
end note

port1 .up. n3
@enduml

PlantUML version 1.2020.06(Sun Apr 05 12:38:32 GMT 2020)
(GPL source distribution)
Java Runtime: OpenJDK Runtime Environment
JVM: OpenJDK 64-Bit Server VM
Java Version: 14-ea+33
Operating System: Linux
Default Encoding: UTF-8
Language: en
Country: US
--></g></svg>