<?xml version="1.0" encoding="UTF-8" standalone="no"?><svg xmlns="http://www.w3.org/2000/svg" xmlns:xlink="http://www.w3.org/1999/xlink" contentScriptType="application/ecmascript" contentStyleType="text/css" height="146px" preserveAspectRatio="none" style="width:794px;height:146px;" version="1.1" viewBox="0 0 794 146" width="794px" zoomAndPan="magnify"><defs><filter height="300%" id="fagsoyxb7a3ni" width="300%" x="-1" y="-1"><feGaussianBlur result="blurOut" stdDeviation="2.0"/><feColorMatrix in="blurOut" result="blurOut2" type="matrix" values="0 0 0 0 0 0 0 0 0 0 0 0 0 0 0 0 0 0 .4 0"/><feOffset dx="4.0" dy="4.0" in="blurOut2" result="blurOut3"/><feBlend in="SourceGraphic" in2="blurOut3" mode="normal"/></filter></defs><g><!--MD5=[dc61f514d9982fdc343c7f6a523f14e6]
cluster p0--><polygon fill="#FFFFBA" filter="url(#fagsoyxb7a3ni)" points="14,16,86,16,93,38.2969,772,38.2969,772,134,14,134,14,16" style="stroke: #000000; stroke-width: 1.5;"/><line style="stroke: #000000; stroke-width: 1.5;" x1="14" x2="93" y1="38.2969" y2="38.2969"/><text fill="#000000" font-family="sans-serif" font-size="14" font-weight="bold" lengthAdjust="spacingAndGlyphs" textLength="66" x="18" y="30.9951">package</text><!--MD5=[fedee1b5a49a422abb3fa93dface23fd]
cluster p1--><polygon fill="#FFB3BA" filter="url(#fagsoyxb7a3ni)" points="622,43,754,43,761,65.2969,764,65.2969,764,126,622,126,622,43" style="stroke: #000000; stroke-width: 1.5;"/><line style="stroke: #000000; stroke-width: 1.5;" x1="622" x2="761" y1="65.2969" y2="65.2969"/><text fill="#000000" font-family="sans-serif" font-size="14" font-weight="bold" lengthAdjust="spacingAndGlyphs" textLength="126" x="626" y="57.9951">nested package</text><!--MD5=[7f2e6138616fc2c683da5289fe2d6fe4]
cluster p3--><polygon fill="#BAFFC9" filter="url(#fagsoyxb7a3ni)" points="472,43,604,43,611,65.2969,614,65.2969,614,126,472,126,472,43" style="stroke: #000000; stroke-width: 1.5;"/><line style="stroke: #000000; stroke-width: 1.5;" x1="472" x2="611" y1="65.2969" y2="65.2969"/><text fill="#000000" font-family="sans-serif" font-size="14" font-weight="bold" lengthAdjust="spacingAndGlyphs" textLength="126" x="476" y="57.9951">nested package</text><!--MD5=[9f7b572157959bf2ad531c4460d7f0a2]
cluster p4--><polygon fill="#BAE1FF" filter="url(#fagsoyxb7a3ni)" points="322,43,454,43,461,65.2969,464,65.2969,464,126,322,126,322,43" style="stroke: #000000; stroke-width: 1.5;"/><line style="stroke: #000000; stroke-width: 1.5;" x1="322" x2="461" y1="65.2969" y2="65.2969"/><text fill="#000000" font-family="sans-serif" font-size="14" font-weight="bold" lengthAdjust="spacingAndGlyphs" textLength="126" x="326" y="57.9951">nested package</text><!--MD5=[c43102eb9af13b6e0584468567583f91]
cluster p2--><polygon fill="#FFDFBA" filter="url(#fagsoyxb7a3ni)" points="172,43,304,43,311,65.2969,314,65.2969,314,126,172,126,172,43" style="stroke: #000000; stroke-width: 1.5;"/><line style="stroke: #000000; stroke-width: 1.5;" x1="172" x2="311" y1="65.2969" y2="65.2969"/><text fill="#000000" font-family="sans-serif" font-size="14" font-weight="bold" lengthAdjust="spacingAndGlyphs" textLength="126" x="176" y="57.9951">nested package</text><!--MD5=[164f16af274aa610d6409b98ce46e3fe]
cluster p5--><polygon fill="#CBAACB" filter="url(#fagsoyxb7a3ni)" points="22,43,154,43,161,65.2969,164,65.2969,164,126,22,126,22,43" style="stroke: #000000; stroke-width: 1.5;"/><line style="stroke: #000000; stroke-width: 1.5;" x1="22" x2="161" y1="65.2969" y2="65.2969"/><text fill="#000000" font-family="sans-serif" font-size="14" font-weight="bold" lengthAdjust="spacingAndGlyphs" textLength="126" x="26" y="57.9951">nested package</text><path d="M650,70 L650,118.2656 L736,118.2656 L736,80 L726,70 L650,70 " fill="#FCA985" filter="url(#fagsoyxb7a3ni)" style="stroke: #A80036; stroke-width: 1.0;"/><path d="M726,70 L726,80 L736,80 L726,70 " fill="#FCA985" style="stroke: #A80036; stroke-width: 1.0;"/><text fill="#000000" font-family="sans-serif" font-size="13" font-weight="bold" lengthAdjust="spacingAndGlyphs" textLength="33" x="656" y="87.0669">note</text><line style="stroke: #A80036; stroke-width: 1.0;" x1="651" x2="735" y1="90.1328" y2="90.1328"/><text fill="#000000" font-family="sans-serif" font-size="13" lengthAdjust="spacingAndGlyphs" textLength="12" x="656" y="106.1997">1.</text><text fill="#000000" font-family="sans-serif" font-size="13" lengthAdjust="spacingAndGlyphs" textLength="49" x="672" y="106.1997">FFB3BA</text><path d="M494,70 L494,118.2656 L580,118.2656 L580,80 L570,70 L494,70 " fill="#FCA985" filter="url(#fagsoyxb7a3ni)" style="stroke: #A80036; stroke-width: 1.0;"/><path d="M570,70 L570,80 L580,80 L570,70 " fill="#FCA985" style="stroke: #A80036; stroke-width: 1.0;"/><text fill="#000000" font-family="sans-serif" font-size="13" font-weight="bold" lengthAdjust="spacingAndGlyphs" textLength="33" x="500" y="87.0669">note</text><line style="stroke: #A80036; stroke-width: 1.0;" x1="495" x2="579" y1="90.1328" y2="90.1328"/><text fill="#000000" font-family="sans-serif" font-size="13" lengthAdjust="spacingAndGlyphs" textLength="12" x="500" y="106.1997">1.</text><text fill="#000000" font-family="sans-serif" font-size="13" lengthAdjust="spacingAndGlyphs" textLength="49" x="516" y="106.1997">BAFFC9</text><path d="M344.5,70 L344.5,118.2656 L429.5,118.2656 L429.5,80 L419.5,70 L344.5,70 " fill="#FCA985" filter="url(#fagsoyxb7a3ni)" style="stroke: #A80036; stroke-width: 1.0;"/><path d="M419.5,70 L419.5,80 L429.5,80 L419.5,70 " fill="#FCA985" style="stroke: #A80036; stroke-width: 1.0;"/><text fill="#000000" font-family="sans-serif" font-size="13" font-weight="bold" lengthAdjust="spacingAndGlyphs" textLength="33" x="350.5" y="87.0669">note</text><line style="stroke: #A80036; stroke-width: 1.0;" x1="345.5" x2="428.5" y1="90.1328" y2="90.1328"/><text fill="#000000" font-family="sans-serif" font-size="13" lengthAdjust="spacingAndGlyphs" textLength="12" x="350.5" y="106.1997">1.</text><text fill="#000000" font-family="sans-serif" font-size="13" lengthAdjust="spacingAndGlyphs" textLength="48" x="366.5" y="106.1997">BAE1FF</text><path d="M194,70 L194,118.2656 L280,118.2656 L280,80 L270,70 L194,70 " fill="#FCA985" filter="url(#fagsoyxb7a3ni)" style="stroke: #A80036; stroke-width: 1.0;"/><path d="M270,70 L270,80 L280,80 L270,70 " fill="#FCA985" style="stroke: #A80036; stroke-width: 1.0;"/><text fill="#000000" font-family="sans-serif" font-size="13" font-weight="bold" lengthAdjust="spacingAndGlyphs" textLength="33" x="200" y="87.0669">note</text><line style="stroke: #A80036; stroke-width: 1.0;" x1="195" x2="279" y1="90.1328" y2="90.1328"/><text fill="#000000" font-family="sans-serif" font-size="13" lengthAdjust="spacingAndGlyphs" textLength="12" x="200" y="106.1997">1.</text><text fill="#000000" font-family="sans-serif" font-size="13" lengthAdjust="spacingAndGlyphs" textLength="49" x="216" y="106.1997">FFDFBA</text><path d="M41.5,70 L41.5,118.2656 L132.5,118.2656 L132.5,80 L122.5,70 L41.5,70 " fill="#FCA985" filter="url(#fagsoyxb7a3ni)" style="stroke: #A80036; stroke-width: 1.0;"/><path d="M122.5,70 L122.5,80 L132.5,80 L122.5,70 " fill="#FCA985" style="stroke: #A80036; stroke-width: 1.0;"/><text fill="#000000" font-family="sans-serif" font-size="13" font-weight="bold" lengthAdjust="spacingAndGlyphs" textLength="33" x="47.5" y="87.0669">note</text><line style="stroke: #A80036; stroke-width: 1.0;" x1="42.5" x2="131.5" y1="90.1328" y2="90.1328"/><text fill="#000000" font-family="sans-serif" font-size="13" lengthAdjust="spacingAndGlyphs" textLength="12" x="47.5" y="106.1997">1.</text><text fill="#000000" font-family="sans-serif" font-size="13" lengthAdjust="spacingAndGlyphs" textLength="54" x="63.5" y="106.1997">CBAACB</text><!--MD5=[4b92d7d2cf30cd4c05b095a42c23aade]
@startuml

package "package" as p0 #FFFFBA {
    package "nested package" as p1 #FFB3BA {
        note as n1 #FCA985
            **note**
            - -
            #FFB3BA
        end note
    }
    package "nested package" as p3 #BAFFC9 {
        note as n3 #FCA985
            **note**
            - -
            #BAFFC9
        end note
    }
    package "nested package" as p4 #BAE1FF {
        note as n4 #FCA985
            **note**
            - -
            #BAE1FF
        end note
    }
    package "nested package" as p2 #FFDFBA {
        note as n2 #FCA985
            **note**
            - -
            #FFDFBA
        end note
    }
    package "nested package" as p5 #CBAACB {
        note as n5 #FCA985
            **note**
            - -
            #CBAACB
        end note
    }
}

@enduml

PlantUML version 1.2020.06(Sun Apr 05 12:38:32 GMT 2020)
(GPL source distribution)
Java Runtime: OpenJDK Runtime Environment
JVM: OpenJDK 64-Bit Server VM
Java Version: 14-ea+33
Operating System: Linux
Default Encoding: UTF-8
Language: en
Country: US
--></g></svg>