<?xml version="1.0" encoding="UTF-8" standalone="no"?><svg xmlns="http://www.w3.org/2000/svg" xmlns:xlink="http://www.w3.org/1999/xlink" contentScriptType="application/ecmascript" contentStyleType="text/css" height="276px" preserveAspectRatio="none" style="width:1171px;height:276px;" version="1.1" viewBox="0 0 1171 276" width="1171px" zoomAndPan="magnify"><defs><filter height="300%" id="fogljzorv9qru" width="300%" x="-1" y="-1"><feGaussianBlur result="blurOut" stdDeviation="2.0"/><feColorMatrix in="blurOut" result="blurOut2" type="matrix" values="0 0 0 0 0 0 0 0 0 0 0 0 0 0 0 0 0 0 .4 0"/><feOffset dx="4.0" dy="4.0" in="blurOut2" result="blurOut3"/><feBlend in="SourceGraphic" in2="blurOut3" mode="normal"/></filter></defs><g><!--MD5=[9734707d94b55ca7b71982c088a40502]
class class1--><rect fill="#CBAACB" filter="url(#fogljzorv9qru)" height="73.6094" id="class1" style="stroke: #A80036; stroke-width: 1.5;" width="156" x="429" y="33"/><rect fill="#CBAACB" height="32" style="stroke: #A80036; stroke-width: 1.5;" width="156" x="429" y="33"/><ellipse cx="475.25" cy="49" fill="#A9DCDF" rx="11" ry="11" style="stroke: #A80036; stroke-width: 1.0;"/><path d="M475.3594,44.3438 L474.2031,49.4219 L476.5313,49.4219 L475.3594,44.3438 Z M473.875,42.1094 L476.8594,42.1094 L480.2188,54.5 L477.7656,54.5 L477,51.4375 L473.7188,51.4375 L472.9688,54.5 L470.5313,54.5 L473.875,42.1094 Z "/><text fill="#000000" font-family="sans-serif" font-size="12" font-style="italic" font-weight="bold" lengthAdjust="spacingAndGlyphs" textLength="55" x="495.75" y="53.1543">Machine</text><line style="stroke: #A80036; stroke-width: 1.5;" x1="430" x2="584" y1="65" y2="65"/><rect fill="none" height="6" style="stroke: #C82930; stroke-width: 1.0;" width="6" x="437" y="73"/><text fill="#000000" font-family="sans-serif" font-size="11" lengthAdjust="spacingAndGlyphs" textLength="103" x="449" y="79.2104">location : Location</text><line style="stroke: #A80036; stroke-width: 1.5;" x1="430" x2="584" y1="85.8047" y2="85.8047"/><ellipse cx="440" cy="96.8047" fill="#84BE84" rx="3" ry="3" style="stroke: #038048; stroke-width: 1.0;"/><text fill="#000000" font-family="sans-serif" font-size="11" font-style="italic" lengthAdjust="spacingAndGlyphs" textLength="130" x="449" y="100.0151">getStatus() : std::string</text><!--MD5=[98e1d6ad5f9fb72ded456cb9eebad3cd]
class interface1--><rect fill="#BAFFC9" filter="url(#fogljzorv9qru)" height="60.8047" id="interface1" style="stroke: #A80036; stroke-width: 1.5;" width="155" x="620.5" y="39.5"/><rect fill="#BAFFC9" height="32" style="stroke: #A80036; stroke-width: 1.5;" width="155" x="620.5" y="39.5"/><ellipse cx="649.45" cy="55.5" fill="#B4A7E5" rx="11" ry="11" style="stroke: #A80036; stroke-width: 1.0;"/><path d="M645.3719,51.2656 L645.3719,49.1094 L652.7625,49.1094 L652.7625,51.2656 L650.2938,51.2656 L650.2938,59.3438 L652.7625,59.3438 L652.7625,61.5 L645.3719,61.5 L645.3719,59.3438 L647.8406,59.3438 L647.8406,51.2656 L645.3719,51.2656 Z "/><text fill="#000000" font-family="sans-serif" font-size="12" font-style="italic" font-weight="bold" lengthAdjust="spacingAndGlyphs" textLength="92" x="666.55" y="59.6543">StatusLogger</text><line style="stroke: #A80036; stroke-width: 1.5;" x1="621.5" x2="774.5" y1="71.5" y2="71.5"/><line style="stroke: #A80036; stroke-width: 1.5;" x1="621.5" x2="774.5" y1="79.5" y2="79.5"/><ellipse cx="631.5" cy="90.5" fill="#84BE84" rx="3" ry="3" style="stroke: #038048; stroke-width: 1.0;"/><text fill="#000000" font-family="sans-serif" font-size="11" font-style="italic" lengthAdjust="spacingAndGlyphs" textLength="129" x="640.5" y="93.7104">logStatusToFile() : void</text><!--MD5=[5bd124f2ff5297a7fd349100317f0a5e]
class class2--><rect fill="#EEEEEE" filter="url(#fogljzorv9qru)" height="73.6094" id="class2" style="stroke: #A80036; stroke-width: 1.5;" width="156" x="439" y="192"/><rect fill="#EEEEEE" height="32" style="stroke: #A80036; stroke-width: 1.5;" width="156" x="439" y="192"/><ellipse cx="471.1" cy="208" fill="#ADD1B2" rx="11" ry="11" style="stroke: #A80036; stroke-width: 1.0;"/><path d="M474.0688,213.6406 Q473.4906,213.9375 472.85,214.0781 Q472.2094,214.2344 471.5063,214.2344 Q469.0063,214.2344 467.6781,212.5938 Q466.3656,210.9375 466.3656,207.8125 Q466.3656,204.6875 467.6781,203.0313 Q469.0063,201.375 471.5063,201.375 Q472.2094,201.375 472.85,201.5313 Q473.5063,201.6875 474.0688,201.9844 L474.0688,204.7031 Q473.4438,204.125 472.85,203.8594 Q472.2563,203.5781 471.6313,203.5781 Q470.2875,203.5781 469.6,204.6563 Q468.9125,205.7188 468.9125,207.8125 Q468.9125,209.9063 469.6,210.9844 Q470.2875,212.0469 471.6313,212.0469 Q472.2563,212.0469 472.85,211.7813 Q473.4438,211.5 474.0688,210.9219 L474.0688,213.6406 Z "/><text fill="#000000" font-family="sans-serif" font-size="12" font-weight="bold" lengthAdjust="spacingAndGlyphs" textLength="86" x="488.9" y="212.1543">WoodCutter</text><line style="stroke: #A80036; stroke-width: 1.5;" x1="440" x2="594" y1="224" y2="224"/><line style="stroke: #A80036; stroke-width: 1.5;" x1="440" x2="594" y1="232" y2="232"/><ellipse cx="450" cy="243" fill="#84BE84" rx="3" ry="3" style="stroke: #038048; stroke-width: 1.0;"/><text fill="#000000" font-family="sans-serif" font-size="11" lengthAdjust="spacingAndGlyphs" textLength="130" x="459" y="246.2104">getStatus() : std:string</text><ellipse cx="450" cy="255.8047" fill="#84BE84" rx="3" ry="3" style="stroke: #038048; stroke-width: 1.0;"/><text fill="#000000" font-family="sans-serif" font-size="11" lengthAdjust="spacingAndGlyphs" textLength="130" x="459" y="259.0151">logStatusToFile() : void</text><!--MD5=[f04fe4f5b4480e38bcacbb8ce6851745]
class class3--><rect fill="#EEEEEE" filter="url(#fogljzorv9qru)" height="48" id="class3" style="stroke: #A80036; stroke-width: 1.5;" width="116" x="640" y="205"/><rect fill="#EEEEEE" height="32" style="stroke: #A80036; stroke-width: 1.5;" width="116" x="640" y="205"/><ellipse cx="655" cy="221" fill="#ADD1B2" rx="11" ry="11" style="stroke: #A80036; stroke-width: 1.0;"/><path d="M657.9688,226.6406 Q657.3906,226.9375 656.75,227.0781 Q656.1094,227.2344 655.4063,227.2344 Q652.9063,227.2344 651.5781,225.5938 Q650.2656,223.9375 650.2656,220.8125 Q650.2656,217.6875 651.5781,216.0313 Q652.9063,214.375 655.4063,214.375 Q656.1094,214.375 656.75,214.5313 Q657.4063,214.6875 657.9688,214.9844 L657.9688,217.7031 Q657.3438,217.125 656.75,216.8594 Q656.1563,216.5781 655.5313,216.5781 Q654.1875,216.5781 653.5,217.6563 Q652.8125,218.7188 652.8125,220.8125 Q652.8125,222.9063 653.5,223.9844 Q654.1875,225.0469 655.5313,225.0469 Q656.1563,225.0469 656.75,224.7813 Q657.3438,224.5 657.9688,223.9219 L657.9688,226.6406 Z "/><text fill="#000000" font-family="sans-serif" font-size="12" font-weight="bold" lengthAdjust="spacingAndGlyphs" textLength="84" x="669" y="225.1543">HeatSensor</text><line style="stroke: #A80036; stroke-width: 1.5;" x1="641" x2="755" y1="237" y2="237"/><line style="stroke: #A80036; stroke-width: 1.5;" x1="641" x2="755" y1="245" y2="245"/><path d="M811,23 L811,66 L775.6357,70 L811,74 L811,116.6641 A0,0 0 0 0 811,116.6641 L1159,116.6641 A0,0 0 0 0 1159,116.6641 L1159,33 L1149,23 L811,23 A0,0 0 0 0 811,23 " fill="#FCA985" filter="url(#fogljzorv9qru)" style="stroke: #A80036; stroke-width: 1.0;"/><path d="M1149,23 L1149,33 L1159,33 L1149,23 " fill="#FCA985" style="stroke: #A80036; stroke-width: 1.0;"/><text fill="#000000" font-family="sans-serif" font-size="13" font-weight="bold" lengthAdjust="spacingAndGlyphs" textLength="66" x="817" y="40.0669">interface</text><line style="stroke: #A80036; stroke-width: 1.0;" x1="812" x2="1158" y1="43.1328" y2="43.1328"/><text fill="#000000" font-family="sans-serif" font-size="13" lengthAdjust="spacingAndGlyphs" textLength="278" x="817" y="59.1997">Dit is een voorbeeld van een interface class</text><text fill="#000000" font-family="sans-serif" font-size="13" lengthAdjust="spacingAndGlyphs" textLength="198" x="817" y="74.3325">een interface class bevat enkel</text><text fill="#000000" font-family="sans-serif" font-size="13" font-weight="bold" lengthAdjust="spacingAndGlyphs" textLength="85" x="1019" y="74.3325">pure virtual</text><text fill="#000000" font-family="sans-serif" font-size="13" lengthAdjust="spacingAndGlyphs" textLength="326" x="817" y="89.4653">functies. Een class die een interface inplementeerd</text><text fill="#000000" font-family="sans-serif" font-size="13" lengthAdjust="spacingAndGlyphs" textLength="327" x="817" y="104.5981">moet alle functies van de interface implementeren.</text><path d="M791,209 L791,225 L756.1875,229 L791,233 L791,249.2656 A0,0 0 0 0 791,249.2656 L1137,249.2656 A0,0 0 0 0 1137,249.2656 L1137,219 L1127,209 L791,209 A0,0 0 0 0 791,209 " fill="#FCA985" filter="url(#fogljzorv9qru)" style="stroke: #A80036; stroke-width: 1.0;"/><path d="M1127,209 L1127,219 L1137,219 L1127,209 " fill="#FCA985" style="stroke: #A80036; stroke-width: 1.0;"/><text fill="#000000" font-family="sans-serif" font-size="13" lengthAdjust="spacingAndGlyphs" textLength="325" x="797" y="226.0669">In dit voorbeeld kan er dus geen instantie gemaakt</text><text fill="#000000" font-family="sans-serif" font-size="13" lengthAdjust="spacingAndGlyphs" textLength="129" x="797" y="241.1997">worden van de class</text><text fill="#000000" font-family="sans-serif" font-size="13" font-weight="bold" lengthAdjust="spacingAndGlyphs" textLength="85" x="930" y="241.1997">HeatSensor</text><text fill="#000000" font-family="sans-serif" font-size="13" lengthAdjust="spacingAndGlyphs" textLength="4" x="1015" y="241.1997">.</text><path d="M6,8 L6,131.9297 A0,0 0 0 0 6,131.9297 L394,131.9297 A0,0 0 0 0 394,131.9297 L394,74 L428.6198,70 L394,66 L394,18 L384,8 L6,8 A0,0 0 0 0 6,8 " fill="#FCA985" filter="url(#fogljzorv9qru)" style="stroke: #A80036; stroke-width: 1.0;"/><path d="M384,8 L384,18 L394,18 L384,8 " fill="#FCA985" style="stroke: #A80036; stroke-width: 1.0;"/><text fill="#000000" font-family="sans-serif" font-size="13" font-weight="bold" lengthAdjust="spacingAndGlyphs" textLength="104" x="12" y="25.0669">abstract class</text><line style="stroke: #A80036; stroke-width: 1.0;" x1="7" x2="393" y1="28.1328" y2="28.1328"/><text fill="#000000" font-family="sans-serif" font-size="13" lengthAdjust="spacingAndGlyphs" textLength="311" x="12" y="44.1997">Een abstacte klasse is een class die een of meer</text><text fill="#000000" font-family="sans-serif" font-size="13" lengthAdjust="spacingAndGlyphs" textLength="268" x="12" y="59.3325">abstacte (pure virtual) functies bevat. een</text><text fill="#000000" font-family="sans-serif" font-size="13" font-weight="bold" lengthAdjust="spacingAndGlyphs" textLength="127" x="12" y="74.4653">abstracte functie</text><text fill="#000000" font-family="sans-serif" font-size="13" lengthAdjust="spacingAndGlyphs" textLength="201" x="143" y="74.4653">staat schuingedrukt genoteerd.</text><text fill="#000000" font-family="sans-serif" font-size="13" lengthAdjust="spacingAndGlyphs" textLength="0" x="16" y="89.5981"/><text fill="#000000" font-family="sans-serif" font-size="13" lengthAdjust="spacingAndGlyphs" textLength="312" x="12" y="104.731">Als een class wil 'erven' van een abstracte klasse</text><text fill="#000000" font-family="sans-serif" font-size="13" lengthAdjust="spacingAndGlyphs" textLength="50" x="12" y="119.8638">moeten</text><text fill="#000000" font-family="sans-serif" font-size="13" font-weight="bold" lengthAdjust="spacingAndGlyphs" textLength="166" x="66" y="119.8638">alle abstracte functies</text><text fill="#000000" font-family="sans-serif" font-size="13" lengthAdjust="spacingAndGlyphs" textLength="143" x="236" y="119.8638">geimplementeerd zijn.</text><path d="M6,193.5 L6,264.0313 A0,0 0 0 0 6,264.0313 L404,264.0313 A0,0 0 0 0 404,264.0313 L404,233 L438.6144,229 L404,225 L404,203.5 L394,193.5 L6,193.5 A0,0 0 0 0 6,193.5 " fill="#FCA985" filter="url(#fogljzorv9qru)" style="stroke: #A80036; stroke-width: 1.0;"/><path d="M394,193.5 L394,203.5 L404,203.5 L394,193.5 " fill="#FCA985" style="stroke: #A80036; stroke-width: 1.0;"/><text fill="#000000" font-family="sans-serif" font-size="13" lengthAdjust="spacingAndGlyphs" textLength="63" x="12" y="210.5669">De class "</text><text fill="#000000" font-family="sans-serif" font-size="13" font-weight="bold" lengthAdjust="spacingAndGlyphs" textLength="88" x="75" y="210.5669">WoodCutter</text><text fill="#000000" font-family="sans-serif" font-size="13" lengthAdjust="spacingAndGlyphs" textLength="226" x="163" y="210.5669">" implemneteerd beide de interface</text><text fill="#000000" font-family="sans-serif" font-size="13" lengthAdjust="spacingAndGlyphs" textLength="5" x="12" y="225.6997">"</text><text fill="#000000" font-family="sans-serif" font-size="13" font-weight="bold" lengthAdjust="spacingAndGlyphs" textLength="99" x="17" y="225.6997">StatusLogger</text><text fill="#000000" font-family="sans-serif" font-size="13" lengthAdjust="spacingAndGlyphs" textLength="163" x="116" y="225.6997">" en de abstracte klasse "</text><text fill="#000000" font-family="sans-serif" font-size="13" font-style="italic" font-weight="bold" lengthAdjust="spacingAndGlyphs" textLength="61" x="279" y="225.6997">Machine</text><text fill="#000000" font-family="sans-serif" font-size="13" lengthAdjust="spacingAndGlyphs" textLength="5" x="340" y="225.6997">"</text><text fill="#000000" font-family="sans-serif" font-size="13" lengthAdjust="spacingAndGlyphs" textLength="354" x="12" y="240.8325">te zien is dat de functionaliteiten van beide de interface</text><text fill="#000000" font-family="sans-serif" font-size="13" lengthAdjust="spacingAndGlyphs" textLength="342" x="12" y="255.9653">en de abstract class geimplemeneerd zijn in de class.</text><!--MD5=[29fd8951225375fd853b9871f7b9d1fb]
link class1 to interface1--><!--MD5=[5b4d46134aa3431e299a019ad405e12d]
reverse link class1 to class2--><path d="M510.6074,127.3582 C511.961,148.8805 513.4626,172.7553 514.6701,191.9551 " fill="none" id="class1&lt;-class2" style="stroke: #A80036; stroke-width: 1.0;"/><polygon fill="none" points="503.6138,127.6784,509.3446,107.2784,517.5862,126.7996,503.6138,127.6784" style="stroke: #A80036; stroke-width: 1.0;"/><!--MD5=[d75367ceac05447453e24ae598c33585]
reverse link interface1 to class2--><path d="M647.9887,113.9326 C620.1748,138.3658 585.9337,168.445 559.4365,191.7216 " fill="none" id="interface1&lt;-class2" style="stroke: #A80036; stroke-width: 1.0; stroke-dasharray: 7.0,7.0;"/><polygon fill="none" points="643.4557,108.5973,663.1014,100.6568,652.6954,119.1153,643.4557,108.5973" style="stroke: #A80036; stroke-width: 1.0;"/><!--MD5=[440feb48cb4a82439cafbb51c6438eac]
reverse link interface1 to class3--><path d="M698,120.7697 C698,148.8448 698,182.4431 698,204.6782 " fill="none" id="interface1&lt;-class3" style="stroke: #A80036; stroke-width: 1.0; stroke-dasharray: 7.0,7.0;"/><polygon fill="none" points="691.0001,120.6568,698,100.6568,705.0001,120.6568,691.0001,120.6568" style="stroke: #A80036; stroke-width: 1.0;"/><!--MD5=[7b752396204fd43aeb21902bb100eefd]
@startuml

abstract class1 as "**//Machine//**" #CBAACB
{
    {field} - location : Location
    {method} + {abstract} getStatus() : std::string
}

interface interface1 as "**//StatusLogger//**" #BAFFC9
{
    {method} + {abstract} logStatusToFile() : void
}

class class2 as "**WoodCutter**" #EEEEEE
{
    {method} + getStatus() : std:string
    {method} + logStatusToFile() : void
}

class class3 as "**HeatSensor**" #EEEEEE

class1 -[hidden]right-> interface1

class2 -up-|> class1
class2 .up.|> interface1
class3 .up.|> interface1


note right of interface1 #FCA985
    **interface**
    - -
    Dit is een voorbeeld van een interface class
    een interface class bevat enkel **pure virtual**
    functies. Een class die een interface inplementeerd
    moet alle functies van de interface implementeren.
end note

note right of class3 #FCA985
    In dit voorbeeld kan er dus geen instantie gemaakt
    worden van de class **HeatSensor**.
end note

note left of class1 #FCA985
    **abstract class**
    - -
    Een abstacte klasse is een class die een of meer
    abstacte (pure virtual) functies bevat. een
    **abstracte functie** staat schuingedrukt genoteerd.

    Als een class wil 'erven' van een abstracte klasse
    moeten **alle abstracte functies** geimplementeerd zijn.
end note

note left of class2 #FCA985
    De class "**WoodCutter**" implemneteerd beide de interface
    "**StatusLogger**" en de abstracte klasse "**//Machine//**"
    te zien is dat de functionaliteiten van beide de interface
    en de abstract class geimplemeneerd zijn in de class.
end note

@enduml

PlantUML version 1.2020.06(Sun Apr 05 12:38:32 GMT 2020)
(GPL source distribution)
Java Runtime: OpenJDK Runtime Environment
JVM: OpenJDK 64-Bit Server VM
Java Version: 14-ea+33
Operating System: Linux
Default Encoding: UTF-8
Language: en
Country: US
--></g></svg>