<?xml version="1.0" encoding="UTF-8" standalone="no"?><svg xmlns="http://www.w3.org/2000/svg" xmlns:xlink="http://www.w3.org/1999/xlink" contentScriptType="application/ecmascript" contentStyleType="text/css" height="292px" preserveAspectRatio="none" style="width:911px;height:292px;" version="1.1" viewBox="0 0 911 292" width="911px" zoomAndPan="magnify"><defs><filter height="300%" id="f17hmgtguxkyuv" width="300%" x="-1" y="-1"><feGaussianBlur result="blurOut" stdDeviation="2.0"/><feColorMatrix in="blurOut" result="blurOut2" type="matrix" values="0 0 0 0 0 0 0 0 0 0 0 0 0 0 0 0 0 0 .4 0"/><feOffset dx="4.0" dy="4.0" in="blurOut2" result="blurOut3"/><feBlend in="SourceGraphic" in2="blurOut3" mode="normal"/></filter></defs><g><!--MD5=[9734707d94b55ca7b71982c088a40502]
class class1--><rect fill="#FEFECE" filter="url(#f17hmgtguxkyuv)" height="48" id="class1" style="stroke: #A80036; stroke-width: 1.5;" width="97" x="6" y="8"/><ellipse cx="21" cy="24" fill="#ADD1B2" rx="11" ry="11" style="stroke: #A80036; stroke-width: 1.0;"/><path d="M23.9688,29.6406 Q23.3906,29.9375 22.75,30.0781 Q22.1094,30.2344 21.4063,30.2344 Q18.9063,30.2344 17.5781,28.5938 Q16.2656,26.9375 16.2656,23.8125 Q16.2656,20.6875 17.5781,19.0313 Q18.9063,17.375 21.4063,17.375 Q22.1094,17.375 22.75,17.5313 Q23.4063,17.6875 23.9688,17.9844 L23.9688,20.7031 Q23.3438,20.125 22.75,19.8594 Q22.1563,19.5781 21.5313,19.5781 Q20.1875,19.5781 19.5,20.6563 Q18.8125,21.7188 18.8125,23.8125 Q18.8125,25.9063 19.5,26.9844 Q20.1875,28.0469 21.5313,28.0469 Q22.1563,28.0469 22.75,27.7813 Q23.3438,27.5 23.9688,26.9219 L23.9688,29.6406 Z "/><text fill="#000000" font-family="sans-serif" font-size="12" font-weight="bold" lengthAdjust="spacingAndGlyphs" textLength="65" x="35" y="28.1543">Company</text><line style="stroke: #A80036; stroke-width: 1.5;" x1="7" x2="102" y1="40" y2="40"/><line style="stroke: #A80036; stroke-width: 1.5;" x1="7" x2="102" y1="48" y2="48"/><!--MD5=[5bd124f2ff5297a7fd349100317f0a5e]
class class2--><rect fill="#FEFECE" filter="url(#f17hmgtguxkyuv)" height="48" id="class2" style="stroke: #A80036; stroke-width: 1.5;" width="82" x="13.5" y="233"/><ellipse cx="28.5" cy="249" fill="#ADD1B2" rx="11" ry="11" style="stroke: #A80036; stroke-width: 1.0;"/><path d="M31.4688,254.6406 Q30.8906,254.9375 30.25,255.0781 Q29.6094,255.2344 28.9063,255.2344 Q26.4063,255.2344 25.0781,253.5938 Q23.7656,251.9375 23.7656,248.8125 Q23.7656,245.6875 25.0781,244.0313 Q26.4063,242.375 28.9063,242.375 Q29.6094,242.375 30.25,242.5313 Q30.9063,242.6875 31.4688,242.9844 L31.4688,245.7031 Q30.8438,245.125 30.25,244.8594 Q29.6563,244.5781 29.0313,244.5781 Q27.6875,244.5781 27,245.6563 Q26.3125,246.7188 26.3125,248.8125 Q26.3125,250.9063 27,251.9844 Q27.6875,253.0469 29.0313,253.0469 Q29.6563,253.0469 30.25,252.7813 Q30.8438,252.5 31.4688,251.9219 L31.4688,254.6406 Z "/><text fill="#000000" font-family="sans-serif" font-size="12" font-weight="bold" lengthAdjust="spacingAndGlyphs" textLength="50" x="42.5" y="253.1543">Person</text><line style="stroke: #A80036; stroke-width: 1.5;" x1="14.5" x2="94.5" y1="265" y2="265"/><line style="stroke: #A80036; stroke-width: 1.5;" x1="14.5" x2="94.5" y1="273" y2="273"/><!--MD5=[f04fe4f5b4480e38bcacbb8ce6851745]
class class3--><rect fill="#FEFECE" filter="url(#f17hmgtguxkyuv)" height="48" id="class3" style="stroke: #A80036; stroke-width: 1.5;" width="118" x="449.5" y="120.5"/><ellipse cx="464.5" cy="136.5" fill="#ADD1B2" rx="11" ry="11" style="stroke: #A80036; stroke-width: 1.0;"/><path d="M467.4688,142.1406 Q466.8906,142.4375 466.25,142.5781 Q465.6094,142.7344 464.9063,142.7344 Q462.4063,142.7344 461.0781,141.0938 Q459.7656,139.4375 459.7656,136.3125 Q459.7656,133.1875 461.0781,131.5313 Q462.4063,129.875 464.9063,129.875 Q465.6094,129.875 466.25,130.0313 Q466.9063,130.1875 467.4688,130.4844 L467.4688,133.2031 Q466.8438,132.625 466.25,132.3594 Q465.6563,132.0781 465.0313,132.0781 Q463.6875,132.0781 463,133.1563 Q462.3125,134.2188 462.3125,136.3125 Q462.3125,138.4063 463,139.4844 Q463.6875,140.5469 465.0313,140.5469 Q465.6563,140.5469 466.25,140.2813 Q466.8438,140 467.4688,139.4219 L467.4688,142.1406 Z "/><text fill="#000000" font-family="sans-serif" font-size="12" font-weight="bold" lengthAdjust="spacingAndGlyphs" textLength="86" x="478.5" y="140.6543">Employment</text><line style="stroke: #A80036; stroke-width: 1.5;" x1="450.5" x2="566.5" y1="152.5" y2="152.5"/><line style="stroke: #A80036; stroke-width: 1.5;" x1="450.5" x2="566.5" y1="160.5" y2="160.5"/><ellipse cx="54.5" cy="144.5" fill="#000000" rx="2" ry="2" style="stroke: none; stroke-width: 1.0;"/><path d="M603.5,117 L603.5,140.5 L567.8262,144.5 L603.5,148.5 L603.5,172.3984 A0,0 0 0 0 603.5,172.3984 L899.5,172.3984 A0,0 0 0 0 899.5,172.3984 L899.5,127 L889.5,117 L603.5,117 A0,0 0 0 0 603.5,117 " fill="#FBFB77" filter="url(#f17hmgtguxkyuv)" style="stroke: #A80036; stroke-width: 1.0;"/><path d="M889.5,117 L889.5,127 L899.5,127 L889.5,117 " fill="#FBFB77" style="stroke: #A80036; stroke-width: 1.0;"/><text fill="#000000" font-family="sans-serif" font-size="13" lengthAdjust="spacingAndGlyphs" textLength="274" x="609.5" y="134.0669">In dit voorbeeld wordt weergegeven hoe de</text><text fill="#000000" font-family="sans-serif" font-size="13" font-weight="bold" lengthAdjust="spacingAndGlyphs" textLength="125" x="609.5" y="149.1997">association class</text><text fill="#000000" font-family="sans-serif" font-size="13" lengthAdjust="spacingAndGlyphs" textLength="146" x="738.5" y="149.1997">betrekking heeft tot de</text><text fill="#000000" font-family="sans-serif" font-size="13" lengthAdjust="spacingAndGlyphs" textLength="140" x="609.5" y="164.3325">rest van het systeem.</text><!--MD5=[0d2e2a982b1d03bfe035fe7e4b9f8474]
link class1 to apoint6--><path d="M54.5,56.1341 C54.5,85.0582 54.5,131.0203 54.5,142.0588 " fill="none" id="class1-apoint6" style="stroke: #A80036; stroke-width: 1.0;"/><!--MD5=[6482f53df13ba81c9eee32991a702467]
link apoint6 to class2--><path d="M54.5,146.8497 C54.5,155.4394 54.5,186.0341 54.5,212.8057 " fill="none" id="apoint6-&gt;class2" style="stroke: #A80036; stroke-width: 1.0;"/><polygon fill="none" points="61.5001,212.963,54.5,232.963,47.5001,212.9629,61.5001,212.963" style="stroke: #A80036; stroke-width: 1.0;"/><!--MD5=[202298113bdf31e6956a424c7e361686]
link apoint6 to class3--><path d="M56.5241,144.5 C81.5678,144.5 332.5768,144.5 449.3403,144.5 " fill="none" id="apoint6-class3" style="stroke: #A80036; stroke-width: 1.0; stroke-dasharray: 7.0,7.0;"/><path d="M79.5,62.5 L79.5,132.5 L422.5,132.5 L422.5,72.5 L412.5,62.5 L79.5,62.5 " fill="#FBFB77" filter="url(#f17hmgtguxkyuv)" style="stroke: #A80036; stroke-width: 1.0;"/><path d="M412.5,62.5 L412.5,72.5 L422.5,72.5 L412.5,62.5 " fill="#FBFB77" style="stroke: #A80036; stroke-width: 1.0;"/><text fill="#000000" font-family="sans-serif" font-size="13" lengthAdjust="spacingAndGlyphs" textLength="5" x="85.5" y="79.5669">"</text><text fill="#000000" font-family="sans-serif" font-size="13" font-weight="bold" lengthAdjust="spacingAndGlyphs" textLength="125" x="90.5" y="79.5669">association class</text><text fill="#000000" font-family="sans-serif" font-size="13" lengthAdjust="spacingAndGlyphs" textLength="5" x="215.5" y="79.5669">"</text><text fill="#000000" font-family="sans-serif" font-size="13" lengthAdjust="spacingAndGlyphs" textLength="322" x="85.5" y="94.6997">De connectie hier te zien is een connectie van een</text><text fill="#000000" font-family="sans-serif" font-size="13" lengthAdjust="spacingAndGlyphs" textLength="5" x="85.5" y="109.8325">"</text><text fill="#000000" font-family="sans-serif" font-size="13" font-weight="bold" lengthAdjust="spacingAndGlyphs" textLength="125" x="90.5" y="109.8325">association class</text><text fill="#000000" font-family="sans-serif" font-size="13" lengthAdjust="spacingAndGlyphs" textLength="180" x="215.5" y="109.8325">" naar de associatie waar de</text><text fill="#000000" font-family="sans-serif" font-size="13" lengthAdjust="spacingAndGlyphs" textLength="166" x="85.5" y="124.9653">class betrekking tot heeft.</text><!--MD5=[c7454dbece6cf3ca949756c694667765]
@startuml

class class1 as "**Company**"
class class2 as "**Person**"
class class3 as "**Employment**"

class1 - -|> class2
(class1, class2) .. class3

note on link
    "**association class**"
    De connectie hier te zien is een connectie van een
    "**association class**" naar de associatie waar de
    class betrekking tot heeft.
end note

note right of class3
    In dit voorbeeld wordt weergegeven hoe de
    **association class** betrekking heeft tot de
    rest van het systeem.
end note
@enduml

PlantUML version 1.2020.06(Sun Apr 05 12:38:32 GMT 2020)
(GPL source distribution)
Java Runtime: OpenJDK Runtime Environment
JVM: OpenJDK 64-Bit Server VM
Java Version: 14-ea+33
Operating System: Linux
Default Encoding: UTF-8
Language: en
Country: US
--></g></svg>