<?xml version="1.0" encoding="UTF-8" standalone="no"?><svg xmlns="http://www.w3.org/2000/svg" xmlns:xlink="http://www.w3.org/1999/xlink" contentScriptType="application/ecmascript" contentStyleType="text/css" height="573px" preserveAspectRatio="none" style="width:889px;height:573px;" version="1.1" viewBox="0 0 889 573" width="889px" zoomAndPan="magnify"><defs><filter height="300%" id="fp0g79q86nw6v" width="300%" x="-1" y="-1"><feGaussianBlur result="blurOut" stdDeviation="2.0"/><feColorMatrix in="blurOut" result="blurOut2" type="matrix" values="0 0 0 0 0 0 0 0 0 0 0 0 0 0 0 0 0 0 .4 0"/><feOffset dx="4.0" dy="4.0" in="blurOut2" result="blurOut3"/><feBlend in="SourceGraphic" in2="blurOut3" mode="normal"/></filter></defs><g><!--MD5=[f9b8df8931f9c96c204234303d4ee943]
class class0--><rect fill="#EEEEEE" filter="url(#fp0g79q86nw6v)" height="235.2656" id="class0" style="stroke: #A80036; stroke-width: 1.5;" width="268" x="6" y="62.5"/><rect fill="#EEEEEE" height="32" style="stroke: #A80036; stroke-width: 1.5;" width="268" x="6" y="62.5"/><ellipse cx="103.75" cy="78.5" fill="#ADD1B2" rx="11" ry="11" style="stroke: #A80036; stroke-width: 1.0;"/><path d="M106.7188,84.1406 Q106.1406,84.4375 105.5,84.5781 Q104.8594,84.7344 104.1563,84.7344 Q101.6563,84.7344 100.3281,83.0938 Q99.0156,81.4375 99.0156,78.3125 Q99.0156,75.1875 100.3281,73.5313 Q101.6563,71.875 104.1563,71.875 Q104.8594,71.875 105.5,72.0313 Q106.1563,72.1875 106.7188,72.4844 L106.7188,75.2031 Q106.0938,74.625 105.5,74.3594 Q104.9063,74.0781 104.2813,74.0781 Q102.9375,74.0781 102.25,75.1563 Q101.5625,76.2188 101.5625,78.3125 Q101.5625,80.4063 102.25,81.4844 Q102.9375,82.5469 104.2813,82.5469 Q104.9063,82.5469 105.5,82.2813 Q106.0938,82 106.7188,81.4219 L106.7188,84.1406 Z "/><text fill="#000000" font-family="sans-serif" font-size="12" lengthAdjust="spacingAndGlyphs" textLength="64" x="124.25" y="82.6543">BaseClass</text><line style="stroke: #A80036; stroke-width: 1.5;" x1="7" x2="273" y1="94.5" y2="94.5"/><rect fill="none" height="6" style="stroke: #C82930; stroke-width: 1.0;" width="6" x="14" y="102.5"/><text fill="#000000" font-family="sans-serif" font-size="11" lengthAdjust="spacingAndGlyphs" textLength="103" x="26" y="108.7104">name : std::string</text><rect fill="none" height="6" style="stroke: #C82930; stroke-width: 1.0;" width="6" x="14" y="115.3047"/><text fill="#000000" font-family="sans-serif" font-size="11" lengthAdjust="spacingAndGlyphs" textLength="101" x="26" y="121.5151">number : uint16_t</text><line style="stroke: #A80036; stroke-width: 1.0;" x1="7" x2="273" y1="128.1094" y2="128.1094"/><text fill="#000000" font-family="sans-serif" font-size="11" lengthAdjust="spacingAndGlyphs" textLength="0" x="30" y="159.1245"/><ellipse cx="17" cy="168.7188" fill="#84BE84" rx="3" ry="3" style="stroke: #038048; stroke-width: 1.0;"/><text fill="#000000" font-family="sans-serif" font-size="11" lengthAdjust="spacingAndGlyphs" textLength="242" x="26" y="171.9292">operator=(other : BaseClass) : BaseClass</text><ellipse cx="17" cy="181.5234" fill="#84BE84" rx="3" ry="3" style="stroke: #038048; stroke-width: 1.0;"/><text fill="#000000" font-family="sans-serif" font-size="11" lengthAdjust="spacingAndGlyphs" textLength="214" x="26" y="184.7339">operator==(other : BaseClass) : bool</text><ellipse cx="17" cy="194.3281" fill="#84BE84" rx="3" ry="3" style="stroke: #038048; stroke-width: 1.0;"/><text fill="#000000" font-family="sans-serif" font-size="11" lengthAdjust="spacingAndGlyphs" textLength="205" x="26" y="197.5386">operator&lt;(other : BaseClass) : bool</text><text fill="#000000" font-family="sans-serif" font-size="11" lengthAdjust="spacingAndGlyphs" textLength="0" x="30" y="210.3433"/><line style="stroke: #A80036; stroke-width: 1.0; stroke-dasharray: 1.0,2.0;" x1="7" x2="112" y1="142.5117" y2="142.5117"/><text fill="#000000" font-family="sans-serif" font-size="11" lengthAdjust="spacingAndGlyphs" textLength="56" x="112" y="145.8198">operators</text><line style="stroke: #A80036; stroke-width: 1.0; stroke-dasharray: 1.0,2.0;" x1="168" x2="273" y1="142.5117" y2="142.5117"/><text fill="#000000" font-family="sans-serif" font-size="11" lengthAdjust="spacingAndGlyphs" textLength="0" x="30" y="239.9526"/><ellipse cx="17" cy="249.5469" fill="#84BE84" rx="3" ry="3" style="stroke: #038048; stroke-width: 1.0;"/><text fill="#000000" font-family="sans-serif" font-size="11" lengthAdjust="spacingAndGlyphs" textLength="130" x="26" y="252.7573">getName() : std::string</text><ellipse cx="17" cy="262.3516" fill="#84BE84" rx="3" ry="3" style="stroke: #038048; stroke-width: 1.0;"/><text fill="#000000" font-family="sans-serif" font-size="11" lengthAdjust="spacingAndGlyphs" textLength="197" x="26" y="265.562">setName(name : std::string) : void</text><ellipse cx="17" cy="275.1563" fill="#84BE84" rx="3" ry="3" style="stroke: #038048; stroke-width: 1.0;"/><text fill="#000000" font-family="sans-serif" font-size="11" lengthAdjust="spacingAndGlyphs" textLength="128" x="26" y="278.3667">getNumber() : uint16_t</text><ellipse cx="17" cy="287.9609" fill="#84BE84" rx="3" ry="3" style="stroke: #038048; stroke-width: 1.0;"/><text fill="#000000" font-family="sans-serif" font-size="11" lengthAdjust="spacingAndGlyphs" textLength="207" x="26" y="291.1714">setNumber(number : uint16_t) : void</text><line style="stroke: #A80036; stroke-width: 1.0; stroke-dasharray: 1.0,2.0;" x1="7" x2="97" y1="223.3398" y2="223.3398"/><text fill="#000000" font-family="sans-serif" font-size="11" lengthAdjust="spacingAndGlyphs" textLength="86" x="97" y="226.6479">getters/setters</text><line style="stroke: #A80036; stroke-width: 1.0; stroke-dasharray: 1.0,2.0;" x1="183" x2="273" y1="223.3398" y2="223.3398"/><!--MD5=[9734707d94b55ca7b71982c088a40502]
class class1--><rect fill="#EEEEEE" filter="url(#fp0g79q86nw6v)" height="150.4375" id="class1" style="stroke: #A80036; stroke-width: 1.5;" width="202" x="39" y="412"/><rect fill="#EEEEEE" height="32" style="stroke: #A80036; stroke-width: 1.5;" width="202" x="39" y="412"/><ellipse cx="111.25" cy="428" fill="#ADD1B2" rx="11" ry="11" style="stroke: #A80036; stroke-width: 1.0;"/><path d="M114.2188,433.6406 Q113.6406,433.9375 113,434.0781 Q112.3594,434.2344 111.6563,434.2344 Q109.1563,434.2344 107.8281,432.5938 Q106.5156,430.9375 106.5156,427.8125 Q106.5156,424.6875 107.8281,423.0313 Q109.1563,421.375 111.6563,421.375 Q112.3594,421.375 113,421.5313 Q113.6563,421.6875 114.2188,421.9844 L114.2188,424.7031 Q113.5938,424.125 113,423.8594 Q112.4063,423.5781 111.7813,423.5781 Q110.4375,423.5781 109.75,424.6563 Q109.0625,425.7188 109.0625,427.8125 Q109.0625,429.9063 109.75,430.9844 Q110.4375,432.0469 111.7813,432.0469 Q112.4063,432.0469 113,431.7813 Q113.5938,431.5 114.2188,430.9219 L114.2188,433.6406 Z "/><text fill="#000000" font-family="sans-serif" font-size="12" lengthAdjust="spacingAndGlyphs" textLength="49" x="131.75" y="432.1543">Visibility</text><line style="stroke: #A80036; stroke-width: 1.5;" x1="40" x2="240" y1="444" y2="444"/><rect fill="none" height="6" style="stroke: #C82930; stroke-width: 1.0;" width="6" x="47" y="452"/><text fill="#000000" font-family="sans-serif" font-size="11" lengthAdjust="spacingAndGlyphs" textLength="95" x="59" y="458.2104">private_field : int</text><ellipse cx="50" cy="467.8047" fill="none" rx="3" ry="3" style="stroke: #038048; stroke-width: 1.0;"/><text fill="#000000" font-family="sans-serif" font-size="11" lengthAdjust="spacingAndGlyphs" textLength="89" x="59" y="471.0151">public_field : int</text><polygon fill="none" points="50,475.6094,54,479.6094,50,483.6094,46,479.6094" style="stroke: #B38D22; stroke-width: 1.0;"/><text fill="#000000" font-family="sans-serif" font-size="11" lengthAdjust="spacingAndGlyphs" textLength="110" x="59" y="483.8198">protected_field : int</text><polygon fill="none" points="50,489.4141,46,495.4141,54,495.4141" style="stroke: #1963A0; stroke-width: 1.0;"/><text fill="#000000" font-family="sans-serif" font-size="11" lengthAdjust="spacingAndGlyphs" textLength="148" x="59" y="496.6245">package_private_field : int</text><line style="stroke: #A80036; stroke-width: 1.5;" x1="40" x2="240" y1="503.2188" y2="503.2188"/><rect fill="#F24D5C" height="6" style="stroke: #C82930; stroke-width: 1.0;" width="6" x="47" y="511.2188"/><text fill="#000000" font-family="sans-serif" font-size="11" lengthAdjust="spacingAndGlyphs" textLength="123" x="59" y="517.4292">private_method : void</text><ellipse cx="50" cy="527.0234" fill="#84BE84" rx="3" ry="3" style="stroke: #038048; stroke-width: 1.0;"/><text fill="#000000" font-family="sans-serif" font-size="11" lengthAdjust="spacingAndGlyphs" textLength="117" x="59" y="530.2339">public_method : void</text><polygon fill="#FFFF44" points="50,534.8281,54,538.8281,50,542.8281,46,538.8281" style="stroke: #B38D22; stroke-width: 1.0;"/><text fill="#000000" font-family="sans-serif" font-size="11" lengthAdjust="spacingAndGlyphs" textLength="138" x="59" y="543.0386">protected_method : void</text><polygon fill="#4177AF" points="50,548.6328,46,554.6328,54,554.6328" style="stroke: #1963A0; stroke-width: 1.0;"/><text fill="#000000" font-family="sans-serif" font-size="11" lengthAdjust="spacingAndGlyphs" textLength="176" x="59" y="555.8433">package_private_method : void</text><path d="M309,8 L309,176 L274.042,180 L309,184 L309,351.7891 A0,0 0 0 0 309,351.7891 L877,351.7891 A0,0 0 0 0 877,351.7891 L877,18 L867,8 L309,8 A0,0 0 0 0 309,8 " fill="#FCA985" filter="url(#fp0g79q86nw6v)" style="stroke: #A80036; stroke-width: 1.0;"/><path d="M867,8 L867,18 L877,18 L867,8 " fill="#FCA985" style="stroke: #A80036; stroke-width: 1.0;"/><text fill="#000000" font-family="sans-serif" font-size="13" font-weight="bold" lengthAdjust="spacingAndGlyphs" textLength="37" x="315" y="25.0669">class</text><line style="stroke: #A80036; stroke-width: 1.0;" x1="310" x2="876" y1="28.1328" y2="28.1328"/><text fill="#000000" font-family="sans-serif" font-size="13" lengthAdjust="spacingAndGlyphs" textLength="376" x="315" y="44.1997">In dit voorbeeld is een class te zien en hoe deze uitgewerkt</text><text fill="#000000" font-family="sans-serif" font-size="13" lengthAdjust="spacingAndGlyphs" textLength="420" x="315" y="59.3325">moet worden. Een class bestaat uit drie verschillende onderdelen:</text><text fill="#000000" font-family="sans-serif" font-size="13" lengthAdjust="spacingAndGlyphs" textLength="0" x="319" y="74.4653"/><text fill="#000000" font-family="sans-serif" font-size="13" font-weight="bold" lengthAdjust="spacingAndGlyphs" textLength="14" x="315" y="89.5981">1.</text><text fill="#000000" font-family="sans-serif" font-size="13" lengthAdjust="spacingAndGlyphs" textLength="199" x="333" y="89.5981">Naam van de class, in dit geval</text><text fill="#000000" font-family="sans-serif" font-size="13" font-weight="bold" lengthAdjust="spacingAndGlyphs" textLength="89" x="536" y="89.5981">"BaseClass"</text><text fill="#000000" font-family="sans-serif" font-size="13" lengthAdjust="spacingAndGlyphs" textLength="0" x="319" y="104.731"/><text fill="#000000" font-family="sans-serif" font-size="13" font-weight="bold" lengthAdjust="spacingAndGlyphs" textLength="14" x="315" y="119.8638">2.</text><text fill="#000000" font-family="sans-serif" font-size="13" lengthAdjust="spacingAndGlyphs" textLength="375" x="333" y="119.8638">De attributen (fields) van de class, deze zijn vermeld direct</text><text fill="#000000" font-family="sans-serif" font-size="13" lengthAdjust="spacingAndGlyphs" textLength="344" x="315" y="134.9966">onder de naam van de class gescheiden door een lijn.</text><text fill="#000000" font-family="sans-serif" font-size="13" lengthAdjust="spacingAndGlyphs" textLength="221" x="315" y="150.1294">Een attribuut woord genoteerd als:</text><text fill="#000000" font-family="sans-serif" font-size="13" lengthAdjust="spacingAndGlyphs" textLength="0" x="319" y="165.2622"/><text fill="#000000" font-family="sans-serif" font-size="13" font-weight="bold" lengthAdjust="spacingAndGlyphs" textLength="133" x="315" y="180.395">&lt;naam&gt; : &lt;type&gt;</text><text fill="#000000" font-family="sans-serif" font-size="13" lengthAdjust="spacingAndGlyphs" textLength="0" x="319" y="195.5278"/><text fill="#000000" font-family="sans-serif" font-size="13" font-weight="bold" lengthAdjust="spacingAndGlyphs" textLength="14" x="315" y="210.6606">3.</text><text fill="#000000" font-family="sans-serif" font-size="13" lengthAdjust="spacingAndGlyphs" textLength="396" x="333" y="210.6606">de methode (operations) van de class, deze staan weer direct</text><text fill="#000000" font-family="sans-serif" font-size="13" lengthAdjust="spacingAndGlyphs" textLength="348" x="315" y="225.7935">onder de atributen. een methode wordt genoteerd als:</text><text fill="#000000" font-family="sans-serif" font-size="13" lengthAdjust="spacingAndGlyphs" textLength="0" x="319" y="240.9263"/><text fill="#000000" font-family="sans-serif" font-size="13" font-weight="bold" lengthAdjust="spacingAndGlyphs" textLength="547" x="315" y="256.0591">&lt;naam methode&gt;(&lt;parameter_naam&gt; : &lt;parameter_type&gt;) : return type</text><text fill="#000000" font-family="sans-serif" font-size="13" lengthAdjust="spacingAndGlyphs" textLength="0" x="319" y="271.1919"/><line style="stroke: #A80036; stroke-width: 1.0; stroke-dasharray: 1.0,2.0;" x1="310" x2="876" y1="278.2578" y2="278.2578"/><text fill="#000000" font-family="sans-serif" font-size="13" lengthAdjust="spacingAndGlyphs" textLength="394" x="315" y="294.3247">verder heeft elk onderdeel van de class behalve de naam een</text><text fill="#000000" font-family="sans-serif" font-size="13" lengthAdjust="spacingAndGlyphs" textLength="440" x="315" y="309.4575">visablity, het icoontje voor de notatie, deze geeft aan wat de visablity</text><text fill="#000000" font-family="sans-serif" font-size="13" lengthAdjust="spacingAndGlyphs" textLength="403" x="315" y="324.5903">van de class is, de verschillende opties zijn onder de BaseClass</text><text fill="#000000" font-family="sans-serif" font-size="13" lengthAdjust="spacingAndGlyphs" textLength="70" x="315" y="339.7231">uitgewerkt.</text><path d="M276.5,421 L276.5,483 L241.0234,487 L276.5,491 L276.5,552.9297 A0,0 0 0 0 276.5,552.9297 L775.5,552.9297 A0,0 0 0 0 775.5,552.9297 L775.5,431 L765.5,421 L276.5,421 A0,0 0 0 0 276.5,421 " fill="#FCA985" filter="url(#fp0g79q86nw6v)" style="stroke: #A80036; stroke-width: 1.0;"/><path d="M765.5,421 L765.5,431 L775.5,431 L765.5,421 " fill="#FCA985" style="stroke: #A80036; stroke-width: 1.0;"/><text fill="#000000" font-family="sans-serif" font-size="13" font-weight="bold" lengthAdjust="spacingAndGlyphs" textLength="61" x="282.5" y="438.0669">visablity</text><line style="stroke: #A80036; stroke-width: 1.0;" x1="277.5" x2="774.5" y1="441.1328" y2="441.1328"/><text fill="#000000" font-family="sans-serif" font-size="13" lengthAdjust="spacingAndGlyphs" textLength="457" x="282.5" y="457.1997">in de class visability staan de verschillende opties voor de zichtbaarheid</text><text fill="#000000" font-family="sans-serif" font-size="13" lengthAdjust="spacingAndGlyphs" textLength="478" x="282.5" y="472.3325">van class onderdelen weergegeven. De werking tussen method en field zijn</text><text fill="#000000" font-family="sans-serif" font-size="13" lengthAdjust="spacingAndGlyphs" textLength="446" x="282.5" y="487.4653">hetzelfde maar de notatie in plantuml is anders, vandaar dat ze beide</text><text fill="#000000" font-family="sans-serif" font-size="13" lengthAdjust="spacingAndGlyphs" textLength="110" x="282.5" y="502.5981">genoteerd staan.</text><text fill="#000000" font-family="sans-serif" font-size="13" lengthAdjust="spacingAndGlyphs" textLength="0" x="286.5" y="517.731"/><line style="stroke: #A80036; stroke-width: 1.0; stroke-dasharray: 1.0,2.0;" x1="277.5" x2="774.5" y1="524.7969" y2="524.7969"/><text fill="#000000" font-family="sans-serif" font-size="13" lengthAdjust="spacingAndGlyphs" textLength="236" x="282.5" y="540.8638">Wat niet geheel duidelijk is is wat een</text><text fill="#000000" font-family="sans-serif" font-size="13" font-weight="bold" lengthAdjust="spacingAndGlyphs" textLength="123" x="522.5" y="540.8638">package_private</text><text fill="#000000" font-family="sans-serif" font-size="13" lengthAdjust="spacingAndGlyphs" textLength="47" x="649.5" y="540.8638">inhoud.</text><!--MD5=[1ef51b74d67cece70522a7d9379dba8a]
link class0 to class1--><!--MD5=[56a682f320cf15dc82e5360d1570f588]
@startuml

class class0 as "BaseClass" #EEEEEE
{
    {field} - name : std::string
    {field} - number : uint16_t
    - - -
    .. operators ..

    {method} + operator=(other : BaseClass) : BaseClass
    {method} + operator==(other : BaseClass) : bool
    {method} + operator<(other : BaseClass) : bool

    .. getters/setters ..

    {method} + getName() : std::string
    {method} + setName(name : std::string) : void
    {method} + getNumber() : uint16_t
    {method} + setNumber(number : uint16_t) : void
}

class class1 as "Visibility" #EEEEEE
{
    {field} - private_field : int
    {field} + public_field : int
    {field} # protected_field : int
    {field} ~ package_private_field : int

    {method} - private_method : void
    {method} + public_method : void
    {method} # protected_method : void
    {method} ~ package_private_method : void
}

class0 -[hidden]-> class1

note right of class0 #FCA985
    **class**
    - -
    In dit voorbeeld is een class te zien en hoe deze uitgewerkt
    moet worden. Een class bestaat uit drie verschillende onderdelen:

    **1.** Naam van de class, in dit geval **"BaseClass"**

    **2.** De attributen (fields) van de class, deze zijn vermeld direct
    onder de naam van de class gescheiden door een lijn.
    Een attribuut woord genoteerd als:

    **<naam> : <type> **

    **3.** de methode (operations) van de class, deze staan weer direct
    onder de atributen. een methode wordt genoteerd als:

    **<naam methode>(<parameter_naam> : <parameter_type>) : return type**

    ..
    verder heeft elk onderdeel van de class behalve de naam een
    visablity, het icoontje voor de notatie, deze geeft aan wat de visablity
    van de class is, de verschillende opties zijn onder de BaseClass
    uitgewerkt.
end note

note right of class1 #FCA985
    **visablity**
    - -
    in de class visability staan de verschillende opties voor de zichtbaarheid
    van class onderdelen weergegeven. De werking tussen method en field zijn
    hetzelfde maar de notatie in plantuml is anders, vandaar dat ze beide
    genoteerd staan.

    ..
    Wat niet geheel duidelijk is is wat een **package_private** inhoud.
end note
@enduml

PlantUML version 1.2020.06(Sun Apr 05 12:38:32 GMT 2020)
(GPL source distribution)
Java Runtime: OpenJDK Runtime Environment
JVM: OpenJDK 64-Bit Server VM
Java Version: 14-ea+33
Operating System: Linux
Default Encoding: UTF-8
Language: en
Country: US
--></g></svg>