<?xml version="1.0" encoding="UTF-8" standalone="no"?><svg xmlns="http://www.w3.org/2000/svg" xmlns:xlink="http://www.w3.org/1999/xlink" contentScriptType="application/ecmascript" contentStyleType="text/css" height="195px" preserveAspectRatio="none" style="width:1255px;height:195px;" version="1.1" viewBox="0 0 1255 195" width="1255px" zoomAndPan="magnify"><defs><filter height="300%" id="fvzaoxriew2nf" width="300%" x="-1" y="-1"><feGaussianBlur result="blurOut" stdDeviation="2.0"/><feColorMatrix in="blurOut" result="blurOut2" type="matrix" values="0 0 0 0 0 0 0 0 0 0 0 0 0 0 0 0 0 0 .4 0"/><feOffset dx="4.0" dy="4.0" in="blurOut2" result="blurOut3"/><feBlend in="SourceGraphic" in2="blurOut3" mode="normal"/></filter></defs><g><!--MD5=[9734707d94b55ca7b71982c088a40502]
class class1--><rect fill="#EEEEEE" filter="url(#fvzaoxriew2nf)" height="137.6328" id="class1" style="stroke: #A80036; stroke-width: 1.5;" width="326" x="187" y="47"/><rect fill="#EEEEEE" height="32" style="stroke: #A80036; stroke-width: 1.5;" width="326" x="187" y="47"/><ellipse cx="290.75" cy="63" fill="#ADD1B2" rx="11" ry="11" style="stroke: #A80036; stroke-width: 1.0;"/><path d="M293.7188,68.6406 Q293.1406,68.9375 292.5,69.0781 Q291.8594,69.2344 291.1563,69.2344 Q288.6563,69.2344 287.3281,67.5938 Q286.0156,65.9375 286.0156,62.8125 Q286.0156,59.6875 287.3281,58.0313 Q288.6563,56.375 291.1563,56.375 Q291.8594,56.375 292.5,56.5313 Q293.1563,56.6875 293.7188,56.9844 L293.7188,59.7031 Q293.0938,59.125 292.5,58.8594 Q291.9063,58.5781 291.2813,58.5781 Q289.9375,58.5781 289.25,59.6563 Q288.5625,60.7188 288.5625,62.8125 Q288.5625,64.9063 289.25,65.9844 Q289.9375,67.0469 291.2813,67.0469 Q291.9063,67.0469 292.5,66.7813 Q293.0938,66.5 293.7188,65.9219 L293.7188,68.6406 Z "/><text fill="#000000" font-family="sans-serif" font-size="12" font-weight="bold" lengthAdjust="spacingAndGlyphs" textLength="110" x="311.25" y="67.1543">basic_publisher</text><line style="stroke: #A80036; stroke-width: 1.5;" x1="188" x2="512" y1="79" y2="79"/><rect fill="none" height="6" style="stroke: #C82930; stroke-width: 1.0;" width="6" x="195" y="87"/><text fill="#000000" font-family="sans-serif" font-size="11" lengthAdjust="spacingAndGlyphs" textLength="232" x="207" y="93.2104">typedef std_msgs::msg::String Message</text><text fill="#000000" font-family="sans-serif" font-size="11" lengthAdjust="spacingAndGlyphs" textLength="0" x="211" y="106.0151"/><rect fill="none" height="6" style="stroke: #C82930; stroke-width: 1.0;" width="6" x="195" y="112.6094"/><text fill="#000000" font-family="sans-serif" font-size="11" lengthAdjust="spacingAndGlyphs" textLength="217" x="207" y="118.8198">timer_ : rclcpp::TimerBase::SharedPtr</text><rect fill="none" height="6" style="stroke: #C82930; stroke-width: 1.0;" width="6" x="195" y="125.4141"/><text fill="#000000" font-family="sans-serif" font-size="11" lengthAdjust="spacingAndGlyphs" textLength="300" x="207" y="131.6245">publisher_ : rclcpp::Publisher&lt;Message&gt;::SharedPtr</text><rect fill="none" height="6" style="stroke: #C82930; stroke-width: 1.0;" width="6" x="195" y="138.2188"/><text fill="#000000" font-family="sans-serif" font-size="11" lengthAdjust="spacingAndGlyphs" textLength="107" x="207" y="144.4292">count_ : std::size_t</text><line style="stroke: #A80036; stroke-width: 1.5;" x1="188" x2="512" y1="151.0234" y2="151.0234"/><ellipse cx="198" cy="162.0234" fill="#84BE84" rx="3" ry="3" style="stroke: #038048; stroke-width: 1.0;"/><text fill="#000000" font-family="sans-serif" font-size="11" lengthAdjust="spacingAndGlyphs" textLength="133" x="207" y="165.2339">Basic_Publisher() : void</text><rect fill="#F24D5C" height="6" style="stroke: #C82930; stroke-width: 1.0;" width="6" x="195" y="171.8281"/><text fill="#000000" font-family="sans-serif" font-size="11" lengthAdjust="spacingAndGlyphs" textLength="124" x="207" y="178.0386">timer_callback() : void</text><!--MD5=[5bd124f2ff5297a7fd349100317f0a5e]
class class2--><rect fill="#EEEEEE" filter="url(#fvzaoxriew2nf)" height="48" id="class2" style="stroke: #A80036; stroke-width: 1.5;" width="126" x="605" y="50"/><rect fill="#EEEEEE" height="32" style="stroke: #A80036; stroke-width: 1.5;" width="126" x="605" y="50"/><ellipse cx="620" cy="66" fill="#ADD1B2" rx="11" ry="11" style="stroke: #A80036; stroke-width: 1.0;"/><path d="M622.9688,71.6406 Q622.3906,71.9375 621.75,72.0781 Q621.1094,72.2344 620.4063,72.2344 Q617.9063,72.2344 616.5781,70.5938 Q615.2656,68.9375 615.2656,65.8125 Q615.2656,62.6875 616.5781,61.0313 Q617.9063,59.375 620.4063,59.375 Q621.1094,59.375 621.75,59.5313 Q622.4063,59.6875 622.9688,59.9844 L622.9688,62.7031 Q622.3438,62.125 621.75,61.8594 Q621.1563,61.5781 620.5313,61.5781 Q619.1875,61.5781 618.5,62.6563 Q617.8125,63.7188 617.8125,65.8125 Q617.8125,67.9063 618.5,68.9844 Q619.1875,70.0469 620.5313,70.0469 Q621.1563,70.0469 621.75,69.7813 Q622.3438,69.5 622.9688,68.9219 L622.9688,71.6406 Z "/><text fill="#000000" font-family="sans-serif" font-size="12" font-weight="bold" lengthAdjust="spacingAndGlyphs" textLength="94" x="634" y="70.1543">rclcpp::rclcpp</text><line style="stroke: #A80036; stroke-width: 1.5;" x1="606" x2="730" y1="82" y2="82"/><line style="stroke: #A80036; stroke-width: 1.5;" x1="606" x2="730" y1="90" y2="90"/><!--MD5=[f04fe4f5b4480e38bcacbb8ce6851745]
class class3--><rect fill="#EEEEEE" filter="url(#fvzaoxriew2nf)" height="48" id="class3" style="stroke: #A80036; stroke-width: 1.5;" width="190" x="573" y="133"/><rect fill="#EEEEEE" height="32" style="stroke: #A80036; stroke-width: 1.5;" width="190" x="573" y="133"/><ellipse cx="588" cy="149" fill="#ADD1B2" rx="11" ry="11" style="stroke: #A80036; stroke-width: 1.0;"/><path d="M590.9688,154.6406 Q590.3906,154.9375 589.75,155.0781 Q589.1094,155.2344 588.4063,155.2344 Q585.9063,155.2344 584.5781,153.5938 Q583.2656,151.9375 583.2656,148.8125 Q583.2656,145.6875 584.5781,144.0313 Q585.9063,142.375 588.4063,142.375 Q589.1094,142.375 589.75,142.5313 Q590.4063,142.6875 590.9688,142.9844 L590.9688,145.7031 Q590.3438,145.125 589.75,144.8594 Q589.1563,144.5781 588.5313,144.5781 Q587.1875,144.5781 586.5,145.6563 Q585.8125,146.7188 585.8125,148.8125 Q585.8125,150.9063 586.5,151.9844 Q587.1875,153.0469 588.5313,153.0469 Q589.1563,153.0469 589.75,152.7813 Q590.3438,152.5 590.9688,151.9219 L590.9688,154.6406 Z "/><text fill="#000000" font-family="sans-serif" font-size="12" font-weight="bold" lengthAdjust="spacingAndGlyphs" textLength="158" x="602" y="153.1543">std_msgs::msg::String</text><line style="stroke: #A80036; stroke-width: 1.5;" x1="574" x2="762" y1="165" y2="165"/><line style="stroke: #A80036; stroke-width: 1.5;" x1="574" x2="762" y1="173" y2="173"/><!--MD5=[0916a3c64b2e60a2322845d9d7b8ae7a]
class class4--><rect fill="#EEEEEE" filter="url(#fvzaoxriew2nf)" height="48" id="class4" style="stroke: #A80036; stroke-width: 1.5;" width="121" x="6" y="92"/><rect fill="#EEEEEE" height="32" style="stroke: #A80036; stroke-width: 1.5;" width="121" x="6" y="92"/><ellipse cx="21" cy="108" fill="#ADD1B2" rx="11" ry="11" style="stroke: #A80036; stroke-width: 1.0;"/><path d="M23.9688,113.6406 Q23.3906,113.9375 22.75,114.0781 Q22.1094,114.2344 21.4063,114.2344 Q18.9063,114.2344 17.5781,112.5938 Q16.2656,110.9375 16.2656,107.8125 Q16.2656,104.6875 17.5781,103.0313 Q18.9063,101.375 21.4063,101.375 Q22.1094,101.375 22.75,101.5313 Q23.4063,101.6875 23.9688,101.9844 L23.9688,104.7031 Q23.3438,104.125 22.75,103.8594 Q22.1563,103.5781 21.5313,103.5781 Q20.1875,103.5781 19.5,104.6563 Q18.8125,105.7188 18.8125,107.8125 Q18.8125,109.9063 19.5,110.9844 Q20.1875,112.0469 21.5313,112.0469 Q22.1563,112.0469 22.75,111.7813 Q23.3438,111.5 23.9688,110.9219 L23.9688,113.6406 Z "/><text fill="#000000" font-family="sans-serif" font-size="12" font-weight="bold" lengthAdjust="spacingAndGlyphs" textLength="89" x="35" y="112.1543">rclcpp::Node</text><line style="stroke: #A80036; stroke-width: 1.5;" x1="7" x2="126" y1="124" y2="124"/><line style="stroke: #A80036; stroke-width: 1.5;" x1="7" x2="126" y1="132" y2="132"/><path d="M823,8 L823,70 L731.1615,74 L823,78 L823,139.9297 A0,0 0 0 0 823,139.9297 L1243,139.9297 A0,0 0 0 0 1243,139.9297 L1243,18 L1233,8 L823,8 A0,0 0 0 0 823,8 " fill="#FCA985" filter="url(#fvzaoxriew2nf)" style="stroke: #A80036; stroke-width: 1.0;"/><path d="M1233,8 L1233,18 L1243,18 L1233,8 " fill="#FCA985" style="stroke: #A80036; stroke-width: 1.0;"/><text fill="#000000" font-family="sans-serif" font-size="13" font-weight="bold" lengthAdjust="spacingAndGlyphs" textLength="103" x="829" y="25.0669">relation: USES</text><line style="stroke: #A80036; stroke-width: 1.0;" x1="824" x2="1242" y1="28.1328" y2="28.1328"/><text fill="#000000" font-family="sans-serif" font-size="13" lengthAdjust="spacingAndGlyphs" textLength="249" x="829" y="44.1997">In dit voorbeeld is te zien dat de class "</text><text fill="#000000" font-family="sans-serif" font-size="13" font-weight="bold" lengthAdjust="spacingAndGlyphs" textLength="115" x="1078" y="44.1997">basic_publisher</text><text fill="#000000" font-family="sans-serif" font-size="13" lengthAdjust="spacingAndGlyphs" textLength="5" x="1193" y="44.1997">"</text><text fill="#000000" font-family="sans-serif" font-size="13" lengthAdjust="spacingAndGlyphs" textLength="187" x="829" y="59.3325">gebruik maakt van beide de "</text><text fill="#000000" font-family="sans-serif" font-size="13" font-weight="bold" lengthAdjust="spacingAndGlyphs" textLength="167" x="1016" y="59.3325">std_msgs::msg::String</text><text fill="#000000" font-family="sans-serif" font-size="13" lengthAdjust="spacingAndGlyphs" textLength="20" x="1183" y="59.3325">" &amp;</text><text fill="#000000" font-family="sans-serif" font-size="13" lengthAdjust="spacingAndGlyphs" textLength="5" x="829" y="74.4653">"</text><text fill="#000000" font-family="sans-serif" font-size="13" font-weight="bold" lengthAdjust="spacingAndGlyphs" textLength="102" x="834" y="74.4653">rclcpp::rclcpp</text><text fill="#000000" font-family="sans-serif" font-size="13" lengthAdjust="spacingAndGlyphs" textLength="60" x="936" y="74.4653">" classes.</text><text fill="#000000" font-family="sans-serif" font-size="13" lengthAdjust="spacingAndGlyphs" textLength="0" x="833" y="89.5981"/><line style="stroke: #A80036; stroke-width: 1.0; stroke-dasharray: 1.0,2.0;" x1="824" x2="1242" y1="96.6641" y2="96.6641"/><text fill="#000000" font-family="sans-serif" font-size="13" lengthAdjust="spacingAndGlyphs" textLength="399" x="829" y="112.731">Wat dit betekend in de code is dat de headers van deze klasse</text><text fill="#000000" font-family="sans-serif" font-size="13" lengthAdjust="spacingAndGlyphs" textLength="223" x="829" y="127.8638">ge-'include' worden in de class zelf.</text><!--MD5=[48de2a2d2726339dd27068ad9922f662]
link class2 to class3--><!--MD5=[e9ddc44ead1881c7f36e1e80108b1d1d]
link class1 to class2--><path d="M513.192,94.4463 C543.7866,90.4055 574.1742,86.3921 599.8194,83.005 " fill="none" id="class1-&gt;class2" style="stroke: #A80036; stroke-width: 1.0; stroke-dasharray: 7.0,7.0;"/><polygon fill="#A80036" points="604.8839,82.3361,595.4376,79.549,599.9269,82.9908,596.4852,87.4801,604.8839,82.3361" style="stroke: #A80036; stroke-width: 1.0;"/><!--MD5=[ece00f9d7d30ae0138cf49456770af68]
link class1 to class3--><path d="M513.192,137.0405 C531.7108,139.4281 550.1538,141.806 567.5151,144.0444 " fill="none" id="class1-&gt;class3" style="stroke: #A80036; stroke-width: 1.0; stroke-dasharray: 7.0,7.0;"/><polygon fill="#A80036" points="572.8672,144.7345,564.4527,139.6164,567.9083,144.0951,563.4296,147.5507,572.8672,144.7345" style="stroke: #A80036; stroke-width: 1.0;"/><!--MD5=[3774fb76e06a03c4db0769cb0146ca4b]
reverse link class4 to class1--><path d="M147.5258,116 C160.0225,116 173.2956,116 186.8355,116 " fill="none" id="class4&lt;-class1" style="stroke: #A80036; stroke-width: 1.0;"/><polygon fill="none" points="147.3179,122.9999,127.3179,116,147.3178,108.9999,147.3179,122.9999" style="stroke: #A80036; stroke-width: 1.0;"/><!--MD5=[5b1a60b88b7652adb8fc7d122dc2302f]
@startuml

left to right direction

class class1 as "**basic_publisher**" #EEEEEE
{
    - typedef std_msgs::msg::String Message

    {field} - timer_ : rclcpp::TimerBase::SharedPtr
    {field} - publisher_ : rclcpp::Publisher<Message>::SharedPtr
    {field} - count_ : std::size_t

    {method} + Basic_Publisher() : void
    {method} - timer_callback() : void
}

class class2 as "**rclcpp::rclcpp**" #EEEEEE
class class3 as "**std_msgs::msg::String**" #EEEEEE
class class4 as "**rclcpp::Node**" #EEEEEE

class2 -[hidden]right-> class3
class1 ..> class2
class1 ..> class3
class1 -up-|> class4

note right of class2 #FCA985
    **relation: USES**
    - -
    In dit voorbeeld is te zien dat de class "**basic_publisher**"
    gebruik maakt van beide de "**std_msgs::msg::String**" &
    "**rclcpp::rclcpp**" classes.

    ..
    Wat dit betekend in de code is dat de headers van deze klasse
    ge-'include' worden in de class zelf.
end note

@enduml

PlantUML version 1.2020.06(Sun Apr 05 12:38:32 GMT 2020)
(GPL source distribution)
Java Runtime: OpenJDK Runtime Environment
JVM: OpenJDK 64-Bit Server VM
Java Version: 14-ea+33
Operating System: Linux
Default Encoding: UTF-8
Language: en
Country: US
--></g></svg>