<?xml version="1.0" encoding="UTF-8" standalone="no"?><svg xmlns="http://www.w3.org/2000/svg" xmlns:xlink="http://www.w3.org/1999/xlink" contentScriptType="application/ecmascript" contentStyleType="text/css" height="116px" preserveAspectRatio="none" style="width:1082px;height:116px;" version="1.1" viewBox="0 0 1082 116" width="1082px" zoomAndPan="magnify"><defs><filter height="300%" id="ftt56xx7bqzme" width="300%" x="-1" y="-1"><feGaussianBlur result="blurOut" stdDeviation="2.0"/><feColorMatrix in="blurOut" result="blurOut2" type="matrix" values="0 0 0 0 0 0 0 0 0 0 0 0 0 0 0 0 0 0 .4 0"/><feOffset dx="4.0" dy="4.0" in="blurOut2" result="blurOut3"/><feBlend in="SourceGraphic" in2="blurOut3" mode="normal"/></filter></defs><g><!--MD5=[9734707d94b55ca7b71982c088a40502]
class class1--><rect fill="#EEEEEE" filter="url(#ftt56xx7bqzme)" height="73.6094" id="class1" style="stroke: #A80036; stroke-width: 1.5;" width="131" x="6" y="28"/><rect fill="#EEEEEE" height="32" style="stroke: #A80036; stroke-width: 1.5;" width="131" x="6" y="28"/><ellipse cx="21" cy="44" fill="#ADD1B2" rx="11" ry="11" style="stroke: #A80036; stroke-width: 1.0;"/><path d="M23.9688,49.6406 Q23.3906,49.9375 22.75,50.0781 Q22.1094,50.2344 21.4063,50.2344 Q18.9063,50.2344 17.5781,48.5938 Q16.2656,46.9375 16.2656,43.8125 Q16.2656,40.6875 17.5781,39.0313 Q18.9063,37.375 21.4063,37.375 Q22.1094,37.375 22.75,37.5313 Q23.4063,37.6875 23.9688,37.9844 L23.9688,40.7031 Q23.3438,40.125 22.75,39.8594 Q22.1563,39.5781 21.5313,39.5781 Q20.1875,39.5781 19.5,40.6563 Q18.8125,41.7188 18.8125,43.8125 Q18.8125,45.9063 19.5,46.9844 Q20.1875,48.0469 21.5313,48.0469 Q22.1563,48.0469 22.75,47.7813 Q23.3438,47.5 23.9688,46.9219 L23.9688,49.6406 Z "/><text fill="#000000" font-family="sans-serif" font-size="12" font-weight="bold" lengthAdjust="spacingAndGlyphs" textLength="99" x="35" y="48.1543">MotionSensor</text><line style="stroke: #A80036; stroke-width: 1.5;" x1="7" x2="136" y1="60" y2="60"/><rect fill="none" height="6" style="stroke: #C82930; stroke-width: 1.0;" width="6" x="14" y="68"/><text fill="#000000" font-family="sans-serif" font-size="11" lengthAdjust="spacingAndGlyphs" textLength="94" x="26" y="74.2104">sensitivity : float</text><line style="stroke: #A80036; stroke-width: 1.5;" x1="7" x2="136" y1="80.8047" y2="80.8047"/><ellipse cx="17" cy="91.8047" fill="#84BE84" rx="3" ry="3" style="stroke: #038048; stroke-width: 1.0;"/><text fill="#000000" font-family="sans-serif" font-size="11" lengthAdjust="spacingAndGlyphs" textLength="62" x="26" y="95.0151">start() void</text><!--MD5=[5bd124f2ff5297a7fd349100317f0a5e]
class class2--><rect fill="#EEEEEE" filter="url(#ftt56xx7bqzme)" height="73.6094" id="class2" style="stroke: #A80036; stroke-width: 1.5;" width="235" x="438" y="28"/><rect fill="#EEEEEE" height="32" style="stroke: #A80036; stroke-width: 1.5;" width="235" x="438" y="28"/><ellipse cx="465.6" cy="44" fill="#ADD1B2" rx="11" ry="11" style="stroke: #A80036; stroke-width: 1.0;"/><path d="M468.5688,49.6406 Q467.9906,49.9375 467.35,50.0781 Q466.7094,50.2344 466.0063,50.2344 Q463.5063,50.2344 462.1781,48.5938 Q460.8656,46.9375 460.8656,43.8125 Q460.8656,40.6875 462.1781,39.0313 Q463.5063,37.375 466.0063,37.375 Q466.7094,37.375 467.35,37.5313 Q468.0063,37.6875 468.5688,37.9844 L468.5688,40.7031 Q467.9438,40.125 467.35,39.8594 Q466.7563,39.5781 466.1313,39.5781 Q464.7875,39.5781 464.1,40.6563 Q463.4125,41.7188 463.4125,43.8125 Q463.4125,45.9063 464.1,46.9844 Q464.7875,48.0469 466.1313,48.0469 Q466.7563,48.0469 467.35,47.7813 Q467.9438,47.5 468.5688,46.9219 L468.5688,49.6406 Z "/><text fill="#000000" font-family="sans-serif" font-size="12" font-weight="bold" lengthAdjust="spacingAndGlyphs" textLength="175" x="482.4" y="48.1543">AdjustableMotionSensor</text><line style="stroke: #A80036; stroke-width: 1.5;" x1="439" x2="672" y1="60" y2="60"/><rect fill="none" height="6" style="stroke: #C82930; stroke-width: 1.0;" width="6" x="446" y="68"/><text fill="#000000" font-family="sans-serif" font-size="11" lengthAdjust="spacingAndGlyphs" textLength="70" x="458" y="74.2104">offset : float</text><line style="stroke: #A80036; stroke-width: 1.5;" x1="439" x2="672" y1="80.8047" y2="80.8047"/><ellipse cx="449" cy="91.8047" fill="#84BE84" rx="3" ry="3" style="stroke: #038048; stroke-width: 1.0;"/><text fill="#000000" font-family="sans-serif" font-size="11" lengthAdjust="spacingAndGlyphs" textLength="209" x="458" y="95.0151">calibrate(measurement : float) : void</text><path d="M708.5,25.5 L708.5,61 L673.248,65 L708.5,69 L708.5,104.0313 A0,0 0 0 0 708.5,104.0313 L1070.5,104.0313 A0,0 0 0 0 1070.5,104.0313 L1070.5,35.5 L1060.5,25.5 L708.5,25.5 A0,0 0 0 0 708.5,25.5 " fill="#FCA985" filter="url(#ftt56xx7bqzme)" style="stroke: #A80036; stroke-width: 1.0;"/><path d="M1060.5,25.5 L1060.5,35.5 L1070.5,35.5 L1060.5,25.5 " fill="#FCA985" style="stroke: #A80036; stroke-width: 1.0;"/><text fill="#000000" font-family="sans-serif" font-size="13" font-weight="bold" lengthAdjust="spacingAndGlyphs" textLength="78" x="714.5" y="42.5669">overerving</text><line style="stroke: #A80036; stroke-width: 1.0;" x1="709.5" x2="1069.5" y1="45.6328" y2="45.6328"/><text fill="#000000" font-family="sans-serif" font-size="13" lengthAdjust="spacingAndGlyphs" textLength="320" x="714.5" y="61.6997">In dit voorbeeld is een generalisatie te zien tussen</text><text fill="#000000" font-family="sans-serif" font-size="13" lengthAdjust="spacingAndGlyphs" textLength="291" x="714.5" y="76.8325">"MotionSensor" en "AdjustableMotionSensor",</text><text fill="#000000" font-family="sans-serif" font-size="13" lengthAdjust="spacingAndGlyphs" textLength="341" x="714.5" y="91.9653">een generalisatie geeft overerving aan tussen klasse.</text><!--MD5=[5b4d46134aa3431e299a019ad405e12d]
reverse link class1 to class2--><path d="M157.4686,65 C235.4307,65 351.0576,65 437.6262,65 " fill="none" id="class1&lt;-class2" style="stroke: #A80036; stroke-width: 1.0;"/><polygon fill="none" points="157.0261,71.9999,137.0261,65,157.026,57.9999,157.0261,71.9999" style="stroke: #A80036; stroke-width: 1.0;"/><path d="M159.5,5 L159.5,53 L411.5,53 L411.5,15 L401.5,5 L159.5,5 " fill="#FCA985" filter="url(#ftt56xx7bqzme)" style="stroke: #A80036; stroke-width: 1.0;"/><path d="M401.5,5 L401.5,15 L411.5,15 L401.5,5 " fill="#FCA985" style="stroke: #A80036; stroke-width: 1.0;"/><text fill="#000000" font-family="sans-serif" font-size="13" font-weight="bold" lengthAdjust="spacingAndGlyphs" textLength="231" x="165.5" y="22.0669">volle pijl voor een generalisatie</text><line style="stroke: #A80036; stroke-width: 1.0;" x1="160.5" x2="410.5" y1="25.1328" y2="25.1328"/><text fill="#000000" font-family="sans-serif" font-size="13" lengthAdjust="spacingAndGlyphs" textLength="199" x="165.5" y="41.1997">[base class] &lt;-- [derived class]</text><!--MD5=[e1defd16bc2da1feea496e48884aeab0]
@startuml

class class1 as "**MotionSensor**" #EEEEEE {
    {field} - sensitivity : float
    {method} + start() void
}

class class2 as "**AdjustableMotionSensor**" #EEEEEE {
    {field} - offset : float
    {method} + calibrate(measurement : float) : void
}

class2 -left-|> class1
note on link #FCA985
    **volle pijl voor een generalisatie**
    - -
    [base class] <- - [derived class]
end note

note right of class2 #FCA985
    **overerving**
    - -
    In dit voorbeeld is een generalisatie te zien tussen
    "MotionSensor" en "AdjustableMotionSensor",
    een generalisatie geeft overerving aan tussen klasse.
end note

@enduml

PlantUML version 1.2020.06(Sun Apr 05 12:38:32 GMT 2020)
(GPL source distribution)
Java Runtime: OpenJDK Runtime Environment
JVM: OpenJDK 64-Bit Server VM
Java Version: 14-ea+33
Operating System: Linux
Default Encoding: UTF-8
Language: en
Country: US
--></g></svg>