<?xml version="1.0" encoding="UTF-8" standalone="no"?><svg xmlns="http://www.w3.org/2000/svg" xmlns:xlink="http://www.w3.org/1999/xlink" contentScriptType="application/ecmascript" contentStyleType="text/css" height="189px" preserveAspectRatio="none" style="width:742px;height:189px;" version="1.1" viewBox="0 0 742 189" width="742px" zoomAndPan="magnify"><defs><filter height="300%" id="fgq73uqk0b9ld" width="300%" x="-1" y="-1"><feGaussianBlur result="blurOut" stdDeviation="2.0"/><feColorMatrix in="blurOut" result="blurOut2" type="matrix" values="0 0 0 0 0 0 0 0 0 0 0 0 0 0 0 0 0 0 .4 0"/><feOffset dx="4.0" dy="4.0" in="blurOut2" result="blurOut3"/><feBlend in="SourceGraphic" in2="blurOut3" mode="normal"/></filter></defs><g><!--MD5=[9734707d94b55ca7b71982c088a40502]
class class1--><rect fill="#EEEEEE" filter="url(#fgq73uqk0b9ld)" height="48" id="class1" style="stroke: #A80036; stroke-width: 1.5;" width="114" x="6" y="68.5"/><rect fill="#EEEEEE" height="32" style="stroke: #A80036; stroke-width: 1.5;" width="114" x="6" y="68.5"/><ellipse cx="21" cy="84.5" fill="#ADD1B2" rx="11" ry="11" style="stroke: #A80036; stroke-width: 1.0;"/><path d="M23.9688,90.1406 Q23.3906,90.4375 22.75,90.5781 Q22.1094,90.7344 21.4063,90.7344 Q18.9063,90.7344 17.5781,89.0938 Q16.2656,87.4375 16.2656,84.3125 Q16.2656,81.1875 17.5781,79.5313 Q18.9063,77.875 21.4063,77.875 Q22.1094,77.875 22.75,78.0313 Q23.4063,78.1875 23.9688,78.4844 L23.9688,81.2031 Q23.3438,80.625 22.75,80.3594 Q22.1563,80.0781 21.5313,80.0781 Q20.1875,80.0781 19.5,81.1563 Q18.8125,82.2188 18.8125,84.3125 Q18.8125,86.4063 19.5,87.4844 Q20.1875,88.5469 21.5313,88.5469 Q22.1563,88.5469 22.75,88.2813 Q23.3438,88 23.9688,87.4219 L23.9688,90.1406 Z "/><text fill="#000000" font-family="sans-serif" font-size="12" lengthAdjust="spacingAndGlyphs" textLength="82" x="35" y="88.6543">CourseAdmin</text><line style="stroke: #A80036; stroke-width: 1.5;" x1="7" x2="119" y1="100.5" y2="100.5"/><line style="stroke: #A80036; stroke-width: 1.5;" x1="7" x2="119" y1="108.5" y2="108.5"/><!--MD5=[5bd124f2ff5297a7fd349100317f0a5e]
class class2--><rect fill="#EEEEEE" filter="url(#fgq73uqk0b9ld)" height="48" id="class2" style="stroke: #A80036; stroke-width: 1.5;" width="76" x="232" y="68.5"/><rect fill="#EEEEEE" height="32" style="stroke: #A80036; stroke-width: 1.5;" width="76" x="232" y="68.5"/><ellipse cx="247" cy="84.5" fill="#ADD1B2" rx="11" ry="11" style="stroke: #A80036; stroke-width: 1.0;"/><path d="M249.9688,90.1406 Q249.3906,90.4375 248.75,90.5781 Q248.1094,90.7344 247.4063,90.7344 Q244.9063,90.7344 243.5781,89.0938 Q242.2656,87.4375 242.2656,84.3125 Q242.2656,81.1875 243.5781,79.5313 Q244.9063,77.875 247.4063,77.875 Q248.1094,77.875 248.75,78.0313 Q249.4063,78.1875 249.9688,78.4844 L249.9688,81.2031 Q249.3438,80.625 248.75,80.3594 Q248.1563,80.0781 247.5313,80.0781 Q246.1875,80.0781 245.5,81.1563 Q244.8125,82.2188 244.8125,84.3125 Q244.8125,86.4063 245.5,87.4844 Q246.1875,88.5469 247.5313,88.5469 Q248.1563,88.5469 248.75,88.2813 Q249.3438,88 249.9688,87.4219 L249.9688,90.1406 Z "/><text fill="#000000" font-family="sans-serif" font-size="12" lengthAdjust="spacingAndGlyphs" textLength="44" x="261" y="88.6543">Course</text><line style="stroke: #A80036; stroke-width: 1.5;" x1="233" x2="307" y1="100.5" y2="100.5"/><line style="stroke: #A80036; stroke-width: 1.5;" x1="233" x2="307" y1="108.5" y2="108.5"/><path d="M343.5,8 L343.5,88.5 L308.0684,92.5 L343.5,96.5 L343.5,177.3281 A0,0 0 0 0 343.5,177.3281 L730.5,177.3281 A0,0 0 0 0 730.5,177.3281 L730.5,18 L720.5,8 L343.5,8 A0,0 0 0 0 343.5,8 " fill="#FCA985" filter="url(#fgq73uqk0b9ld)" style="stroke: #A80036; stroke-width: 1.0;"/><path d="M720.5,8 L720.5,18 L730.5,18 L720.5,8 " fill="#FCA985" style="stroke: #A80036; stroke-width: 1.0;"/><text fill="#000000" font-family="sans-serif" font-size="13" font-weight="bold" lengthAdjust="spacingAndGlyphs" textLength="64" x="349.5" y="25.0669">relations</text><line style="stroke: #A80036; stroke-width: 1.0;" x1="344.5" x2="729.5" y1="28.1328" y2="28.1328"/><text fill="#000000" font-family="sans-serif" font-size="13" lengthAdjust="spacingAndGlyphs" textLength="298" x="349.5" y="44.1997">In dit voorbeeld is een relatie te zien tussen de</text><text fill="#000000" font-family="sans-serif" font-size="13" lengthAdjust="spacingAndGlyphs" textLength="199" x="349.5" y="59.3325">"CourseAdmin" en de "Course".</text><text fill="#000000" font-family="sans-serif" font-size="13" lengthAdjust="spacingAndGlyphs" textLength="0" x="353.5" y="74.4653"/><text fill="#000000" font-family="sans-serif" font-size="13" lengthAdjust="spacingAndGlyphs" textLength="301" x="349.5" y="89.5981">Het is te zien door de richting van de pijl dat de</text><text fill="#000000" font-family="sans-serif" font-size="13" lengthAdjust="spacingAndGlyphs" textLength="96" x="349.5" y="104.731">"CourseAdmin"</text><text fill="#000000" font-family="sans-serif" font-size="13" font-weight="bold" lengthAdjust="spacingAndGlyphs" textLength="124" x="449.5" y="104.731">een of meerdere</text><text fill="#000000" font-family="sans-serif" font-size="13" lengthAdjust="spacingAndGlyphs" textLength="138" x="577.5" y="104.731">courses van bevatten</text><text fill="#000000" font-family="sans-serif" font-size="13" lengthAdjust="spacingAndGlyphs" textLength="116" x="349.5" y="119.8638">en dat een course</text><text fill="#000000" font-family="sans-serif" font-size="13" font-weight="bold" lengthAdjust="spacingAndGlyphs" textLength="86" x="469.5" y="119.8638">precies een</text><text fill="#000000" font-family="sans-serif" font-size="13" lengthAdjust="spacingAndGlyphs" textLength="140" x="559.5" y="119.8638">"CourseAdmin" bevat.</text><text fill="#000000" font-family="sans-serif" font-size="13" lengthAdjust="spacingAndGlyphs" textLength="0" x="353.5" y="134.9966"/><text fill="#000000" font-family="sans-serif" font-size="13" lengthAdjust="spacingAndGlyphs" textLength="18" x="349.5" y="150.1294">De</text><text fill="#000000" font-family="sans-serif" font-size="13" font-weight="bold" lengthAdjust="spacingAndGlyphs" textLength="47" x="371.5" y="150.1294">relatie</text><text fill="#000000" font-family="sans-serif" font-size="13" lengthAdjust="spacingAndGlyphs" textLength="274" x="422.5" y="150.1294">tussen de classen is dat de "CourseAdmin"</text><text fill="#000000" font-family="sans-serif" font-size="13" lengthAdjust="spacingAndGlyphs" textLength="140" x="349.5" y="165.2622">de course 'aministers'</text><!--MD5=[e9ddc44ead1881c7f36e1e80108b1d1d]
link class1 to class2--><path d="M120.1116,92.5 C153.7098,92.5 195.5309,92.5 226.4541,92.5 " fill="none" id="class1-&gt;class2" style="stroke: #A80036; stroke-width: 1.0;"/><polygon fill="#A80036" points="231.7078,92.5,222.7078,88.5,226.7078,92.5,222.7078,96.5,231.7078,92.5" style="stroke: #A80036; stroke-width: 1.0;"/><text fill="#000000" font-family="sans-serif" font-size="13" lengthAdjust="spacingAndGlyphs" textLength="75" x="138.5" y="85.5669">administers</text><text fill="#000000" font-family="sans-serif" font-size="13" lengthAdjust="spacingAndGlyphs" textLength="8" x="127.8714" y="105.4418">1</text><text fill="#000000" font-family="sans-serif" font-size="13" lengthAdjust="spacingAndGlyphs" textLength="23" x="201.0834" y="105.7255">1..*</text><!--MD5=[604b3fbc55e8344919db96b05fd8116b]
@startuml


class class1 as "CourseAdmin" #EEEEEE
class class2 as "Course" #EEEEEE
class1 "1   " -right-> "1..*" class2 : administers


note right of class2 #FCA985
    **relations**
    - -
    In dit voorbeeld is een relatie te zien tussen de
    "CourseAdmin" en de "Course".

    Het is te zien door de richting van de pijl dat de
    "CourseAdmin" **een of meerdere** courses van bevatten
    en dat een course **precies een** "CourseAdmin" bevat.

    De **relatie** tussen de classen is dat de "CourseAdmin"
    de course 'aministers'
end note
@enduml

PlantUML version 1.2020.06(Sun Apr 05 12:38:32 GMT 2020)
(GPL source distribution)
Java Runtime: OpenJDK Runtime Environment
JVM: OpenJDK 64-Bit Server VM
Java Version: 14-ea+33
Operating System: Linux
Default Encoding: UTF-8
Language: en
Country: US
--></g></svg>