<?xml version="1.0" encoding="UTF-8" standalone="no"?><svg xmlns="http://www.w3.org/2000/svg" xmlns:xlink="http://www.w3.org/1999/xlink" contentScriptType="application/ecmascript" contentStyleType="text/css" height="181px" preserveAspectRatio="none" style="width:758px;height:181px;" version="1.1" viewBox="0 0 758 181" width="758px" zoomAndPan="magnify"><defs><filter height="300%" id="fwt4r5pnl8rcs" width="300%" x="-1" y="-1"><feGaussianBlur result="blurOut" stdDeviation="2.0"/><feColorMatrix in="blurOut" result="blurOut2" type="matrix" values="0 0 0 0 0 0 0 0 0 0 0 0 0 0 0 0 0 0 .4 0"/><feOffset dx="4.0" dy="4.0" in="blurOut2" result="blurOut3"/><feBlend in="SourceGraphic" in2="blurOut3" mode="normal"/></filter></defs><g><!--MD5=[87deaade19ae8b84dc12027f3555a633]
cluster rect1--><rect fill="#FFFFFF" filter="url(#fwt4r5pnl8rcs)" height="83" style="stroke: #000000; stroke-width: 1.5;" width="318" x="14" y="37.5"/><text fill="#000000" font-family="sans-serif" font-size="14" font-weight="bold" lengthAdjust="spacingAndGlyphs" textLength="69" x="138.5" y="52.4951">relations</text><!--MD5=[9734707d94b55ca7b71982c088a40502]
class class1--><rect fill="#FEFECE" filter="url(#fwt4r5pnl8rcs)" height="48" id="class1" style="stroke: #A80036; stroke-width: 1.5;" width="114" x="22" y="64.5"/><ellipse cx="37" cy="80.5" fill="#ADD1B2" rx="11" ry="11" style="stroke: #A80036; stroke-width: 1.0;"/><path d="M39.9688,86.1406 Q39.3906,86.4375 38.75,86.5781 Q38.1094,86.7344 37.4063,86.7344 Q34.9063,86.7344 33.5781,85.0938 Q32.2656,83.4375 32.2656,80.3125 Q32.2656,77.1875 33.5781,75.5313 Q34.9063,73.875 37.4063,73.875 Q38.1094,73.875 38.75,74.0313 Q39.4063,74.1875 39.9688,74.4844 L39.9688,77.2031 Q39.3438,76.625 38.75,76.3594 Q38.1563,76.0781 37.5313,76.0781 Q36.1875,76.0781 35.5,77.1563 Q34.8125,78.2188 34.8125,80.3125 Q34.8125,82.4063 35.5,83.4844 Q36.1875,84.5469 37.5313,84.5469 Q38.1563,84.5469 38.75,84.2813 Q39.3438,84 39.9688,83.4219 L39.9688,86.1406 Z "/><text fill="#000000" font-family="sans-serif" font-size="12" lengthAdjust="spacingAndGlyphs" textLength="82" x="51" y="84.6543">CourseAdmin</text><line style="stroke: #A80036; stroke-width: 1.5;" x1="23" x2="135" y1="96.5" y2="96.5"/><line style="stroke: #A80036; stroke-width: 1.5;" x1="23" x2="135" y1="104.5" y2="104.5"/><!--MD5=[5bd124f2ff5297a7fd349100317f0a5e]
class class2--><rect fill="#FEFECE" filter="url(#fwt4r5pnl8rcs)" height="48" id="class2" style="stroke: #A80036; stroke-width: 1.5;" width="76" x="248" y="64.5"/><ellipse cx="263" cy="80.5" fill="#ADD1B2" rx="11" ry="11" style="stroke: #A80036; stroke-width: 1.0;"/><path d="M265.9688,86.1406 Q265.3906,86.4375 264.75,86.5781 Q264.1094,86.7344 263.4063,86.7344 Q260.9063,86.7344 259.5781,85.0938 Q258.2656,83.4375 258.2656,80.3125 Q258.2656,77.1875 259.5781,75.5313 Q260.9063,73.875 263.4063,73.875 Q264.1094,73.875 264.75,74.0313 Q265.4063,74.1875 265.9688,74.4844 L265.9688,77.2031 Q265.3438,76.625 264.75,76.3594 Q264.1563,76.0781 263.5313,76.0781 Q262.1875,76.0781 261.5,77.1563 Q260.8125,78.2188 260.8125,80.3125 Q260.8125,82.4063 261.5,83.4844 Q262.1875,84.5469 263.5313,84.5469 Q264.1563,84.5469 264.75,84.2813 Q265.3438,84 265.9688,83.4219 L265.9688,86.1406 Z "/><text fill="#000000" font-family="sans-serif" font-size="12" lengthAdjust="spacingAndGlyphs" textLength="44" x="277" y="84.6543">Course</text><line style="stroke: #A80036; stroke-width: 1.5;" x1="249" x2="323" y1="96.5" y2="96.5"/><line style="stroke: #A80036; stroke-width: 1.5;" x1="249" x2="323" y1="104.5" y2="104.5"/><path d="M359.5,8 L359.5,84.5 L324.0684,88.5 L359.5,92.5 L359.5,169.3281 A0,0 0 0 0 359.5,169.3281 L746.5,169.3281 A0,0 0 0 0 746.5,169.3281 L746.5,18 L736.5,8 L359.5,8 A0,0 0 0 0 359.5,8 " fill="#FBFB77" filter="url(#fwt4r5pnl8rcs)" style="stroke: #A80036; stroke-width: 1.0;"/><path d="M736.5,8 L736.5,18 L746.5,18 L736.5,8 " fill="#FBFB77" style="stroke: #A80036; stroke-width: 1.0;"/><text fill="#000000" font-family="sans-serif" font-size="13" font-weight="bold" lengthAdjust="spacingAndGlyphs" textLength="64" x="365.5" y="25.0669">relations</text><text fill="#000000" font-family="sans-serif" font-size="13" lengthAdjust="spacingAndGlyphs" textLength="298" x="365.5" y="40.1997">In dit voorbeeld is een relatie te zien tussen de</text><text fill="#000000" font-family="sans-serif" font-size="13" lengthAdjust="spacingAndGlyphs" textLength="199" x="365.5" y="55.3325">"CourseAdmin" en de "Course".</text><text fill="#000000" font-family="sans-serif" font-size="13" lengthAdjust="spacingAndGlyphs" textLength="0" x="369.5" y="70.4653"/><text fill="#000000" font-family="sans-serif" font-size="13" lengthAdjust="spacingAndGlyphs" textLength="301" x="365.5" y="85.5981">Het is te zien door de richting van de pijl dat de</text><text fill="#000000" font-family="sans-serif" font-size="13" lengthAdjust="spacingAndGlyphs" textLength="96" x="365.5" y="100.731">"CourseAdmin"</text><text fill="#000000" font-family="sans-serif" font-size="13" font-weight="bold" lengthAdjust="spacingAndGlyphs" textLength="124" x="465.5" y="100.731">een of meerdere</text><text fill="#000000" font-family="sans-serif" font-size="13" lengthAdjust="spacingAndGlyphs" textLength="138" x="593.5" y="100.731">courses van bevatten</text><text fill="#000000" font-family="sans-serif" font-size="13" lengthAdjust="spacingAndGlyphs" textLength="116" x="365.5" y="115.8638">en dat een course</text><text fill="#000000" font-family="sans-serif" font-size="13" font-weight="bold" lengthAdjust="spacingAndGlyphs" textLength="86" x="485.5" y="115.8638">precies een</text><text fill="#000000" font-family="sans-serif" font-size="13" lengthAdjust="spacingAndGlyphs" textLength="140" x="575.5" y="115.8638">"CourseAdmin" bevat.</text><text fill="#000000" font-family="sans-serif" font-size="13" lengthAdjust="spacingAndGlyphs" textLength="0" x="369.5" y="130.9966"/><text fill="#000000" font-family="sans-serif" font-size="13" lengthAdjust="spacingAndGlyphs" textLength="18" x="365.5" y="146.1294">De</text><text fill="#000000" font-family="sans-serif" font-size="13" font-weight="bold" lengthAdjust="spacingAndGlyphs" textLength="47" x="387.5" y="146.1294">relatie</text><text fill="#000000" font-family="sans-serif" font-size="13" lengthAdjust="spacingAndGlyphs" textLength="274" x="438.5" y="146.1294">tussen de classen is dat de "CourseAdmin"</text><text fill="#000000" font-family="sans-serif" font-size="13" lengthAdjust="spacingAndGlyphs" textLength="140" x="365.5" y="161.2622">de course 'aministers'</text><!--MD5=[e9ddc44ead1881c7f36e1e80108b1d1d]
link class1 to class2--><path d="M136.1116,88.5 C169.7098,88.5 211.5309,88.5 242.4541,88.5 " fill="none" id="class1-&gt;class2" style="stroke: #A80036; stroke-width: 1.0;"/><polygon fill="#A80036" points="247.7078,88.5,238.7078,84.5,242.7078,88.5,238.7078,92.5,247.7078,88.5" style="stroke: #A80036; stroke-width: 1.0;"/><text fill="#000000" font-family="sans-serif" font-size="13" lengthAdjust="spacingAndGlyphs" textLength="75" x="154.5" y="81.5669">administers</text><text fill="#000000" font-family="sans-serif" font-size="13" lengthAdjust="spacingAndGlyphs" textLength="8" x="143.8714" y="101.4418">1</text><text fill="#000000" font-family="sans-serif" font-size="13" lengthAdjust="spacingAndGlyphs" textLength="23" x="217.0834" y="101.7255">1..*</text><!--MD5=[ac278c839bed1d3fdeae03bd92fb8cab]
@startuml

rectangle rect1 as "**relations**" {
    class class1 as "CourseAdmin"
    class class2 as "Course"
    class1 "1   " -right-> "1..*" class2 : administers
}

note right of class2
    **relations**
    In dit voorbeeld is een relatie te zien tussen de
    "CourseAdmin" en de "Course".

    Het is te zien door de richting van de pijl dat de
    "CourseAdmin" **een of meerdere** courses van bevatten
    en dat een course **precies een** "CourseAdmin" bevat.

    De **relatie** tussen de classen is dat de "CourseAdmin"
    de course 'aministers'
end note
@enduml

PlantUML version 1.2020.06(Sun Apr 05 12:38:32 GMT 2020)
(GPL source distribution)
Java Runtime: OpenJDK Runtime Environment
JVM: OpenJDK 64-Bit Server VM
Java Version: 14-ea+33
Operating System: Linux
Default Encoding: UTF-8
Language: en
Country: US
--></g></svg>