<?xml version="1.0" encoding="UTF-8" standalone="no"?><svg xmlns="http://www.w3.org/2000/svg" xmlns:xlink="http://www.w3.org/1999/xlink" contentScriptType="application/ecmascript" contentStyleType="text/css" height="485px" preserveAspectRatio="none" style="width:554px;height:485px;" version="1.1" viewBox="0 0 554 485" width="554px" zoomAndPan="magnify"><defs><filter height="300%" id="fqgbr9kh5xwnd" width="300%" x="-1" y="-1"><feGaussianBlur result="blurOut" stdDeviation="2.0"/><feColorMatrix in="blurOut" result="blurOut2" type="matrix" values="0 0 0 0 0 0 0 0 0 0 0 0 0 0 0 0 0 0 .4 0"/><feOffset dx="4.0" dy="4.0" in="blurOut2" result="blurOut3"/><feBlend in="SourceGraphic" in2="blurOut3" mode="normal"/></filter></defs><g><rect fill="#FEFECE" filter="url(#fqgbr9kh5xwnd)" height="50" rx="12.5" ry="12.5" style="stroke: #A80036; stroke-width: 1.5;" width="71" x="72.5" y="8"/><line style="stroke: #A80036; stroke-width: 1.5;" x1="72.5" x2="143.5" y1="34.2969" y2="34.2969"/><text fill="#000000" font-family="sans-serif" font-size="14" lengthAdjust="spacingAndGlyphs" textLength="51" x="82.5" y="25.9951">state_0</text><rect fill="#FEFECE" filter="url(#fqgbr9kh5xwnd)" height="50" rx="12.5" ry="12.5" style="stroke: #A80036; stroke-width: 1.5;" width="71" x="72.5" y="424"/><line style="stroke: #A80036; stroke-width: 1.5;" x1="72.5" x2="143.5" y1="450.2969" y2="450.2969"/><text fill="#000000" font-family="sans-serif" font-size="14" lengthAdjust="spacingAndGlyphs" textLength="51" x="82.5" y="441.9951">state_6</text><path d="M245.5,122.5 L245.5,359.4922 L542.5,359.4922 L542.5,132.5 L532.5,122.5 L245.5,122.5 " fill="#FBFB77" filter="url(#fqgbr9kh5xwnd)" style="stroke: #A80036; stroke-width: 1.0;"/><path d="M532.5,122.5 L532.5,132.5 L542.5,132.5 L532.5,122.5 " fill="#FBFB77" style="stroke: #A80036; stroke-width: 1.0;"/><text fill="#000000" font-family="sans-serif" font-size="13" font-weight="bold" lengthAdjust="spacingAndGlyphs" textLength="111" x="251.5" y="139.5669">composit state</text><text fill="#000000" font-family="sans-serif" font-size="13" lengthAdjust="spacingAndGlyphs" textLength="205" x="251.5" y="154.6997">Een composit state is niks meer</text><text fill="#000000" font-family="sans-serif" font-size="13" lengthAdjust="spacingAndGlyphs" textLength="208" x="251.5" y="169.8325">dan een geneste state machine.</text><text fill="#000000" font-family="sans-serif" font-size="13" lengthAdjust="spacingAndGlyphs" textLength="242" x="251.5" y="184.9653">Als de werking van een state machine</text><text fill="#000000" font-family="sans-serif" font-size="13" lengthAdjust="spacingAndGlyphs" textLength="237" x="251.5" y="200.0981">uitgebreider is dan het te beschrijven</text><text fill="#000000" font-family="sans-serif" font-size="13" lengthAdjust="spacingAndGlyphs" textLength="53" x="251.5" y="215.231">is in een</text><text fill="#000000" font-family="sans-serif" font-size="13" font-weight="bold" lengthAdjust="spacingAndGlyphs" textLength="94" x="308.5" y="215.231">entry/do/exit</text><text fill="#000000" font-family="sans-serif" font-size="13" lengthAdjust="spacingAndGlyphs" textLength="44" x="406.5" y="215.231">variant</text><text fill="#000000" font-family="sans-serif" font-size="13" lengthAdjust="spacingAndGlyphs" textLength="257" x="251.5" y="230.3638">dan kan er gebruik gemaakt worden van</text><text fill="#000000" font-family="sans-serif" font-size="13" lengthAdjust="spacingAndGlyphs" textLength="197" x="251.5" y="245.4966">deze methode van weergaven.</text><text fill="#000000" font-family="sans-serif" font-size="13" lengthAdjust="spacingAndGlyphs" textLength="0" x="255.5" y="260.6294"/><text fill="#000000" font-family="sans-serif" font-size="13" font-weight="bold" lengthAdjust="spacingAndGlyphs" textLength="89" x="251.5" y="275.7622">submachine</text><text fill="#000000" font-family="sans-serif" font-size="13" lengthAdjust="spacingAndGlyphs" textLength="251" x="251.5" y="290.895">Een submachine is in werking gelijk aan</text><text fill="#000000" font-family="sans-serif" font-size="13" lengthAdjust="spacingAndGlyphs" textLength="276" x="251.5" y="306.0278">een composit state maar heeft een andere</text><text fill="#000000" font-family="sans-serif" font-size="13" lengthAdjust="spacingAndGlyphs" textLength="267" x="251.5" y="321.1606">markering. Er staat een soort van 'infinite'</text><text fill="#000000" font-family="sans-serif" font-size="13" lengthAdjust="spacingAndGlyphs" textLength="269" x="251.5" y="336.2935">tekentje rechts onderaan de state die niet</text><text fill="#000000" font-family="sans-serif" font-size="13" lengthAdjust="spacingAndGlyphs" textLength="152" x="251.5" y="351.4263">in plantuml te vinden is.</text><rect fill="#FEFECE" filter="url(#fqgbr9kh5xwnd)" height="246.2969" rx="12.5" ry="12.5" style="stroke: #A80036; stroke-width: 1.5;" width="204" x="6" y="118"/><rect fill="#FFFFFF" height="214" rx="12.5" ry="12.5" style="stroke: #FFFFFF; stroke-width: 1.0;" width="198" x="9" y="147.2969"/><line style="stroke: #A80036; stroke-width: 1.5;" x1="6" x2="210" y1="144.2969" y2="144.2969"/><text fill="#000000" font-family="sans-serif" font-size="14" lengthAdjust="spacingAndGlyphs" textLength="106" x="55" y="135.9951">compisite state</text><ellipse cx="52.5" cy="167.2969" fill="#000000" filter="url(#fqgbr9kh5xwnd)" rx="10" ry="10" style="stroke: none; stroke-width: 1.0;"/><rect fill="#FEFECE" filter="url(#fqgbr9kh5xwnd)" height="50" rx="12.5" ry="12.5" style="stroke: #A80036; stroke-width: 1.5;" width="71" x="17" y="213.2969"/><line style="stroke: #A80036; stroke-width: 1.5;" x1="17" x2="88" y1="239.5938" y2="239.5938"/><text fill="#000000" font-family="sans-serif" font-size="14" lengthAdjust="spacingAndGlyphs" textLength="51" x="27" y="231.292">state_2</text><rect fill="#FEFECE" filter="url(#fqgbr9kh5xwnd)" height="50" rx="12.5" ry="12.5" style="stroke: #A80036; stroke-width: 1.5;" width="71" x="17" y="299.2969"/><line style="stroke: #A80036; stroke-width: 1.5;" x1="17" x2="88" y1="325.5938" y2="325.5938"/><text fill="#000000" font-family="sans-serif" font-size="14" lengthAdjust="spacingAndGlyphs" textLength="51" x="27" y="317.292">state_3</text><rect fill="#FEFECE" filter="url(#fqgbr9kh5xwnd)" height="50" rx="12.5" ry="12.5" style="stroke: #A80036; stroke-width: 1.5;" width="71" x="106" y="299.2969"/><line style="stroke: #A80036; stroke-width: 1.5;" x1="106" x2="177" y1="325.5938" y2="325.5938"/><text fill="#000000" font-family="sans-serif" font-size="14" lengthAdjust="spacingAndGlyphs" textLength="51" x="116" y="317.292">state_4</text><rect fill="#FEFECE" filter="url(#fqgbr9kh5xwnd)" height="50" rx="12.5" ry="12.5" style="stroke: #A80036; stroke-width: 1.5;" width="71" x="106" y="213.2969"/><line style="stroke: #A80036; stroke-width: 1.5;" x1="106" x2="177" y1="239.5938" y2="239.5938"/><text fill="#000000" font-family="sans-serif" font-size="14" lengthAdjust="spacingAndGlyphs" textLength="51" x="116" y="231.292">state_5</text><ellipse cx="141.5" cy="167.2969" fill="none" filter="url(#fqgbr9kh5xwnd)" rx="10" ry="10" style="stroke: #000000; stroke-width: 1.0;"/><ellipse cx="142" cy="167.7969" fill="#000000" rx="6" ry="6" style="stroke: none; stroke-width: 1.0;"/><!--MD5=[36f3e3ba831ab22e8ece51b826804b3f]
link *start*state_1 to state_2--><path d="M52.5,177.4695 C52.5,185.4438 52.5,196.9759 52.5,207.8597 " fill="none" id="*start*state_1-&gt;state_2" style="stroke: #A80036; stroke-width: 1.0;"/><polygon fill="#A80036" points="52.5,213.1322,56.5,204.1322,52.5,208.1322,48.5,204.1322,52.5,213.1322" style="stroke: #A80036; stroke-width: 1.0;"/><!--MD5=[6ca27bbe53afaec21c00c77e95885beb]
link state_2 to state_3--><path d="M52.5,263.6346 C52.5,273.17 52.5,284.1079 52.5,294.0467 " fill="none" id="state_2-&gt;state_3" style="stroke: #A80036; stroke-width: 1.0;"/><polygon fill="#A80036" points="52.5,299.1403,56.5,290.1403,52.5,294.1403,48.5,290.1403,52.5,299.1403" style="stroke: #A80036; stroke-width: 1.0;"/><!--MD5=[9451fe67e50abf290ac59fd688a94a08]
link state_3 to state_4--><path d="M88.3086,324.2969 C92.3992,324.2969 96.4899,324.2969 100.5805,324.2969 " fill="none" id="state_3-&gt;state_4" style="stroke: #A80036; stroke-width: 1.0;"/><polygon fill="#A80036" points="105.762,324.2969,96.762,320.2969,100.762,324.2969,96.762,328.2969,105.762,324.2969" style="stroke: #A80036; stroke-width: 1.0;"/><!--MD5=[c8622948bd3644b510acfba6b12c5f57]
reverse link state_5 to state_4--><path d="M141.5,268.7361 C141.5,278.6875 141.5,289.6228 141.5,299.1403 " fill="none" id="state_5&lt;-state_4" style="stroke: #A80036; stroke-width: 1.0;"/><polygon fill="#A80036" points="141.5,263.6346,137.5,272.6346,141.5,268.6346,145.5,272.6346,141.5,263.6346" style="stroke: #A80036; stroke-width: 1.0;"/><!--MD5=[4a1189ce5f9f498e3606c71b010b13f1]
reverse link *end*state_1 to state_5--><path d="M141.5,182.6474 C141.5,191.541 141.5,202.9571 141.5,213.1322 " fill="none" id="*end*state_1&lt;-state_5" style="stroke: #A80036; stroke-width: 1.0;"/><polygon fill="#A80036" points="141.5,177.4695,137.5,186.4695,141.5,182.4695,145.5,186.4695,141.5,177.4695" style="stroke: #A80036; stroke-width: 1.0;"/><!--MD5=[213b7e30ab6547977f5113b791c55405]
link state_0 to state_1--><path d="M108,58.0897 C108,72.5941 108,92.0663 108,112.9041 " fill="none" id="state_0-&gt;state_1" style="stroke: #A80036; stroke-width: 1.0;"/><polygon fill="#A80036" points="108,117.9402,112,108.9402,108,112.9402,104,108.9402,108,117.9402" style="stroke: #A80036; stroke-width: 1.0;"/><!--MD5=[8d3b5306a4f41b571e65d751395876a4]
link state_1 to state_6--><path d="M108,364.0984 C108,384.2542 108,403.4188 108,418.4223 " fill="none" id="state_1-&gt;state_6" style="stroke: #A80036; stroke-width: 1.0;"/><polygon fill="#A80036" points="108,423.7558,112,414.7558,108,418.7558,104,414.7558,108,423.7558" style="stroke: #A80036; stroke-width: 1.0;"/><!--MD5=[407312e39aa5f9667d25e5a0fb1c7158]
reverse link state_1 to n1--><!--MD5=[407312e39aa5f9667d25e5a0fb1c7158]
reverse link state_1 to n1--><!--MD5=[913803d9bcf1be52defda3b9a306ce81]
@startuml


state_0 - -> state_1
state_1 - -> state_6

state state_1 as "compisite state"{
    [*] - -> state_2
    state_2 - -> state_3
    state_3 -right-> state_4
    state_4 -up-> state_5
    state_5 -up-> [*]
}

note as n1
    **composit state**
    Een composit state is niks meer
    dan een geneste state machine.
    Als de werking van een state machine
    uitgebreider is dan het te beschrijven
    is in een **entry/do/exit** variant
    dan kan er gebruik gemaakt worden van
    deze methode van weergaven.

    **submachine**
    Een submachine is in werking gelijk aan
    een composit state maar heeft een andere
    markering. Er staat een soort van 'infinite'
    tekentje rechts onderaan de state die niet
    in plantuml te vinden is.
end note

n1 -[hidden]left-> state_1
n1 -[hidden]left-> state_1
@enduml

PlantUML version 1.2020.06(Sun Apr 05 12:38:32 GMT 2020)
(GPL source distribution)
Java Runtime: OpenJDK Runtime Environment
JVM: OpenJDK 64-Bit Server VM
Java Version: 14-ea+33
Operating System: Linux
Default Encoding: UTF-8
Language: en
Country: US
--></g></svg>