<?xml version="1.0" encoding="UTF-8" standalone="no"?><svg xmlns="http://www.w3.org/2000/svg" xmlns:xlink="http://www.w3.org/1999/xlink" contentScriptType="application/ecmascript" contentStyleType="text/css" height="280px" preserveAspectRatio="none" style="width:784px;height:280px;" version="1.1" viewBox="0 0 784 280" width="784px" zoomAndPan="magnify"><defs><filter height="300%" id="f8oyc12j42fmn" width="300%" x="-1" y="-1"><feGaussianBlur result="blurOut" stdDeviation="2.0"/><feColorMatrix in="blurOut" result="blurOut2" type="matrix" values="0 0 0 0 0 0 0 0 0 0 0 0 0 0 0 0 0 0 .4 0"/><feOffset dx="4.0" dy="4.0" in="blurOut2" result="blurOut3"/><feBlend in="SourceGraphic" in2="blurOut3" mode="normal"/></filter></defs><g><rect fill="#FEFECE" filter="url(#f8oyc12j42fmn)" height="50" rx="12.5" ry="12.5" style="stroke: #A80036; stroke-width: 1.5;" width="71" x="6" y="113.5"/><line style="stroke: #A80036; stroke-width: 1.5;" x1="6" x2="77" y1="139.7969" y2="139.7969"/><text fill="#000000" font-family="sans-serif" font-size="14" lengthAdjust="spacingAndGlyphs" textLength="51" x="16" y="131.4951">state_0</text><path d="M475,8 L475,268.9922 L772,268.9922 L772,18 L762,8 L475,8 " fill="#FCA985" filter="url(#f8oyc12j42fmn)" style="stroke: #A80036; stroke-width: 1.0;"/><path d="M762,8 L762,18 L772,18 L762,8 " fill="#FCA985" style="stroke: #A80036; stroke-width: 1.0;"/><text fill="#000000" font-family="sans-serif" font-size="13" font-weight="bold" lengthAdjust="spacingAndGlyphs" textLength="111" x="481" y="25.0669">composit state</text><line style="stroke: #A80036; stroke-width: 1.0;" x1="476" x2="771" y1="28.1328" y2="28.1328"/><text fill="#000000" font-family="sans-serif" font-size="13" lengthAdjust="spacingAndGlyphs" textLength="205" x="481" y="44.1997">Een composit state is niks meer</text><text fill="#000000" font-family="sans-serif" font-size="13" lengthAdjust="spacingAndGlyphs" textLength="208" x="481" y="59.3325">dan een geneste state machine.</text><text fill="#000000" font-family="sans-serif" font-size="13" lengthAdjust="spacingAndGlyphs" textLength="242" x="481" y="74.4653">Als de werking van een state machine</text><text fill="#000000" font-family="sans-serif" font-size="13" lengthAdjust="spacingAndGlyphs" textLength="237" x="481" y="89.5981">uitgebreider is dan het te beschrijven</text><text fill="#000000" font-family="sans-serif" font-size="13" lengthAdjust="spacingAndGlyphs" textLength="53" x="481" y="104.731">is in een</text><text fill="#000000" font-family="sans-serif" font-size="13" font-weight="bold" lengthAdjust="spacingAndGlyphs" textLength="94" x="538" y="104.731">entry/do/exit</text><text fill="#000000" font-family="sans-serif" font-size="13" lengthAdjust="spacingAndGlyphs" textLength="44" x="636" y="104.731">variant</text><text fill="#000000" font-family="sans-serif" font-size="13" lengthAdjust="spacingAndGlyphs" textLength="257" x="481" y="119.8638">dan kan er gebruik gemaakt worden van</text><text fill="#000000" font-family="sans-serif" font-size="13" lengthAdjust="spacingAndGlyphs" textLength="197" x="481" y="134.9966">deze methode van weergaven.</text><text fill="#000000" font-family="sans-serif" font-size="13" lengthAdjust="spacingAndGlyphs" textLength="0" x="485" y="150.1294"/><line style="stroke: #A80036; stroke-width: 1.0;" x1="476" x2="771" y1="157.1953" y2="157.1953"/><text fill="#000000" font-family="sans-serif" font-size="13" font-weight="bold" lengthAdjust="spacingAndGlyphs" textLength="89" x="481" y="173.2622">submachine</text><line style="stroke: #A80036; stroke-width: 1.0;" x1="476" x2="771" y1="180.3281" y2="180.3281"/><text fill="#000000" font-family="sans-serif" font-size="13" lengthAdjust="spacingAndGlyphs" textLength="251" x="481" y="196.395">Een submachine is in werking gelijk aan</text><text fill="#000000" font-family="sans-serif" font-size="13" lengthAdjust="spacingAndGlyphs" textLength="276" x="481" y="211.5278">een composit state maar heeft een andere</text><text fill="#000000" font-family="sans-serif" font-size="13" lengthAdjust="spacingAndGlyphs" textLength="267" x="481" y="226.6606">markering. Er staat een soort van 'infinite'</text><text fill="#000000" font-family="sans-serif" font-size="13" lengthAdjust="spacingAndGlyphs" textLength="269" x="481" y="241.7935">tekentje rechts onderaan de state die niet</text><text fill="#000000" font-family="sans-serif" font-size="13" lengthAdjust="spacingAndGlyphs" textLength="152" x="481" y="256.9263">in plantuml te vinden is.</text><rect fill="#FEFECE" filter="url(#f8oyc12j42fmn)" height="172.2969" rx="12.5" ry="12.5" style="stroke: #A80036; stroke-width: 1.5;" width="278" x="137" y="52.5"/><rect fill="#FFFFFF" height="140" rx="12.5" ry="12.5" style="stroke: #FFFFFF; stroke-width: 1.0;" width="272" x="140" y="81.7969"/><line style="stroke: #A80036; stroke-width: 1.5;" x1="137" x2="415" y1="78.7969" y2="78.7969"/><text fill="#000000" font-family="sans-serif" font-size="14" lengthAdjust="spacingAndGlyphs" textLength="106" x="223" y="70.4951">compisite state</text><ellipse cx="158" cy="116.7969" fill="#000000" filter="url(#f8oyc12j42fmn)" rx="10" ry="10" style="stroke: none; stroke-width: 1.0;"/><rect fill="#FEFECE" filter="url(#f8oyc12j42fmn)" height="50" rx="12.5" ry="12.5" style="stroke: #A80036; stroke-width: 1.5;" width="71" x="204" y="91.7969"/><line style="stroke: #A80036; stroke-width: 1.5;" x1="204" x2="275" y1="118.0938" y2="118.0938"/><text fill="#000000" font-family="sans-serif" font-size="14" lengthAdjust="spacingAndGlyphs" textLength="51" x="214" y="109.792">state_2</text><rect fill="#FEFECE" filter="url(#f8oyc12j42fmn)" height="50" rx="12.5" ry="12.5" style="stroke: #A80036; stroke-width: 1.5;" width="71" x="311" y="91.7969"/><line style="stroke: #A80036; stroke-width: 1.5;" x1="311" x2="382" y1="118.0938" y2="118.0938"/><text fill="#000000" font-family="sans-serif" font-size="14" lengthAdjust="spacingAndGlyphs" textLength="51" x="321" y="109.792">state_3</text><rect fill="#FEFECE" filter="url(#f8oyc12j42fmn)" height="50" rx="12.5" ry="12.5" style="stroke: #A80036; stroke-width: 1.5;" width="71" x="311" y="159.7969"/><line style="stroke: #A80036; stroke-width: 1.5;" x1="311" x2="382" y1="186.0938" y2="186.0938"/><text fill="#000000" font-family="sans-serif" font-size="14" lengthAdjust="spacingAndGlyphs" textLength="51" x="321" y="177.792">state_4</text><rect fill="#FEFECE" filter="url(#f8oyc12j42fmn)" height="50" rx="12.5" ry="12.5" style="stroke: #A80036; stroke-width: 1.5;" width="71" x="204" y="159.7969"/><line style="stroke: #A80036; stroke-width: 1.5;" x1="204" x2="275" y1="186.0938" y2="186.0938"/><text fill="#000000" font-family="sans-serif" font-size="14" lengthAdjust="spacingAndGlyphs" textLength="51" x="214" y="177.792">state_5</text><ellipse cx="158" cy="184.7969" fill="none" filter="url(#f8oyc12j42fmn)" rx="10" ry="10" style="stroke: #000000; stroke-width: 1.0;"/><ellipse cx="158.5" cy="185.2969" fill="#000000" rx="6" ry="6" style="stroke: none; stroke-width: 1.0;"/><!--MD5=[36f3e3ba831ab22e8ece51b826804b3f]
link *start*state_1 to state_2--><path d="M168.322,116.7969 C176.1223,116.7969 187.3785,116.7969 198.6453,116.7969 " fill="none" id="*start*state_1-&gt;state_2" style="stroke: #A80036; stroke-width: 1.0;"/><polygon fill="#A80036" points="203.8103,116.7969,194.8103,112.7969,198.8103,116.7969,194.8103,120.7969,203.8103,116.7969" style="stroke: #A80036; stroke-width: 1.0;"/><!--MD5=[6ca27bbe53afaec21c00c77e95885beb]
link state_2 to state_3--><path d="M275.1295,116.7969 C284.8621,116.7969 295.4863,116.7969 305.4928,116.7969 " fill="none" id="state_2-&gt;state_3" style="stroke: #A80036; stroke-width: 1.0;"/><polygon fill="#A80036" points="310.6613,116.7969,301.6613,112.7969,305.6613,116.7969,301.6613,120.7969,310.6613,116.7969" style="stroke: #A80036; stroke-width: 1.0;"/><!--MD5=[9451fe67e50abf290ac59fd688a94a08]
link state_3 to state_4--><path d="M346.5,141.8549 C346.5,146.0051 346.5,150.1553 346.5,154.3056 " fill="none" id="state_3-&gt;state_4" style="stroke: #A80036; stroke-width: 1.0;"/><polygon fill="#A80036" points="346.5,159.5625,350.5,150.5625,346.5,154.5625,342.5,150.5625,346.5,159.5625" style="stroke: #A80036; stroke-width: 1.0;"/><!--MD5=[c8622948bd3644b510acfba6b12c5f57]
reverse link state_5 to state_4--><path d="M280.2923,184.7969 C290.2899,184.7969 300.9159,184.7969 310.6613,184.7969 " fill="none" id="state_5&lt;-state_4" style="stroke: #A80036; stroke-width: 1.0;"/><polygon fill="#A80036" points="275.1295,184.7969,284.1295,188.7969,280.1295,184.7969,284.1295,180.7969,275.1295,184.7969" style="stroke: #A80036; stroke-width: 1.0;"/><!--MD5=[4a1189ce5f9f498e3606c71b010b13f1]
reverse link *end*state_1 to state_5--><path d="M173.3405,184.7969 C181.9684,184.7969 193.1251,184.7969 203.8103,184.7969 " fill="none" id="*end*state_1&lt;-state_5" style="stroke: #A80036; stroke-width: 1.0;"/><polygon fill="#A80036" points="168.322,184.7969,177.322,188.7969,173.322,184.7969,177.322,180.7969,168.322,184.7969" style="stroke: #A80036; stroke-width: 1.0;"/><!--MD5=[213b7e30ab6547977f5113b791c55405]
link state_0 to state_1--><path d="M77.1155,138.5 C92.4706,138.5 111.534,138.5 131.7284,138.5 " fill="none" id="state_0-&gt;state_1" style="stroke: #A80036; stroke-width: 1.0;"/><polygon fill="#A80036" points="136.8854,138.5,127.8854,134.5,131.8854,138.5,127.8854,142.5,136.8854,138.5" style="stroke: #A80036; stroke-width: 1.0;"/><!--MD5=[407312e39aa5f9667d25e5a0fb1c7158]
reverse link state_1 to n1--><!--MD5=[407312e39aa5f9667d25e5a0fb1c7158]
reverse link state_1 to n1--><!--MD5=[30ff834639c6dc93954cd468931b57cf]
@startuml

left to right direction

state_0 - -> state_1

state state_1 as "compisite state"{
    [*] - -> state_2
    state_2 - -> state_3
    state_3 -right-> state_4
    state_4 -up-> state_5
    state_5 -up-> [*]
}

note as n1 #FCA985
    **composit state**
    - -
    Een composit state is niks meer
    dan een geneste state machine.
    Als de werking van een state machine
    uitgebreider is dan het te beschrijven
    is in een **entry/do/exit** variant
    dan kan er gebruik gemaakt worden van
    deze methode van weergaven.

    - -
    **submachine**
    - -
    Een submachine is in werking gelijk aan
    een composit state maar heeft een andere
    markering. Er staat een soort van 'infinite'
    tekentje rechts onderaan de state die niet
    in plantuml te vinden is.
end note

n1 -[hidden]up-> state_1
n1 -[hidden]up-> state_1
@enduml

PlantUML version 1.2020.06(Sun Apr 05 12:38:32 GMT 2020)
(GPL source distribution)
Java Runtime: OpenJDK Runtime Environment
JVM: OpenJDK 64-Bit Server VM
Java Version: 14-ea+33
Operating System: Linux
Default Encoding: UTF-8
Language: en
Country: US
--></g></svg>