<?xml version="1.0" encoding="UTF-8" standalone="no"?><svg xmlns="http://www.w3.org/2000/svg" xmlns:xlink="http://www.w3.org/1999/xlink" contentScriptType="application/ecmascript" contentStyleType="text/css" height="170px" preserveAspectRatio="none" style="width:851px;height:170px;" version="1.1" viewBox="0 0 851 170" width="851px" zoomAndPan="magnify"><defs><filter height="300%" id="f12u2up2ef8l57" width="300%" x="-1" y="-1"><feGaussianBlur result="blurOut" stdDeviation="2.0"/><feColorMatrix in="blurOut" result="blurOut2" type="matrix" values="0 0 0 0 0 0 0 0 0 0 0 0 0 0 0 0 0 0 .4 0"/><feOffset dx="4.0" dy="4.0" in="blurOut2" result="blurOut3"/><feBlend in="SourceGraphic" in2="blurOut3" mode="normal"/></filter></defs><g><!--MD5=[1306a1e9a7f6976ab163266cb79c1e4c]
cluster state_0--><rect fill="#FEFECE" filter="url(#f12u2up2ef8l57)" height="129" rx="12.5" ry="12.5" style="stroke: #A80036; stroke-width: 1.5;" width="223" x="325" y="16.5"/><rect fill="#FFFFFF" height="96.7031" rx="12.5" ry="12.5" style="stroke: #FFFFFF; stroke-width: 1.0;" width="217" x="328" y="45.7969"/><line style="stroke: #A80036; stroke-width: 1.5;" x1="325" x2="548" y1="42.7969" y2="42.7969"/><text fill="#000000" font-family="sans-serif" font-size="14" lengthAdjust="spacingAndGlyphs" textLength="51" x="411" y="34.4951">state_0</text><rect fill="#FEFECE" filter="url(#f12u2up2ef8l57)" height="50" rx="12.5" ry="12.5" style="stroke: #A80036; stroke-width: 1.5;" width="91" x="391" y="79.5"/><line style="stroke: #A80036; stroke-width: 1.5;" x1="391" x2="482" y1="105.7969" y2="105.7969"/><text fill="#000000" font-family="sans-serif" font-size="14" lengthAdjust="spacingAndGlyphs" textLength="71" x="401" y="97.4951">do_activity</text><text fill="#000000" font-family="sans-serif" font-size="14" lengthAdjust="spacingAndGlyphs" textLength="73" x="511.5" y="123.4951">exit_action</text><ellipse cx="548" cy="104.5" fill="#FEFECE" rx="6" ry="6" style="stroke: #A80036; stroke-width: 1.5;"/><line style="stroke: #A80036; stroke-width: 1.5;" x1="552.3891" x2="544.6109" y1="108.8891" y2="101.1109"/><line style="stroke: #A80036; stroke-width: 1.5;" x1="552.3891" x2="544.6109" y1="101.1109" y2="108.8891"/><text fill="#000000" font-family="sans-serif" font-size="14" lengthAdjust="spacingAndGlyphs" textLength="84" x="283" y="123.4951">entry_action</text><ellipse cx="325" cy="104.5" fill="#FEFECE" rx="6" ry="6" style="stroke: #A80036; stroke-width: 1.5;"/><path d="M6,50 L6,158.7969 A0,0 0 0 0 6,158.7969 L259,158.7969 A0,0 0 0 0 259,158.7969 L259,108.5 L318.7921,104.5 L259,100.5 L259,60 L249,50 L6,50 A0,0 0 0 0 6,50 " fill="#FCA985" filter="url(#f12u2up2ef8l57)" style="stroke: #A80036; stroke-width: 1.0;"/><path d="M249,50 L249,60 L259,60 L249,50 " fill="#FCA985" style="stroke: #A80036; stroke-width: 1.0;"/><text fill="#000000" font-family="sans-serif" font-size="13" font-weight="bold" lengthAdjust="spacingAndGlyphs" textLength="80" x="12" y="67.0669">entry node</text><line style="stroke: #A80036; stroke-width: 1.0;" x1="7" x2="258" y1="70.1328" y2="70.1328"/><text fill="#000000" font-family="sans-serif" font-size="13" lengthAdjust="spacingAndGlyphs" textLength="211" x="12" y="86.1997">Een entry node is een alternative</text><text fill="#000000" font-family="sans-serif" font-size="13" lengthAdjust="spacingAndGlyphs" textLength="188" x="12" y="101.3325">entry voor state, het geeft de</text><text fill="#000000" font-family="sans-serif" font-size="13" lengthAdjust="spacingAndGlyphs" textLength="232" x="12" y="116.4653">mogelijkheid om op een andere ma-</text><text fill="#000000" font-family="sans-serif" font-size="13" lengthAdjust="spacingAndGlyphs" textLength="177" x="12" y="131.5981">nier een composite state te</text><text fill="#000000" font-family="sans-serif" font-size="13" lengthAdjust="spacingAndGlyphs" textLength="62" x="12" y="146.731">betreden.</text><path d="M614,50 L614,100.5 L554.3529,104.5 L614,108.5 L614,158.7969 A0,0 0 0 0 614,158.7969 L839,158.7969 A0,0 0 0 0 839,158.7969 L839,60 L829,50 L614,50 A0,0 0 0 0 614,50 " fill="#FCA985" filter="url(#f12u2up2ef8l57)" style="stroke: #A80036; stroke-width: 1.0;"/><path d="M829,50 L829,60 L839,60 L829,50 " fill="#FCA985" style="stroke: #A80036; stroke-width: 1.0;"/><text fill="#000000" font-family="sans-serif" font-size="13" font-weight="bold" lengthAdjust="spacingAndGlyphs" textLength="69" x="620" y="67.0669">exit node</text><line style="stroke: #A80036; stroke-width: 1.0;" x1="615" x2="838" y1="70.1328" y2="70.1328"/><text fill="#000000" font-family="sans-serif" font-size="13" lengthAdjust="spacingAndGlyphs" textLength="198" x="620" y="86.1997">Een exit node is soortgelijk aan</text><text fill="#000000" font-family="sans-serif" font-size="13" lengthAdjust="spacingAndGlyphs" textLength="204" x="620" y="101.3325">een entry node, echter in plaats</text><text fill="#000000" font-family="sans-serif" font-size="13" lengthAdjust="spacingAndGlyphs" textLength="202" x="620" y="116.4653">van het betreden van een state</text><text fill="#000000" font-family="sans-serif" font-size="13" lengthAdjust="spacingAndGlyphs" textLength="202" x="620" y="131.5981">is de exit node bedoelt voor het</text><text fill="#000000" font-family="sans-serif" font-size="13" lengthAdjust="spacingAndGlyphs" textLength="148" x="620" y="146.731">verlaten van een state.</text><!--MD5=[bc13246ee6851efc39197972a4ac8e11]
link do_activity to exit_action--><path d="M482.173,104.5 C501.9914,104.5 523.5672,104.5 536.4286,104.5 " fill="none" id="do_activity-&gt;exit_action" style="stroke: #A80036; stroke-width: 1.0;"/><polygon fill="#A80036" points="541.6871,104.5,532.6871,100.5,536.6871,104.5,532.6871,108.5,541.6871,104.5" style="stroke: #A80036; stroke-width: 1.0;"/><!--MD5=[11c80396945db972c7de35f001cf8313]
link entry_action to do_activity--><path d="M331.3142,104.5 C341.9339,104.5 364.3131,104.5 385.7101,104.5 " fill="none" id="entry_action-&gt;do_activity" style="stroke: #A80036; stroke-width: 1.0;"/><polygon fill="#A80036" points="390.8307,104.5,381.8307,100.5,385.8307,104.5,381.8307,108.5,390.8307,104.5" style="stroke: #A80036; stroke-width: 1.0;"/><!--MD5=[07a4220809dbb980020fc39ff9068120]
link do_activity to do_activity--><path d="M417.8892,79.2223 C412.2495,61.7266 418.4531,44.5 436.5,44.5 C452.855,44.5 459.4832,58.648 456.3847,74.3227 " fill="none" id="do_activity-&gt;do_activity" style="stroke: #A80036; stroke-width: 1.0;"/><polygon fill="#A80036" points="455.1108,79.2223,461.2467,71.5184,456.3689,74.3832,453.5042,69.5054,455.1108,79.2223" style="stroke: #A80036; stroke-width: 1.0;"/><!--MD5=[cbd9753acacc1bf318ed1368e29f61d1]
reverse link exit_action to entry_action--><!--MD5=[27d40f0120a7736c8d84a2f4fc23f0e3]
@startuml
left to right direction

state state_0 {
    do_activity - -> exit_action <<exitpoint>>
    entry_action <<entrypoint>> - -> do_activity
    do_activity - -> do_activity

    entry_action -[hidden]up-> exit_action
}

note left of entry_action #FCA985
    **entry node**
    - -
    Een entry node is een alternative
    entry voor state, het geeft de
    mogelijkheid om op een andere ma-
    nier een composite state te
    betreden.
end note

note right of exit_action #FCA985
    **exit node**
    - -
    Een exit node is soortgelijk aan
    een entry node, echter in plaats
    van het betreden van een state
    is de exit node bedoelt voor het
    verlaten van een state.
end note

@enduml

PlantUML version 1.2020.06(Sun Apr 05 12:38:32 GMT 2020)
(GPL source distribution)
Java Runtime: OpenJDK Runtime Environment
JVM: OpenJDK 64-Bit Server VM
Java Version: 14-ea+33
Operating System: Linux
Default Encoding: UTF-8
Language: en
Country: US
--></g></svg>