<?xml version="1.0" encoding="UTF-8" standalone="no"?><svg xmlns="http://www.w3.org/2000/svg" xmlns:xlink="http://www.w3.org/1999/xlink" contentScriptType="application/ecmascript" contentStyleType="text/css" height="441px" preserveAspectRatio="none" style="width:1107px;height:441px;" version="1.1" viewBox="0 0 1107 441" width="1107px" zoomAndPan="magnify"><defs><filter height="300%" id="ft96mpc1f5wlp" width="300%" x="-1" y="-1"><feGaussianBlur result="blurOut" stdDeviation="2.0"/><feColorMatrix in="blurOut" result="blurOut2" type="matrix" values="0 0 0 0 0 0 0 0 0 0 0 0 0 0 0 0 0 0 .4 0"/><feOffset dx="4.0" dy="4.0" in="blurOut2" result="blurOut3"/><feBlend in="SourceGraphic" in2="blurOut3" mode="normal"/></filter></defs><g><!--MD5=[c26638a81821cf585a88e29a60357529]
cluster s1--><rect fill="#FEFECE" filter="url(#ft96mpc1f5wlp)" height="170" rx="12.5" ry="12.5" style="stroke: #A80036; stroke-width: 1.5;" width="839.5" x="129" y="232"/><rect fill="#FFFFFF" height="137.7031" rx="12.5" ry="12.5" style="stroke: #FFFFFF; stroke-width: 1.0;" width="833.5" x="132" y="261.2969"/><line style="stroke: #A80036; stroke-width: 1.5;" x1="129" x2="968.5" y1="258.2969" y2="258.2969"/><text fill="#000000" font-family="sans-serif" font-size="14" font-weight="bold" lengthAdjust="spacingAndGlyphs" textLength="99" x="499.25" y="248.9951">fork and join</text><rect fill="#000000" filter="url(#ft96mpc1f5wlp)" height="80" style="stroke: none; stroke-width: 1.0;" width="8" x="137" y="277"/><rect fill="#000000" filter="url(#ft96mpc1f5wlp)" height="80" style="stroke: none; stroke-width: 1.0;" width="8" x="952.5" y="277"/><rect fill="#FEFECE" filter="url(#ft96mpc1f5wlp)" height="50" rx="12.5" ry="12.5" style="stroke: #A80036; stroke-width: 1.5;" width="88" x="336" y="344"/><line style="stroke: #A80036; stroke-width: 1.5;" x1="336" x2="424" y1="370.2969" y2="370.2969"/><text fill="#000000" font-family="sans-serif" font-size="14" lengthAdjust="spacingAndGlyphs" textLength="68" x="346" y="361.9951">state_B_1</text><rect fill="#FEFECE" filter="url(#ft96mpc1f5wlp)" height="50" rx="12.5" ry="12.5" style="stroke: #A80036; stroke-width: 1.5;" width="87" x="336.5" y="259"/><line style="stroke: #A80036; stroke-width: 1.5;" x1="336.5" x2="423.5" y1="285.2969" y2="285.2969"/><text fill="#000000" font-family="sans-serif" font-size="14" lengthAdjust="spacingAndGlyphs" textLength="67" x="346.5" y="276.9951">state_A_1</text><rect fill="#FEFECE" filter="url(#ft96mpc1f5wlp)" height="50" rx="12.5" ry="12.5" style="stroke: #A80036; stroke-width: 1.5;" width="88" x="577" y="344"/><line style="stroke: #A80036; stroke-width: 1.5;" x1="577" x2="665" y1="370.2969" y2="370.2969"/><text fill="#000000" font-family="sans-serif" font-size="14" lengthAdjust="spacingAndGlyphs" textLength="68" x="587" y="361.9951">state_B_2</text><rect fill="#FEFECE" filter="url(#ft96mpc1f5wlp)" height="50" rx="12.5" ry="12.5" style="stroke: #A80036; stroke-width: 1.5;" width="87" x="577.5" y="259"/><line style="stroke: #A80036; stroke-width: 1.5;" x1="577.5" x2="664.5" y1="285.2969" y2="285.2969"/><text fill="#000000" font-family="sans-serif" font-size="14" lengthAdjust="spacingAndGlyphs" textLength="67" x="587.5" y="276.9951">state_A_2</text><ellipse cx="141" cy="420" fill="#000000" filter="url(#ft96mpc1f5wlp)" rx="10" ry="10" style="stroke: none; stroke-width: 1.0;"/><ellipse cx="956.5" cy="420" fill="none" filter="url(#ft96mpc1f5wlp)" rx="10" ry="10" style="stroke: #000000; stroke-width: 1.0;"/><ellipse cx="957" cy="420.5" fill="#000000" rx="6" ry="6" style="stroke: none; stroke-width: 1.0;"/><path d="M6,24 L6,223.5938 A0,0 0 0 0 6,223.5938 L137,223.5938 L141,276.666 L145,223.5938 L276,223.5938 A0,0 0 0 0 276,223.5938 L276,34 L266,24 L6,24 A0,0 0 0 0 6,24 " fill="#FCA985" filter="url(#ft96mpc1f5wlp)" style="stroke: #A80036; stroke-width: 1.0;"/><path d="M266,24 L266,34 L276,34 L266,24 " fill="#FCA985" style="stroke: #A80036; stroke-width: 1.0;"/><text fill="#000000" font-family="sans-serif" font-size="13" font-weight="bold" lengthAdjust="spacingAndGlyphs" textLength="72" x="12" y="41.0669">fork node</text><line style="stroke: #A80036; stroke-width: 1.0;" x1="7" x2="275" y1="44.1328" y2="44.1328"/><text fill="#000000" font-family="sans-serif" font-size="13" lengthAdjust="spacingAndGlyphs" textLength="216" x="12" y="60.1997">Hieronder is een fork node te zien</text><text fill="#000000" font-family="sans-serif" font-size="13" lengthAdjust="spacingAndGlyphs" textLength="225" x="12" y="75.3325">een fork node splitst een inkomend</text><text fill="#000000" font-family="sans-serif" font-size="13" lengthAdjust="spacingAndGlyphs" textLength="232" x="12" y="90.4653">pad op in twee of meer losse paden.</text><text fill="#000000" font-family="sans-serif" font-size="13" lengthAdjust="spacingAndGlyphs" textLength="0" x="16" y="105.5981"/><text fill="#000000" font-family="sans-serif" font-size="13" lengthAdjust="spacingAndGlyphs" textLength="223" x="12" y="120.731">De paden uit een fork node mogen</text><text fill="#000000" font-family="sans-serif" font-size="13" lengthAdjust="spacingAndGlyphs" textLength="214" x="12" y="135.8638">geen guards en triggers bevatten</text><text fill="#000000" font-family="sans-serif" font-size="13" lengthAdjust="spacingAndGlyphs" textLength="249" x="12" y="150.9966">omdat het dan zou kunnen voorkomen</text><text fill="#000000" font-family="sans-serif" font-size="13" lengthAdjust="spacingAndGlyphs" textLength="161" x="12" y="166.1294">dat de fork 'blijft hangen'.</text><text fill="#000000" font-family="sans-serif" font-size="13" lengthAdjust="spacingAndGlyphs" textLength="0" x="16" y="181.2622"/><text fill="#000000" font-family="sans-serif" font-size="13" lengthAdjust="spacingAndGlyphs" textLength="227" x="12" y="196.395">De paden (route A &amp; B) uit een fork</text><text fill="#000000" font-family="sans-serif" font-size="13" lengthAdjust="spacingAndGlyphs" textLength="208" x="12" y="211.5278">node worden parallel uitgevoerd.</text><path d="M818,8.5 L818,223.2266 A0,0 0 0 0 818,223.2266 L952.5,223.2266 L956.5,276.957 L960.5,223.2266 L1095,223.2266 A0,0 0 0 0 1095,223.2266 L1095,18.5 L1085,8.5 L818,8.5 A0,0 0 0 0 818,8.5 " fill="#FCA985" filter="url(#ft96mpc1f5wlp)" style="stroke: #A80036; stroke-width: 1.0;"/><path d="M1085,8.5 L1085,18.5 L1095,18.5 L1085,8.5 " fill="#FCA985" style="stroke: #A80036; stroke-width: 1.0;"/><text fill="#000000" font-family="sans-serif" font-size="13" font-weight="bold" lengthAdjust="spacingAndGlyphs" textLength="68" x="824" y="25.5669">join node</text><line style="stroke: #A80036; stroke-width: 1.0;" x1="819" x2="1094" y1="28.6328" y2="28.6328"/><text fill="#000000" font-family="sans-serif" font-size="13" lengthAdjust="spacingAndGlyphs" textLength="256" x="824" y="44.6997">Hieronder is een join node weergegeven</text><text fill="#000000" font-family="sans-serif" font-size="13" lengthAdjust="spacingAndGlyphs" textLength="254" x="824" y="59.8325">een join node combineerd twee of meer</text><text fill="#000000" font-family="sans-serif" font-size="13" lengthAdjust="spacingAndGlyphs" textLength="160" x="824" y="74.9653">paden tot een enkel pad.</text><text fill="#000000" font-family="sans-serif" font-size="13" lengthAdjust="spacingAndGlyphs" textLength="0" x="828" y="90.0981"/><text fill="#000000" font-family="sans-serif" font-size="13" lengthAdjust="spacingAndGlyphs" textLength="232" x="824" y="105.231">Het pad uit een fork node mag geen</text><text fill="#000000" font-family="sans-serif" font-size="13" lengthAdjust="spacingAndGlyphs" textLength="231" x="824" y="120.3638">guard of trigger bevatten omdat het</text><text fill="#000000" font-family="sans-serif" font-size="13" lengthAdjust="spacingAndGlyphs" textLength="214" x="824" y="135.4966">anders mogelijk is dat de join niet</text><text fill="#000000" font-family="sans-serif" font-size="13" lengthAdjust="spacingAndGlyphs" textLength="144" x="824" y="150.6294">uitgevoerd zal worden.</text><text fill="#000000" font-family="sans-serif" font-size="13" lengthAdjust="spacingAndGlyphs" textLength="0" x="828" y="165.7622"/><text fill="#000000" font-family="sans-serif" font-size="13" lengthAdjust="spacingAndGlyphs" textLength="228" x="824" y="180.895">Een join zal pas gepasseerd worden</text><text fill="#000000" font-family="sans-serif" font-size="13" lengthAdjust="spacingAndGlyphs" textLength="54" x="824" y="196.0278">wanneer</text><text fill="#000000" font-family="sans-serif" font-size="13" font-weight="bold" lengthAdjust="spacingAndGlyphs" textLength="26" x="882" y="196.0278">alle</text><text fill="#000000" font-family="sans-serif" font-size="13" lengthAdjust="spacingAndGlyphs" textLength="115" x="912" y="196.0278">inkomende paden</text><text fill="#000000" font-family="sans-serif" font-size="13" lengthAdjust="spacingAndGlyphs" textLength="177" x="824" y="211.1606">bij de join aangekomen zijn.</text><path d="M484,114.5 L484,223.2969 L758,223.2969 L758,124.5 L748,114.5 L484,114.5 " fill="#FCA985" filter="url(#ft96mpc1f5wlp)" style="stroke: #A80036; stroke-width: 1.0;"/><path d="M748,114.5 L748,124.5 L758,124.5 L748,114.5 " fill="#FCA985" style="stroke: #A80036; stroke-width: 1.0;"/><text fill="#000000" font-family="sans-serif" font-size="13" font-weight="bold" lengthAdjust="spacingAndGlyphs" textLength="69" x="490" y="131.5669">fork path</text><line style="stroke: #A80036; stroke-width: 1.0;" x1="485" x2="757" y1="134.6328" y2="134.6328"/><text fill="#000000" font-family="sans-serif" font-size="13" lengthAdjust="spacingAndGlyphs" textLength="216" x="490" y="150.6997">een afgevorkt pad zal parallel aan</text><text fill="#000000" font-family="sans-serif" font-size="13" lengthAdjust="spacingAndGlyphs" textLength="253" x="490" y="165.8325">de andere afgevorkte paden uitgevoerd</text><text fill="#000000" font-family="sans-serif" font-size="13" lengthAdjust="spacingAndGlyphs" textLength="50" x="490" y="180.9653">worden.</text><text fill="#000000" font-family="sans-serif" font-size="13" lengthAdjust="spacingAndGlyphs" textLength="222" x="490" y="196.0981">in dit voorbeeld zal pad A en pad B</text><text fill="#000000" font-family="sans-serif" font-size="13" lengthAdjust="spacingAndGlyphs" textLength="215" x="490" y="211.231">dus gelijktijdig uitgevoerd worden.</text><!--MD5=[e3ee13143ae830045e1567ffe67a412d]
link fork_state to state_B_1--><path d="M145.1483,317.9026 C166.8229,322.6184 268.4316,344.7257 330.6831,358.27 " fill="none" id="fork_state-&gt;state_B_1" style="stroke: #A80036; stroke-width: 1.0;"/><polygon fill="#A80036" points="335.8373,359.3914,327.8934,353.5694,330.9516,358.3284,326.1926,361.3866,335.8373,359.3914" style="stroke: #A80036; stroke-width: 1.0;"/><!--MD5=[b8f6c8671fd6776c74c853f89df6f415]
link fork_state to state_A_1--><path d="M145.1483,316.4272 C166.8831,313.4262 268.9975,299.3267 331.2017,290.7378 " fill="none" id="fork_state-&gt;state_A_1" style="stroke: #A80036; stroke-width: 1.0;"/><polygon fill="#A80036" points="336.3505,290.0269,326.8879,287.2957,331.3975,290.7109,327.9823,295.2205,336.3505,290.0269" style="stroke: #A80036; stroke-width: 1.0;"/><!--MD5=[de612ebffe1d2a75aaa5f0cf17540aca]
link state_B_1 to state_B_2--><path d="M424.2031,369 C465.8581,369 528.177,369 571.4851,369 " fill="none" id="state_B_1-&gt;state_B_2" style="stroke: #A80036; stroke-width: 1.0;"/><polygon fill="#A80036" points="576.6697,369,567.6697,365,571.6697,369,567.6697,373,576.6697,369" style="stroke: #A80036; stroke-width: 1.0;"/><!--MD5=[ee0e9cce3207d894342b7aefac5ffd1b]
link state_A_1 to state_A_2--><path d="M423.6433,284 C465.4841,284 528.5427,284 572.0666,284 " fill="none" id="state_A_1-&gt;state_A_2" style="stroke: #A80036; stroke-width: 1.0;"/><polygon fill="#A80036" points="577.2749,284,568.2749,280,572.2749,284,568.2749,288,577.2749,284" style="stroke: #A80036; stroke-width: 1.0;"/><!--MD5=[ea225161ec71243513abc696e7fbf687]
link state_B_2 to join_state--><path d="M665.2058,362.1484 C744.5759,349.8467 906.7463,324.7115 947.1999,318.4415 " fill="none" id="state_B_2-&gt;join_state" style="stroke: #A80036; stroke-width: 1.0;"/><polygon fill="#A80036" points="952.2609,317.657,942.7543,315.083,947.3199,318.423,943.9799,322.9886,952.2609,317.657" style="stroke: #A80036; stroke-width: 1.0;"/><!--MD5=[635395428654e85be1a6ac86e21568ba]
link state_A_2 to join_state--><path d="M664.5168,288.2803 C743.6041,296.0594 906.5074,312.0827 947.1544,316.0808 " fill="none" id="state_A_2-&gt;join_state" style="stroke: #A80036; stroke-width: 1.0;"/><polygon fill="#A80036" points="952.2399,316.581,943.6748,311.719,947.2639,316.0914,942.8915,319.6805,952.2399,316.581" style="stroke: #A80036; stroke-width: 1.0;"/><!--MD5=[242ad121cef04112e9b0ee8f25f52375]
link *start to fork_state--><path d="M141,409.9414 C141,394.176 141,378.4107 141,362.6453 " fill="none" id="*start-&gt;fork_state" style="stroke: #A80036; stroke-width: 1.0;"/><polygon fill="#A80036" points="141,357.2988,137,366.2988,141,362.2988,145,366.2988,141,357.2988" style="stroke: #A80036; stroke-width: 1.0;"/><!--MD5=[9cbf5e8d39bc63d9904c5182bc5b5d62]
reverse link *end to join_state--><path d="M956.5,404.5949 C956.5,388.8295 956.5,373.0642 956.5,357.2988 " fill="none" id="*end&lt;-join_state" style="stroke: #A80036; stroke-width: 1.0;"/><polygon fill="#A80036" points="956.5,409.9414,960.5,400.9414,956.5,404.9414,952.5,400.9414,956.5,409.9414" style="stroke: #A80036; stroke-width: 1.0;"/><!--MD5=[b8182a360a86646d0fbb3e8ca46b0ffb]
reverse link state_B_2 to n1--><!--MD5=[3fac55f1aa3358a59cfdace812c47385]
@startuml

left to right direction

state s1 as "**fork and join**"{
    state fork_state <<fork>>
    state join_state <<join>>

    fork_state - -> state_B_1
    fork_state - -> state_A_1

    state_B_1 - -> state_B_2
    state_A_1 - -> state_A_2

    state_B_2 - -> join_state
    state_A_2 - -> join_state
}
[*] -> fork_state
join_state -left-> [*]

note bottom of fork_state #FCA985
    **fork node**
    - -
    Hieronder is een fork node te zien
    een fork node splitst een inkomend
    pad op in twee of meer losse paden.

    De paden uit een fork node mogen
    geen guards en triggers bevatten
    omdat het dan zou kunnen voorkomen
    dat de fork 'blijft hangen'.

    De paden (route A & B) uit een fork
    node worden parallel uitgevoerd.
end note

note bottom of join_state #FCA985
    **join node**
    - -
    Hieronder is een join node weergegeven
    een join node combineerd twee of meer
    paden tot een enkel pad.

    Het pad uit een fork node mag geen
    guard of trigger bevatten omdat het
    anders mogelijk is dat de join niet
    uitgevoerd zal worden.

    Een join zal pas gepasseerd worden
    wanneer **alle** inkomende paden
    bij de join aangekomen zijn.
end note

note as n1 #FCA985
    **fork path**
    - -
    een afgevorkt pad zal parallel aan
    de andere afgevorkte paden uitgevoerd
    worden.
    in dit voorbeeld zal pad A en pad B
    dus gelijktijdig uitgevoerd worden.
end note
n1 -[hidden]left-> state_B_2

@enduml

PlantUML version 1.2020.06(Sun Apr 05 12:38:32 GMT 2020)
(GPL source distribution)
Java Runtime: OpenJDK Runtime Environment
JVM: OpenJDK 64-Bit Server VM
Java Version: 14-ea+33
Operating System: Linux
Default Encoding: UTF-8
Language: en
Country: US
--></g></svg>