<?xml version="1.0" encoding="UTF-8" standalone="no"?><svg xmlns="http://www.w3.org/2000/svg" xmlns:xlink="http://www.w3.org/1999/xlink" contentScriptType="application/ecmascript" contentStyleType="text/css" height="377px" preserveAspectRatio="none" style="width:1266px;height:377px;" version="1.1" viewBox="0 0 1266 377" width="1266px" zoomAndPan="magnify"><defs><filter height="300%" id="fwhsbx8i2dxax" width="300%" x="-1" y="-1"><feGaussianBlur result="blurOut" stdDeviation="2.0"/><feColorMatrix in="blurOut" result="blurOut2" type="matrix" values="0 0 0 0 0 0 0 0 0 0 0 0 0 0 0 0 0 0 .4 0"/><feOffset dx="4.0" dy="4.0" in="blurOut2" result="blurOut3"/><feBlend in="SourceGraphic" in2="blurOut3" mode="normal"/></filter></defs><g><rect fill="#000000" filter="url(#fwhsbx8i2dxax)" height="80" style="stroke: none; stroke-width: 1.0;" width="8" x="217" y="259"/><rect fill="#000000" filter="url(#fwhsbx8i2dxax)" height="80" style="stroke: none; stroke-width: 1.0;" width="8" x="1032.5" y="259"/><rect fill="#FEFECE" filter="url(#fwhsbx8i2dxax)" height="50" rx="12.5" ry="12.5" style="stroke: #A80036; stroke-width: 1.5;" width="88" x="509" y="231"/><line style="stroke: #A80036; stroke-width: 1.5;" x1="509" x2="597" y1="257.2969" y2="257.2969"/><text fill="#000000" font-family="sans-serif" font-size="14" lengthAdjust="spacingAndGlyphs" textLength="68" x="519" y="248.9951">state_B_1</text><rect fill="#FEFECE" filter="url(#fwhsbx8i2dxax)" height="50" rx="12.5" ry="12.5" style="stroke: #A80036; stroke-width: 1.5;" width="87" x="509.5" y="316"/><line style="stroke: #A80036; stroke-width: 1.5;" x1="509.5" x2="596.5" y1="342.2969" y2="342.2969"/><text fill="#000000" font-family="sans-serif" font-size="14" lengthAdjust="spacingAndGlyphs" textLength="67" x="519.5" y="333.9951">state_A_1</text><rect fill="#FEFECE" filter="url(#fwhsbx8i2dxax)" height="50" rx="12.5" ry="12.5" style="stroke: #A80036; stroke-width: 1.5;" width="88" x="750" y="231"/><line style="stroke: #A80036; stroke-width: 1.5;" x1="750" x2="838" y1="257.2969" y2="257.2969"/><text fill="#000000" font-family="sans-serif" font-size="14" lengthAdjust="spacingAndGlyphs" textLength="68" x="760" y="248.9951">state_B_2</text><rect fill="#FEFECE" filter="url(#fwhsbx8i2dxax)" height="50" rx="12.5" ry="12.5" style="stroke: #A80036; stroke-width: 1.5;" width="87" x="750.5" y="316"/><line style="stroke: #A80036; stroke-width: 1.5;" x1="750.5" x2="837.5" y1="342.2969" y2="342.2969"/><text fill="#000000" font-family="sans-serif" font-size="14" lengthAdjust="spacingAndGlyphs" textLength="67" x="760.5" y="333.9951">state_A_2</text><ellipse cx="16" cy="299" fill="#000000" filter="url(#fwhsbx8i2dxax)" rx="10" ry="10" style="stroke: none; stroke-width: 1.0;"/><ellipse cx="1245" cy="299" fill="none" filter="url(#fwhsbx8i2dxax)" rx="10" ry="10" style="stroke: #000000; stroke-width: 1.0;"/><ellipse cx="1245.5" cy="299.5" fill="#000000" rx="6" ry="6" style="stroke: none; stroke-width: 1.0;"/><path d="M86,24 L86,223.5938 A0,0 0 0 0 86,223.5938 L217,223.5938 L221,258.668 L225,223.5938 L356,223.5938 A0,0 0 0 0 356,223.5938 L356,34 L346,24 L86,24 A0,0 0 0 0 86,24 " fill="#FCA985" filter="url(#fwhsbx8i2dxax)" style="stroke: #A80036; stroke-width: 1.0;"/><path d="M346,24 L346,34 L356,34 L346,24 " fill="#FCA985" style="stroke: #A80036; stroke-width: 1.0;"/><text fill="#000000" font-family="sans-serif" font-size="13" font-weight="bold" lengthAdjust="spacingAndGlyphs" textLength="72" x="92" y="41.0669">fork node</text><line style="stroke: #A80036; stroke-width: 1.0;" x1="87" x2="355" y1="44.1328" y2="44.1328"/><text fill="#000000" font-family="sans-serif" font-size="13" lengthAdjust="spacingAndGlyphs" textLength="216" x="92" y="60.1997">Hieronder is een fork node te zien</text><text fill="#000000" font-family="sans-serif" font-size="13" lengthAdjust="spacingAndGlyphs" textLength="225" x="92" y="75.3325">een fork node splitst een inkomend</text><text fill="#000000" font-family="sans-serif" font-size="13" lengthAdjust="spacingAndGlyphs" textLength="232" x="92" y="90.4653">pad op in twee of meer losse paden.</text><text fill="#000000" font-family="sans-serif" font-size="13" lengthAdjust="spacingAndGlyphs" textLength="0" x="96" y="105.5981"/><text fill="#000000" font-family="sans-serif" font-size="13" lengthAdjust="spacingAndGlyphs" textLength="223" x="92" y="120.731">De paden uit een fork node mogen</text><text fill="#000000" font-family="sans-serif" font-size="13" lengthAdjust="spacingAndGlyphs" textLength="214" x="92" y="135.8638">geen guards en triggers bevatten</text><text fill="#000000" font-family="sans-serif" font-size="13" lengthAdjust="spacingAndGlyphs" textLength="249" x="92" y="150.9966">omdat het dan zou kunnen voorkomen</text><text fill="#000000" font-family="sans-serif" font-size="13" lengthAdjust="spacingAndGlyphs" textLength="161" x="92" y="166.1294">dat de fork 'blijft hangen'.</text><text fill="#000000" font-family="sans-serif" font-size="13" lengthAdjust="spacingAndGlyphs" textLength="0" x="96" y="181.2622"/><text fill="#000000" font-family="sans-serif" font-size="13" lengthAdjust="spacingAndGlyphs" textLength="227" x="92" y="196.395">De paden (route A &amp; B) uit een fork</text><text fill="#000000" font-family="sans-serif" font-size="13" lengthAdjust="spacingAndGlyphs" textLength="208" x="92" y="211.5278">node worden parallel uitgevoerd.</text><path d="M898,8.5 L898,223.2266 A0,0 0 0 0 898,223.2266 L1032.5,223.2266 L1036.5,258.9687 L1040.5,223.2266 L1175,223.2266 A0,0 0 0 0 1175,223.2266 L1175,18.5 L1165,8.5 L898,8.5 A0,0 0 0 0 898,8.5 " fill="#FCA985" filter="url(#fwhsbx8i2dxax)" style="stroke: #A80036; stroke-width: 1.0;"/><path d="M1165,8.5 L1165,18.5 L1175,18.5 L1165,8.5 " fill="#FCA985" style="stroke: #A80036; stroke-width: 1.0;"/><text fill="#000000" font-family="sans-serif" font-size="13" font-weight="bold" lengthAdjust="spacingAndGlyphs" textLength="68" x="904" y="25.5669">join node</text><line style="stroke: #A80036; stroke-width: 1.0;" x1="899" x2="1174" y1="28.6328" y2="28.6328"/><text fill="#000000" font-family="sans-serif" font-size="13" lengthAdjust="spacingAndGlyphs" textLength="256" x="904" y="44.6997">Hieronder is een join node weergegeven</text><text fill="#000000" font-family="sans-serif" font-size="13" lengthAdjust="spacingAndGlyphs" textLength="254" x="904" y="59.8325">een join node combineerd twee of meer</text><text fill="#000000" font-family="sans-serif" font-size="13" lengthAdjust="spacingAndGlyphs" textLength="160" x="904" y="74.9653">paden tot een enkel pad.</text><text fill="#000000" font-family="sans-serif" font-size="13" lengthAdjust="spacingAndGlyphs" textLength="0" x="908" y="90.0981"/><text fill="#000000" font-family="sans-serif" font-size="13" lengthAdjust="spacingAndGlyphs" textLength="232" x="904" y="105.231">Het pad uit een fork node mag geen</text><text fill="#000000" font-family="sans-serif" font-size="13" lengthAdjust="spacingAndGlyphs" textLength="231" x="904" y="120.3638">guard of trigger bevatten omdat het</text><text fill="#000000" font-family="sans-serif" font-size="13" lengthAdjust="spacingAndGlyphs" textLength="214" x="904" y="135.4966">anders mogelijk is dat de join niet</text><text fill="#000000" font-family="sans-serif" font-size="13" lengthAdjust="spacingAndGlyphs" textLength="144" x="904" y="150.6294">uitgevoerd zal worden.</text><text fill="#000000" font-family="sans-serif" font-size="13" lengthAdjust="spacingAndGlyphs" textLength="0" x="908" y="165.7622"/><text fill="#000000" font-family="sans-serif" font-size="13" lengthAdjust="spacingAndGlyphs" textLength="228" x="904" y="180.895">Een join zal pas gepasseerd worden</text><text fill="#000000" font-family="sans-serif" font-size="13" lengthAdjust="spacingAndGlyphs" textLength="54" x="904" y="196.0278">wanneer</text><text fill="#000000" font-family="sans-serif" font-size="13" font-weight="bold" lengthAdjust="spacingAndGlyphs" textLength="26" x="962" y="196.0278">alle</text><text fill="#000000" font-family="sans-serif" font-size="13" lengthAdjust="spacingAndGlyphs" textLength="115" x="992" y="196.0278">inkomende paden</text><text fill="#000000" font-family="sans-serif" font-size="13" lengthAdjust="spacingAndGlyphs" textLength="177" x="904" y="211.1606">bij de join aangekomen zijn.</text><path d="M416,86.5 L416,195.2969 L690,195.2969 L690,96.5 L680,86.5 L416,86.5 " fill="#FCA985" filter="url(#fwhsbx8i2dxax)" style="stroke: #A80036; stroke-width: 1.0;"/><path d="M680,86.5 L680,96.5 L690,96.5 L680,86.5 " fill="#FCA985" style="stroke: #A80036; stroke-width: 1.0;"/><text fill="#000000" font-family="sans-serif" font-size="13" font-weight="bold" lengthAdjust="spacingAndGlyphs" textLength="69" x="422" y="103.5669">fork path</text><line style="stroke: #A80036; stroke-width: 1.0;" x1="417" x2="689" y1="106.6328" y2="106.6328"/><text fill="#000000" font-family="sans-serif" font-size="13" lengthAdjust="spacingAndGlyphs" textLength="216" x="422" y="122.6997">een afgevorkt pad zal parallel aan</text><text fill="#000000" font-family="sans-serif" font-size="13" lengthAdjust="spacingAndGlyphs" textLength="253" x="422" y="137.8325">de andere afgevorkte paden uitgevoerd</text><text fill="#000000" font-family="sans-serif" font-size="13" lengthAdjust="spacingAndGlyphs" textLength="50" x="422" y="152.9653">worden.</text><text fill="#000000" font-family="sans-serif" font-size="13" lengthAdjust="spacingAndGlyphs" textLength="222" x="422" y="168.0981">in dit voorbeeld zal pad A en pad B</text><text fill="#000000" font-family="sans-serif" font-size="13" lengthAdjust="spacingAndGlyphs" textLength="215" x="422" y="183.231">dus gelijktijdig uitgevoerd worden.</text><!--MD5=[e3ee13143ae830045e1567ffe67a412d]
link fork_state to state_B_1--><path d="M225.1977,298.4563 C253.6144,294.7758 419.2228,273.3266 503.6075,262.3972 " fill="none" id="fork_state-&gt;state_B_1" style="stroke: #A80036; stroke-width: 1.0;"/><polygon fill="#A80036" points="508.799,261.7248,499.3597,258.9143,503.8404,262.3672,500.3875,266.848,508.799,261.7248" style="stroke: #A80036; stroke-width: 1.0;"/><!--MD5=[b8f6c8671fd6776c74c853f89df6f415]
link fork_state to state_A_1--><path d="M225.1977,299.531 C253.6879,303.1352 420.0807,324.1849 504.2609,334.8342 " fill="none" id="fork_state-&gt;state_A_1" style="stroke: #A80036; stroke-width: 1.0;"/><polygon fill="#A80036" points="509.4382,335.4892,501.0114,330.3912,504.4777,334.8616,500.0073,338.3279,509.4382,335.4892" style="stroke: #A80036; stroke-width: 1.0;"/><!--MD5=[de612ebffe1d2a75aaa5f0cf17540aca]
link state_B_1 to state_B_2--><path d="M597.2031,256 C638.8581,256 701.177,256 744.4851,256 " fill="none" id="state_B_1-&gt;state_B_2" style="stroke: #A80036; stroke-width: 1.0;"/><polygon fill="#A80036" points="749.6697,256,740.6697,252,744.6697,256,740.6697,260,749.6697,256" style="stroke: #A80036; stroke-width: 1.0;"/><!--MD5=[ee0e9cce3207d894342b7aefac5ffd1b]
link state_A_1 to state_A_2--><path d="M596.6433,341 C638.4841,341 701.5427,341 745.0666,341 " fill="none" id="state_A_1-&gt;state_A_2" style="stroke: #A80036; stroke-width: 1.0;"/><polygon fill="#A80036" points="750.2749,341,741.2749,337,745.2749,341,741.2749,345,750.2749,341" style="stroke: #A80036; stroke-width: 1.0;"/><!--MD5=[ea225161ec71243513abc696e7fbf687]
link state_B_2 to join_state--><path d="M838.1963,263.8369 C896.854,274.238 996.593,291.9237 1027.2566,297.361 " fill="none" id="state_B_2-&gt;join_state" style="stroke: #A80036; stroke-width: 1.0;"/><polygon fill="#A80036" points="1032.4357,298.2793,1024.2723,292.7694,1027.5125,297.4063,1022.8756,300.6465,1032.4357,298.2793" style="stroke: #A80036; stroke-width: 1.0;"/><!--MD5=[635395428654e85be1a6ac86e21568ba]
link state_A_2 to join_state--><path d="M837.6342,333.4427 C896.1846,323.3021 996.3916,305.9466 1027.209,300.6092 " fill="none" id="state_A_2-&gt;join_state" style="stroke: #A80036; stroke-width: 1.0;"/><polygon fill="#A80036" points="1032.4144,299.7076,1022.8638,297.3022,1027.4877,300.5609,1024.229,305.1848,1032.4144,299.7076" style="stroke: #A80036; stroke-width: 1.0;"/><!--MD5=[242ad121cef04112e9b0ee8f25f52375]
link *start to fork_state--><path d="M26.166,299 C61.3042,299 177.3373,299 211.4736,299 " fill="none" id="*start-&gt;fork_state" style="stroke: #A80036; stroke-width: 1.0;"/><polygon fill="#A80036" points="216.8565,299,207.8565,295,211.8565,299,207.8565,303,216.8565,299" style="stroke: #A80036; stroke-width: 1.0;"/><!--MD5=[afabed5d69869b60cd0a02386788f0d9]
link join_state to *end--><path d="M1040.8548,299 C1065.362,299 1186.5187,299 1229.6894,299 " fill="none" id="join_state-&gt;*end" style="stroke: #A80036; stroke-width: 1.0;"/><polygon fill="#A80036" points="1234.787,299,1225.787,295,1229.787,299,1225.787,303,1234.787,299" style="stroke: #A80036; stroke-width: 1.0;"/><!--MD5=[7578e23d027105b1244fc4504f0f2141]
link n3 to state_B_1--><path d="M553,195.7485 C553,205.7105 553,215.6724 553,225.6343 " fill="none" id="n3-&gt;state_B_1" style="stroke: #A80036; stroke-width: 1.0;"/><polygon fill="#A80036" points="553,230.8437,557,221.8437,553,225.8437,549,221.8437,553,230.8437" style="stroke: #A80036; stroke-width: 1.0;"/><!--MD5=[5840fc92880af0cbc7397e30fc1bbcc1]
link n3 to state_B_2--><path d="M667.5007,195.6373 C694.8263,208.6764 722.5642,221.9124 745.0752,232.6541 " fill="none" id="n3-&gt;state_B_2" style="stroke: #A80036; stroke-width: 1.0;"/><polygon fill="#A80036" points="749.7974,234.9075,743.3974,227.4215,745.2848,232.7542,739.9521,234.6416,749.7974,234.9075" style="stroke: #A80036; stroke-width: 1.0;"/><!--MD5=[bd14966ceafe1d70727371fab3aa10df]
@startuml

left to right direction

state fork_state <<fork>>
state join_state <<join>>

fork_state - -> state_B_1
fork_state - -> state_A_1

state_B_1 - -> state_B_2
state_A_1 - -> state_A_2

state_B_2 - -> join_state
state_A_2 - -> join_state

[*] - -> fork_state
join_state - -> [*]

note as n1 #FCA985
    **fork node**
    - -
    Hieronder is een fork node te zien
    een fork node splitst een inkomend
    pad op in twee of meer losse paden.

    De paden uit een fork node mogen
    geen guards en triggers bevatten
    omdat het dan zou kunnen voorkomen
    dat de fork 'blijft hangen'.

    De paden (route A & B) uit een fork
    node worden parallel uitgevoerd.
end note

note as n2 #FCA985
    **join node**
    - -
    Hieronder is een join node weergegeven
    een join node combineerd twee of meer
    paden tot een enkel pad.

    Het pad uit een fork node mag geen
    guard of trigger bevatten omdat het
    anders mogelijk is dat de join niet
    uitgevoerd zal worden.

    Een join zal pas gepasseerd worden
    wanneer **alle** inkomende paden
    bij de join aangekomen zijn.
end note

note as n3 #FCA985
    **fork path**
    - -
    een afgevorkt pad zal parallel aan
    de andere afgevorkte paden uitgevoerd
    worden.
    in dit voorbeeld zal pad A en pad B
    dus gelijktijdig uitgevoerd worden.
end note

n1 -right-> fork_state
n2 -right-> join_state

n3 -right-> state_B_1
n3 -right-> state_B_2

@enduml

PlantUML version 1.2020.06(Sun Apr 05 12:38:32 GMT 2020)
(GPL source distribution)
Java Runtime: OpenJDK Runtime Environment
JVM: OpenJDK 64-Bit Server VM
Java Version: 14-ea+33
Operating System: Linux
Default Encoding: UTF-8
Language: en
Country: US
--></g></svg>