<?xml version="1.0" encoding="UTF-8" standalone="no"?><svg xmlns="http://www.w3.org/2000/svg" xmlns:xlink="http://www.w3.org/1999/xlink" contentScriptType="application/ecmascript" contentStyleType="text/css" height="527px" preserveAspectRatio="none" style="width:1172px;height:527px;" version="1.1" viewBox="0 0 1172 527" width="1172px" zoomAndPan="magnify"><defs><filter height="300%" id="f1xwg6sgel5902" width="300%" x="-1" y="-1"><feGaussianBlur result="blurOut" stdDeviation="2.0"/><feColorMatrix in="blurOut" result="blurOut2" type="matrix" values="0 0 0 0 0 0 0 0 0 0 0 0 0 0 0 0 0 0 .4 0"/><feOffset dx="4.0" dy="4.0" in="blurOut2" result="blurOut3"/><feBlend in="SourceGraphic" in2="blurOut3" mode="normal"/></filter></defs><g><ellipse cx="16" cy="315" fill="#000000" filter="url(#f1xwg6sgel5902)" rx="10" ry="10" style="stroke: none; stroke-width: 1.0;"/><ellipse cx="1151" cy="315" fill="none" filter="url(#f1xwg6sgel5902)" rx="10" ry="10" style="stroke: #000000; stroke-width: 1.0;"/><ellipse cx="1151.5" cy="315.5" fill="#000000" rx="6" ry="6" style="stroke: none; stroke-width: 1.0;"/><path d="M58,429.5 L58,508.0313 A0,0 0 0 0 58,508.0313 L244,508.0313 A0,0 0 0 0 244,508.0313 L244,439.5 L234,429.5 L213.2029,429.5 L309.1925,361.2051 L205.2029,429.5 L58,429.5 A0,0 0 0 0 58,429.5 " fill="#FCA985" filter="url(#f1xwg6sgel5902)" style="stroke: #A80036; stroke-width: 1.0;"/><path d="M234,429.5 L234,439.5 L244,439.5 L234,429.5 " fill="#FCA985" style="stroke: #A80036; stroke-width: 1.0;"/><text fill="#000000" font-family="sans-serif" font-size="13" font-weight="bold" lengthAdjust="spacingAndGlyphs" textLength="43" x="64" y="446.5669">entry:</text><line style="stroke: #A80036; stroke-width: 1.0;" x1="59" x2="243" y1="449.6328" y2="449.6328"/><text fill="#000000" font-family="sans-serif" font-size="13" lengthAdjust="spacingAndGlyphs" textLength="141" x="64" y="465.6997">Activiteit die eenmalig</text><text fill="#000000" font-family="sans-serif" font-size="13" lengthAdjust="spacingAndGlyphs" textLength="165" x="64" y="480.8325">uitgevoerd wordt wanneer</text><text fill="#000000" font-family="sans-serif" font-size="13" lengthAdjust="spacingAndGlyphs" textLength="135" x="64" y="495.9653">de state actief wordt.</text><path d="M279,429.5 L279,508.0313 A0,0 0 0 0 279,508.0313 L475,508.0313 A0,0 0 0 0 475,508.0313 L475,439.5 L465,429.5 L381,429.5 L377,361.2051 L373,429.5 L279,429.5 A0,0 0 0 0 279,429.5 " fill="#FCA985" filter="url(#f1xwg6sgel5902)" style="stroke: #A80036; stroke-width: 1.0;"/><path d="M465,429.5 L465,439.5 L475,439.5 L465,429.5 " fill="#FCA985" style="stroke: #A80036; stroke-width: 1.0;"/><text fill="#000000" font-family="sans-serif" font-size="13" font-weight="bold" lengthAdjust="spacingAndGlyphs" textLength="24" x="285" y="446.5669">do:</text><line style="stroke: #A80036; stroke-width: 1.0;" x1="280" x2="474" y1="449.6328" y2="449.6328"/><text fill="#000000" font-family="sans-serif" font-size="13" lengthAdjust="spacingAndGlyphs" textLength="137" x="285" y="465.6997">Activiteit die continue</text><text fill="#000000" font-family="sans-serif" font-size="13" lengthAdjust="spacingAndGlyphs" textLength="154" x="285" y="480.8325">uitgevoerd wordt tot dat</text><text fill="#000000" font-family="sans-serif" font-size="13" lengthAdjust="spacingAndGlyphs" textLength="175" x="285" y="495.9653">de exit aangeroepen wordt.</text><path d="M510,422 L510,515.6641 A0,0 0 0 0 510,515.6641 L708,515.6641 A0,0 0 0 0 708,515.6641 L708,432 L698,422 L541.8355,422 L446.6076,361.2051 L533.8355,422 L510,422 A0,0 0 0 0 510,422 " fill="#FCA985" filter="url(#f1xwg6sgel5902)" style="stroke: #A80036; stroke-width: 1.0;"/><path d="M698,422 L698,432 L708,432 L698,422 " fill="#FCA985" style="stroke: #A80036; stroke-width: 1.0;"/><text fill="#000000" font-family="sans-serif" font-size="13" font-weight="bold" lengthAdjust="spacingAndGlyphs" textLength="32" x="516" y="439.0669">exit:</text><line style="stroke: #A80036; stroke-width: 1.0;" x1="511" x2="707" y1="442.1328" y2="442.1328"/><text fill="#000000" font-family="sans-serif" font-size="13" lengthAdjust="spacingAndGlyphs" textLength="150" x="516" y="458.1997">Activiteit die uitgevoerd</text><text fill="#000000" font-family="sans-serif" font-size="13" lengthAdjust="spacingAndGlyphs" textLength="177" x="516" y="473.3325">wordt wanneer een transitie</text><text fill="#000000" font-family="sans-serif" font-size="13" lengthAdjust="spacingAndGlyphs" textLength="143" x="516" y="488.4653">naar een andere state</text><text fill="#000000" font-family="sans-serif" font-size="13" lengthAdjust="spacingAndGlyphs" textLength="114" x="516" y="503.5981">ge-triggerd wordt.</text><path d="M446.5,76.5 L446.5,139.8984 A0,0 0 0 0 446.5,139.8984 L579.7121,139.8984 L733.3727,268.7465 L587.7121,139.8984 L647.5,139.8984 A0,0 0 0 0 647.5,139.8984 L647.5,86.5 L637.5,76.5 L446.5,76.5 A0,0 0 0 0 446.5,76.5 " fill="#FCA985" filter="url(#f1xwg6sgel5902)" style="stroke: #A80036; stroke-width: 1.0;"/><path d="M637.5,76.5 L637.5,86.5 L647.5,86.5 L637.5,76.5 " fill="#FCA985" style="stroke: #A80036; stroke-width: 1.0;"/><text fill="#000000" font-family="sans-serif" font-size="13" font-weight="bold" lengthAdjust="spacingAndGlyphs" textLength="84" x="452.5" y="93.5669">state naam</text><line style="stroke: #A80036; stroke-width: 1.0;" x1="447.5" x2="646.5" y1="96.6328" y2="96.6328"/><text fill="#000000" font-family="sans-serif" font-size="13" lengthAdjust="spacingAndGlyphs" textLength="180" x="452.5" y="112.6997">Geeft de naam van de state</text><text fill="#000000" font-family="sans-serif" font-size="13" lengthAdjust="spacingAndGlyphs" textLength="34" x="452.5" y="127.8325">weer.</text><path d="M683,23.5 L683,192.8281 A0,0 0 0 0 683,192.8281 L783,192.8281 L787,268.8581 L791,192.8281 L891,192.8281 A0,0 0 0 0 891,192.8281 L891,33.5 L881,23.5 L683,23.5 A0,0 0 0 0 683,23.5 " fill="#FCA985" filter="url(#f1xwg6sgel5902)" style="stroke: #A80036; stroke-width: 1.0;"/><path d="M881,23.5 L881,33.5 L891,33.5 L881,23.5 " fill="#FCA985" style="stroke: #A80036; stroke-width: 1.0;"/><text fill="#000000" font-family="sans-serif" font-size="13" font-weight="bold" lengthAdjust="spacingAndGlyphs" textLength="128" x="689" y="40.5669">deferable trigger</text><line style="stroke: #A80036; stroke-width: 1.0;" x1="684" x2="890" y1="43.6328" y2="43.6328"/><text fill="#000000" font-family="sans-serif" font-size="13" lengthAdjust="spacingAndGlyphs" textLength="187" x="689" y="59.6997">Een bepaalde evenement die</text><text fill="#000000" font-family="sans-serif" font-size="13" lengthAdjust="spacingAndGlyphs" textLength="146" x="689" y="74.8325">geen transitie triggerd.</text><text fill="#000000" font-family="sans-serif" font-size="13" lengthAdjust="spacingAndGlyphs" textLength="0" x="693" y="89.9653"/><text fill="#000000" font-family="sans-serif" font-size="13" lengthAdjust="spacingAndGlyphs" textLength="181" x="689" y="105.0981">Wanneer er een defer plaats</text><text fill="#000000" font-family="sans-serif" font-size="13" lengthAdjust="spacingAndGlyphs" textLength="164" x="689" y="120.231">vindt zal deze in de wacht</text><text fill="#000000" font-family="sans-serif" font-size="13" lengthAdjust="spacingAndGlyphs" textLength="90" x="689" y="135.3638">gezet worden.</text><text fill="#000000" font-family="sans-serif" font-size="13" lengthAdjust="spacingAndGlyphs" textLength="177" x="689" y="150.4966">Wanneer een state transitie</text><text fill="#000000" font-family="sans-serif" font-size="13" lengthAdjust="spacingAndGlyphs" textLength="159" x="689" y="165.6294">plaatsvind zal deze defer</text><text fill="#000000" font-family="sans-serif" font-size="13" lengthAdjust="spacingAndGlyphs" textLength="122" x="689" y="180.7622">uitgevoerd worden.</text><path d="M926.5,8 L926.5,196.9037 L843.4725,268.7953 L926.5,204.9037 L926.5,207.5938 A0,0 0 0 0 926.5,207.5938 L1153.5,207.5938 A0,0 0 0 0 1153.5,207.5938 L1153.5,18 L1143.5,8 L926.5,8 A0,0 0 0 0 926.5,8 " fill="#FCA985" filter="url(#f1xwg6sgel5902)" style="stroke: #A80036; stroke-width: 1.0;"/><path d="M1143.5,8 L1143.5,18 L1153.5,18 L1143.5,8 " fill="#FCA985" style="stroke: #A80036; stroke-width: 1.0;"/><text fill="#000000" font-family="sans-serif" font-size="13" font-weight="bold" lengthAdjust="spacingAndGlyphs" textLength="72" x="932.5" y="25.0669">terminate</text><line style="stroke: #A80036; stroke-width: 1.0;" x1="927.5" x2="1152.5" y1="28.1328" y2="28.1328"/><text fill="#000000" font-family="sans-serif" font-size="13" lengthAdjust="spacingAndGlyphs" textLength="178" x="932.5" y="44.1997">Wanneer er een evenement</text><text fill="#000000" font-family="sans-serif" font-size="13" lengthAdjust="spacingAndGlyphs" textLength="206" x="932.5" y="59.3325">plaats heeft gevonden waardoor</text><text fill="#000000" font-family="sans-serif" font-size="13" lengthAdjust="spacingAndGlyphs" textLength="192" x="932.5" y="74.4653">de statemachine vroegtijdig is</text><text fill="#000000" font-family="sans-serif" font-size="13" lengthAdjust="spacingAndGlyphs" textLength="71" x="932.5" y="89.5981">afgesloten.</text><text fill="#000000" font-family="sans-serif" font-size="13" lengthAdjust="spacingAndGlyphs" textLength="193" x="932.5" y="104.731">Terminate wordt weergegeven</text><text fill="#000000" font-family="sans-serif" font-size="13" lengthAdjust="spacingAndGlyphs" textLength="187" x="932.5" y="119.8638">doormiddel van een pijl vanaf</text><text fill="#000000" font-family="sans-serif" font-size="13" lengthAdjust="spacingAndGlyphs" textLength="114" x="932.5" y="134.9966">de state naar een</text><text fill="#000000" font-family="sans-serif" font-size="13" font-weight="bold" lengthAdjust="spacingAndGlyphs" textLength="10" x="1050.5" y="134.9966">X</text><text fill="#000000" font-family="sans-serif" font-size="13" lengthAdjust="spacingAndGlyphs" textLength="40" x="1064.5" y="134.9966">(kruis)</text><text fill="#000000" font-family="sans-serif" font-size="13" lengthAdjust="spacingAndGlyphs" textLength="0" x="936.5" y="150.1294"/><text fill="#000000" font-family="sans-serif" font-size="13" lengthAdjust="spacingAndGlyphs" textLength="173" x="932.5" y="165.2622">Terminate kan bijvoorbeeld</text><text fill="#000000" font-family="sans-serif" font-size="13" lengthAdjust="spacingAndGlyphs" textLength="196" x="932.5" y="180.395">aangeroepen worden door een</text><text fill="#000000" font-family="sans-serif" font-size="13" lengthAdjust="spacingAndGlyphs" textLength="131" x="932.5" y="195.5278">"power off"-activiteit.</text><rect fill="#FEFECE" filter="url(#f1xwg6sgel5902)" height="92.1719" rx="12.5" ry="12.5" style="stroke: #A80036; stroke-width: 1.5;" width="182" x="286" y="269"/><line style="stroke: #A80036; stroke-width: 1.5;" x1="286" x2="468" y1="295.2969" y2="295.2969"/><text fill="#000000" font-family="sans-serif" font-size="14" lengthAdjust="spacingAndGlyphs" textLength="93" x="330.5" y="286.9951">simple state1</text><text fill="#000000" font-family="sans-serif" font-size="12" font-weight="bold" lengthAdjust="spacingAndGlyphs" textLength="38" x="291" y="311.4355">entry</text><text fill="#000000" font-family="sans-serif" font-size="12" lengthAdjust="spacingAndGlyphs" textLength="120" x="333" y="311.4355">/ doe iets eenmalig</text><text fill="#000000" font-family="sans-serif" font-size="12" font-weight="bold" lengthAdjust="spacingAndGlyphs" textLength="18" x="291" y="325.4043">do</text><text fill="#000000" font-family="sans-serif" font-size="12" lengthAdjust="spacingAndGlyphs" textLength="118" x="313" y="325.4043">/ doe iets continue</text><text fill="#000000" font-family="sans-serif" font-size="12" lengthAdjust="spacingAndGlyphs" textLength="111" x="291" y="339.373">doe iets dadelijk /</text><text fill="#000000" font-family="sans-serif" font-size="12" font-weight="bold" lengthAdjust="spacingAndGlyphs" textLength="38" x="406" y="339.373">defer</text><text fill="#000000" font-family="sans-serif" font-size="12" font-weight="bold" lengthAdjust="spacingAndGlyphs" textLength="26" x="291" y="353.3418">exit</text><text fill="#000000" font-family="sans-serif" font-size="12" lengthAdjust="spacingAndGlyphs" textLength="120" x="321" y="353.3418">/ doe iets eenmalig</text><rect fill="#FEFECE" filter="url(#f1xwg6sgel5902)" height="92.1719" rx="12.5" ry="12.5" style="stroke: #A80036; stroke-width: 1.5;" width="182" x="696" y="269"/><line style="stroke: #A80036; stroke-width: 1.5;" x1="696" x2="878" y1="295.2969" y2="295.2969"/><text fill="#000000" font-family="sans-serif" font-size="14" lengthAdjust="spacingAndGlyphs" textLength="93" x="740.5" y="286.9951">simple state2</text><text fill="#000000" font-family="sans-serif" font-size="12" font-weight="bold" lengthAdjust="spacingAndGlyphs" textLength="38" x="701" y="311.4355">entry</text><text fill="#000000" font-family="sans-serif" font-size="12" lengthAdjust="spacingAndGlyphs" textLength="120" x="743" y="311.4355">/ doe iets eenmalig</text><text fill="#000000" font-family="sans-serif" font-size="12" font-weight="bold" lengthAdjust="spacingAndGlyphs" textLength="18" x="701" y="325.4043">do</text><text fill="#000000" font-family="sans-serif" font-size="12" lengthAdjust="spacingAndGlyphs" textLength="118" x="723" y="325.4043">/ doe iets continue</text><text fill="#000000" font-family="sans-serif" font-size="12" lengthAdjust="spacingAndGlyphs" textLength="111" x="701" y="339.373">doe iets dadelijk /</text><text fill="#000000" font-family="sans-serif" font-size="12" font-weight="bold" lengthAdjust="spacingAndGlyphs" textLength="38" x="816" y="339.373">defer</text><text fill="#000000" font-family="sans-serif" font-size="12" font-weight="bold" lengthAdjust="spacingAndGlyphs" textLength="26" x="701" y="353.3418">exit</text><text fill="#000000" font-family="sans-serif" font-size="12" lengthAdjust="spacingAndGlyphs" textLength="120" x="731" y="353.3418">/ doe iets eenmalig</text><!--MD5=[0851647b0d029610cd0ab4962f9816f7]
link *start to s1--><path d="M26.032,315 C62.4106,315 190.0276,315 280.8647,315 " fill="none" id="*start-&gt;s1" style="stroke: #A80036; stroke-width: 1.0;"/><polygon fill="#A80036" points="285.9764,315,276.9764,311,280.9764,315,276.9764,319,285.9764,315" style="stroke: #A80036; stroke-width: 1.0;"/><path d="M48.5,255 L48.5,303 L259.5,303 L259.5,265 L249.5,255 L48.5,255 " fill="#FCA985" filter="url(#f1xwg6sgel5902)" style="stroke: #A80036; stroke-width: 1.0;"/><path d="M249.5,255 L249.5,265 L259.5,265 L249.5,255 " fill="#FCA985" style="stroke: #A80036; stroke-width: 1.0;"/><text fill="#000000" font-family="sans-serif" font-size="13" font-weight="bold" lengthAdjust="spacingAndGlyphs" textLength="88" x="54.5" y="272.0669">initial state:</text><line style="stroke: #A80036; stroke-width: 1.0;" x1="49.5" x2="258.5" y1="275.1328" y2="275.1328"/><text fill="#000000" font-family="sans-serif" font-size="13" lengthAdjust="spacingAndGlyphs" textLength="190" x="54.5" y="291.1997">Hier begint de state machine.</text><!--MD5=[d077887d53ded09ce69bd222ebbe95e1]
link s1 to s2--><path d="M468.2469,315 C534.2488,315 623.2699,315 690.46,315 " fill="none" id="s1-&gt;s2" style="stroke: #A80036; stroke-width: 1.0;"/><polygon fill="#A80036" points="695.6661,315,686.6661,311,690.6661,315,686.6661,319,695.6661,315" style="stroke: #A80036; stroke-width: 1.0;"/><text fill="#000000" font-family="sans-serif" font-size="13" lengthAdjust="spacingAndGlyphs" textLength="191" x="486.5" y="308.0669">trigger(params)[guard]/action</text><!--MD5=[feecdfac5bcfd1ac637cb1a50c063d90]
link s2 to *end--><path d="M878.3827,315 C966.4355,315 1092.4808,315 1135.7448,315 " fill="none" id="s2-&gt;*end" style="stroke: #A80036; stroke-width: 1.0;"/><polygon fill="#A80036" points="1140.8323,315,1131.8323,311,1135.8323,315,1131.8323,319,1140.8323,315" style="stroke: #A80036; stroke-width: 1.0;"/><path d="M900.5,255 L900.5,303 L1114.5,303 L1114.5,265 L1104.5,255 L900.5,255 " fill="#FCA985" filter="url(#f1xwg6sgel5902)" style="stroke: #A80036; stroke-width: 1.0;"/><path d="M1104.5,255 L1104.5,265 L1114.5,265 L1104.5,255 " fill="#FCA985" style="stroke: #A80036; stroke-width: 1.0;"/><text fill="#000000" font-family="sans-serif" font-size="13" font-weight="bold" lengthAdjust="spacingAndGlyphs" textLength="80" x="906.5" y="272.0669">final state:</text><line style="stroke: #A80036; stroke-width: 1.0;" x1="901.5" x2="1113.5" y1="275.1328" y2="275.1328"/><text fill="#000000" font-family="sans-serif" font-size="13" lengthAdjust="spacingAndGlyphs" textLength="193" x="906.5" y="291.1997">Hier eindigt de state machine.</text><!--MD5=[43051094207a9feddd221c1e1bbf4476]
@startuml

state s1 as "simple state1" {
    s1 : **entry** / doe iets eenmalig
    s1 : **do** / doe iets continue
    s1 : doe iets dadelijk / **defer**
    s1 : **exit** / doe iets eenmalig
}

state s2 as "simple state2"{
    s2 : **entry** / doe iets eenmalig
    s2 : **do** / doe iets continue
    s2 : doe iets dadelijk / **defer**
    s2 : **exit** / doe iets eenmalig
}

[*] -right-> s1
note top on link #FCA985
    **initial state:**
    - -
    Hier begint de state machine.
end note

s1 -right-> s2 : trigger(params)[guard]/action

s2 -right-> [*]
note top on link #FCA985
    **final state:**
    - -
    Hier eindigt de state machine.
end note

note as n1 #FCA985
    **entry:**
    - -
    Activiteit die eenmalig
    uitgevoerd wordt wanneer
    de state actief wordt.
end note

note as n2 #FCA985
    **do:**
    - -
    Activiteit die continue
    uitgevoerd wordt tot dat
    de exit aangeroepen wordt.
end note

note as n3 #FCA985
    **exit:**
    - -
    Activiteit die uitgevoerd
    wordt wanneer een transitie
    naar een andere state
    ge-triggerd wordt.
end note

note as n4 #FCA985
    **state naam**
    - -
    Geeft de naam van de state
    weer.
end note

note as n5 #FCA985
    **deferable trigger**
    - -
    Een bepaalde evenement die
    geen transitie triggerd.

    Wanneer er een defer plaats
    vindt zal deze in de wacht
    gezet worden.
    Wanneer een state transitie
    plaatsvind zal deze defer
    uitgevoerd worden.
end note

note as n6 #FCA985
    **terminate**
    - -
    Wanneer er een evenement
    plaats heeft gevonden waardoor
    de statemachine vroegtijdig is
    afgesloten.
    Terminate wordt weergegeven
    doormiddel van een pijl vanaf
    de state naar een **X** (kruis)

    Terminate kan bijvoorbeeld
    aangeroepen worden door een
    "power off"-activiteit.
end note

n1 -up-> s1
n2 -up-> s1
n3 -up-> s1

n4 -down-> s2
n5 -down-> s2
n6 -down-> s2

@enduml

PlantUML version 1.2020.06(Sun Apr 05 12:38:32 GMT 2020)
(GPL source distribution)
Java Runtime: OpenJDK Runtime Environment
JVM: OpenJDK 64-Bit Server VM
Java Version: 14-ea+33
Operating System: Linux
Default Encoding: UTF-8
Language: en
Country: US
--></g></svg>