<?xml version="1.0" encoding="UTF-8" standalone="no"?><svg xmlns="http://www.w3.org/2000/svg" xmlns:xlink="http://www.w3.org/1999/xlink" contentScriptType="application/ecmascript" contentStyleType="text/css" height="511px" preserveAspectRatio="none" style="width:762px;height:511px;" version="1.1" viewBox="0 0 762 511" width="762px" zoomAndPan="magnify"><defs><filter height="300%" id="fwbnuojpyc6t7" width="300%" x="-1" y="-1"><feGaussianBlur result="blurOut" stdDeviation="2.0"/><feColorMatrix in="blurOut" result="blurOut2" type="matrix" values="0 0 0 0 0 0 0 0 0 0 0 0 0 0 0 0 0 0 .4 0"/><feOffset dx="4.0" dy="4.0" in="blurOut2" result="blurOut3"/><feBlend in="SourceGraphic" in2="blurOut3" mode="normal"/></filter></defs><g><ellipse cx="16" cy="307" fill="#000000" filter="url(#fwbnuojpyc6t7)" rx="10" ry="10" style="stroke: none; stroke-width: 1.0;"/><ellipse cx="741" cy="307" fill="none" filter="url(#fwbnuojpyc6t7)" rx="10" ry="10" style="stroke: #000000; stroke-width: 1.0;"/><ellipse cx="741.5" cy="307.5" fill="#000000" rx="6" ry="6" style="stroke: none; stroke-width: 1.0;"/><path d="M58,421.5 L58,492.0313 A0,0 0 0 0 58,492.0313 L244,492.0313 A0,0 0 0 0 244,492.0313 L244,431.5 L234,421.5 L208.7777,421.5 L307.6567,353.0243 L200.7777,421.5 L58,421.5 A0,0 0 0 0 58,421.5 " fill="#FBFB77" filter="url(#fwbnuojpyc6t7)" style="stroke: #A80036; stroke-width: 1.0;"/><path d="M234,421.5 L234,431.5 L244,431.5 L234,421.5 " fill="#FBFB77" style="stroke: #A80036; stroke-width: 1.0;"/><text fill="#000000" font-family="sans-serif" font-size="13" font-weight="bold" lengthAdjust="spacingAndGlyphs" textLength="43" x="64" y="438.5669">entry:</text><text fill="#000000" font-family="sans-serif" font-size="13" lengthAdjust="spacingAndGlyphs" textLength="141" x="64" y="453.6997">Activiteit die eenmalig</text><text fill="#000000" font-family="sans-serif" font-size="13" lengthAdjust="spacingAndGlyphs" textLength="165" x="64" y="468.8325">uitgevoerd wordt wanneer</text><text fill="#000000" font-family="sans-serif" font-size="13" lengthAdjust="spacingAndGlyphs" textLength="135" x="64" y="483.9653">de state actief wordt.</text><path d="M279,421.5 L279,492.0313 A0,0 0 0 0 279,492.0313 L475,492.0313 A0,0 0 0 0 475,492.0313 L475,431.5 L465,421.5 L381,421.5 L377,353.2289 L373,421.5 L279,421.5 A0,0 0 0 0 279,421.5 " fill="#FBFB77" filter="url(#fwbnuojpyc6t7)" style="stroke: #A80036; stroke-width: 1.0;"/><path d="M465,421.5 L465,431.5 L475,431.5 L465,421.5 " fill="#FBFB77" style="stroke: #A80036; stroke-width: 1.0;"/><text fill="#000000" font-family="sans-serif" font-size="13" font-weight="bold" lengthAdjust="spacingAndGlyphs" textLength="24" x="285" y="438.5669">do:</text><text fill="#000000" font-family="sans-serif" font-size="13" lengthAdjust="spacingAndGlyphs" textLength="137" x="285" y="453.6997">Activiteit die continue</text><text fill="#000000" font-family="sans-serif" font-size="13" lengthAdjust="spacingAndGlyphs" textLength="154" x="285" y="468.8325">uitgevoerd wordt tot dat</text><text fill="#000000" font-family="sans-serif" font-size="13" lengthAdjust="spacingAndGlyphs" textLength="175" x="285" y="483.9653">de exit aangeroepen wordt.</text><path d="M510,414 L510,499.6641 A0,0 0 0 0 510,499.6641 L708,499.6641 A0,0 0 0 0 708,499.6641 L708,424 L698,414 L546.3087,414 L448.1843,353.0243 L538.3087,414 L510,414 A0,0 0 0 0 510,414 " fill="#FBFB77" filter="url(#fwbnuojpyc6t7)" style="stroke: #A80036; stroke-width: 1.0;"/><path d="M698,414 L698,424 L708,424 L698,414 " fill="#FBFB77" style="stroke: #A80036; stroke-width: 1.0;"/><text fill="#000000" font-family="sans-serif" font-size="13" font-weight="bold" lengthAdjust="spacingAndGlyphs" textLength="32" x="516" y="431.0669">exit:</text><text fill="#000000" font-family="sans-serif" font-size="13" lengthAdjust="spacingAndGlyphs" textLength="150" x="516" y="446.1997">Activiteit die uitgevoerd</text><text fill="#000000" font-family="sans-serif" font-size="13" lengthAdjust="spacingAndGlyphs" textLength="177" x="516" y="461.3325">wordt wanneer een transitie</text><text fill="#000000" font-family="sans-serif" font-size="13" lengthAdjust="spacingAndGlyphs" textLength="143" x="516" y="476.4653">naar een andere state</text><text fill="#000000" font-family="sans-serif" font-size="13" lengthAdjust="spacingAndGlyphs" textLength="114" x="516" y="491.5981">ge-triggerd wordt.</text><path d="M36.5,76.5 L36.5,131.8984 A0,0 0 0 0 36.5,131.8984 L165.6172,131.8984 L322.3468,260.7725 L173.6172,131.8984 L237.5,131.8984 A0,0 0 0 0 237.5,131.8984 L237.5,86.5 L227.5,76.5 L36.5,76.5 A0,0 0 0 0 36.5,76.5 " fill="#FBFB77" filter="url(#fwbnuojpyc6t7)" style="stroke: #A80036; stroke-width: 1.0;"/><path d="M227.5,76.5 L227.5,86.5 L237.5,86.5 L227.5,76.5 " fill="#FBFB77" style="stroke: #A80036; stroke-width: 1.0;"/><text fill="#000000" font-family="sans-serif" font-size="13" font-weight="bold" lengthAdjust="spacingAndGlyphs" textLength="84" x="42.5" y="93.5669">state naam</text><text fill="#000000" font-family="sans-serif" font-size="13" lengthAdjust="spacingAndGlyphs" textLength="180" x="42.5" y="108.6997">Geeft de naam van de state</text><text fill="#000000" font-family="sans-serif" font-size="13" lengthAdjust="spacingAndGlyphs" textLength="34" x="42.5" y="123.8325">weer.</text><path d="M273,23.5 L273,184.8281 A0,0 0 0 0 273,184.8281 L373,184.8281 L377,260.7963 L381,184.8281 L481,184.8281 A0,0 0 0 0 481,184.8281 L481,33.5 L471,23.5 L273,23.5 A0,0 0 0 0 273,23.5 " fill="#FBFB77" filter="url(#fwbnuojpyc6t7)" style="stroke: #A80036; stroke-width: 1.0;"/><path d="M471,23.5 L471,33.5 L481,33.5 L471,23.5 " fill="#FBFB77" style="stroke: #A80036; stroke-width: 1.0;"/><text fill="#000000" font-family="sans-serif" font-size="13" font-weight="bold" lengthAdjust="spacingAndGlyphs" textLength="128" x="279" y="40.5669">deferable trigger</text><text fill="#000000" font-family="sans-serif" font-size="13" lengthAdjust="spacingAndGlyphs" textLength="187" x="279" y="55.6997">Een bepaalde evenement die</text><text fill="#000000" font-family="sans-serif" font-size="13" lengthAdjust="spacingAndGlyphs" textLength="146" x="279" y="70.8325">geen transitie triggerd.</text><text fill="#000000" font-family="sans-serif" font-size="13" lengthAdjust="spacingAndGlyphs" textLength="0" x="283" y="85.9653"/><text fill="#000000" font-family="sans-serif" font-size="13" lengthAdjust="spacingAndGlyphs" textLength="181" x="279" y="101.0981">Wanneer er een defer plaats</text><text fill="#000000" font-family="sans-serif" font-size="13" lengthAdjust="spacingAndGlyphs" textLength="164" x="279" y="116.231">vindt zal deze in de wacht</text><text fill="#000000" font-family="sans-serif" font-size="13" lengthAdjust="spacingAndGlyphs" textLength="90" x="279" y="131.3638">gezet worden.</text><text fill="#000000" font-family="sans-serif" font-size="13" lengthAdjust="spacingAndGlyphs" textLength="177" x="279" y="146.4966">Wanneer een state transitie</text><text fill="#000000" font-family="sans-serif" font-size="13" lengthAdjust="spacingAndGlyphs" textLength="159" x="279" y="161.6294">plaatsvind zal deze defer</text><text fill="#000000" font-family="sans-serif" font-size="13" lengthAdjust="spacingAndGlyphs" textLength="122" x="279" y="176.7622">uitgevoerd worden.</text><path d="M516.5,8 L516.5,191.1085 L434.4838,260.8767 L516.5,199.1085 L516.5,199.5938 A0,0 0 0 0 516.5,199.5938 L743.5,199.5938 A0,0 0 0 0 743.5,199.5938 L743.5,18 L733.5,8 L516.5,8 A0,0 0 0 0 516.5,8 " fill="#FBFB77" filter="url(#fwbnuojpyc6t7)" style="stroke: #A80036; stroke-width: 1.0;"/><path d="M733.5,8 L733.5,18 L743.5,18 L733.5,8 " fill="#FBFB77" style="stroke: #A80036; stroke-width: 1.0;"/><text fill="#000000" font-family="sans-serif" font-size="13" font-weight="bold" lengthAdjust="spacingAndGlyphs" textLength="74" x="522.5" y="25.0669">Terminate</text><text fill="#000000" font-family="sans-serif" font-size="13" lengthAdjust="spacingAndGlyphs" textLength="178" x="522.5" y="40.1997">Wanneer er een evenement</text><text fill="#000000" font-family="sans-serif" font-size="13" lengthAdjust="spacingAndGlyphs" textLength="206" x="522.5" y="55.3325">plaats heeft gevonden waardoor</text><text fill="#000000" font-family="sans-serif" font-size="13" lengthAdjust="spacingAndGlyphs" textLength="192" x="522.5" y="70.4653">de statemachine vroegtijdig is</text><text fill="#000000" font-family="sans-serif" font-size="13" lengthAdjust="spacingAndGlyphs" textLength="71" x="522.5" y="85.5981">afgesloten.</text><text fill="#000000" font-family="sans-serif" font-size="13" lengthAdjust="spacingAndGlyphs" textLength="193" x="522.5" y="100.731">Terminate wordt weergegeven</text><text fill="#000000" font-family="sans-serif" font-size="13" lengthAdjust="spacingAndGlyphs" textLength="187" x="522.5" y="115.8638">doormiddel van een pijl vanaf</text><text fill="#000000" font-family="sans-serif" font-size="13" lengthAdjust="spacingAndGlyphs" textLength="114" x="522.5" y="130.9966">de state naar een</text><text fill="#000000" font-family="sans-serif" font-size="13" font-weight="bold" lengthAdjust="spacingAndGlyphs" textLength="10" x="640.5" y="130.9966">X</text><text fill="#000000" font-family="sans-serif" font-size="13" lengthAdjust="spacingAndGlyphs" textLength="40" x="654.5" y="130.9966">(kruis)</text><text fill="#000000" font-family="sans-serif" font-size="13" lengthAdjust="spacingAndGlyphs" textLength="0" x="526.5" y="146.1294"/><text fill="#000000" font-family="sans-serif" font-size="13" lengthAdjust="spacingAndGlyphs" textLength="173" x="522.5" y="161.2622">Terminate kan bijvoorbeeld</text><text fill="#000000" font-family="sans-serif" font-size="13" lengthAdjust="spacingAndGlyphs" textLength="196" x="522.5" y="176.395">aangeroepen worden door een</text><text fill="#000000" font-family="sans-serif" font-size="13" lengthAdjust="spacingAndGlyphs" textLength="131" x="522.5" y="191.5278">"power off"-activiteit.</text><rect fill="#FEFECE" filter="url(#fwbnuojpyc6t7)" height="92.1719" rx="12.5" ry="12.5" style="stroke: #A80036; stroke-width: 1.5;" width="182" x="286" y="261"/><line style="stroke: #A80036; stroke-width: 1.5;" x1="286" x2="468" y1="287.2969" y2="287.2969"/><text fill="#000000" font-family="sans-serif" font-size="14" lengthAdjust="spacingAndGlyphs" textLength="84" x="335" y="278.9951">simple state</text><text fill="#000000" font-family="sans-serif" font-size="12" font-weight="bold" lengthAdjust="spacingAndGlyphs" textLength="38" x="291" y="303.4355">entry</text><text fill="#000000" font-family="sans-serif" font-size="12" lengthAdjust="spacingAndGlyphs" textLength="120" x="333" y="303.4355">/ doe iets eenmalig</text><text fill="#000000" font-family="sans-serif" font-size="12" font-weight="bold" lengthAdjust="spacingAndGlyphs" textLength="18" x="291" y="317.4043">do</text><text fill="#000000" font-family="sans-serif" font-size="12" lengthAdjust="spacingAndGlyphs" textLength="118" x="313" y="317.4043">/ doe iets continue</text><text fill="#000000" font-family="sans-serif" font-size="12" lengthAdjust="spacingAndGlyphs" textLength="111" x="291" y="331.373">doe iets dadelijk /</text><text fill="#000000" font-family="sans-serif" font-size="12" font-weight="bold" lengthAdjust="spacingAndGlyphs" textLength="38" x="406" y="331.373">defer</text><text fill="#000000" font-family="sans-serif" font-size="12" font-weight="bold" lengthAdjust="spacingAndGlyphs" textLength="26" x="291" y="345.3418">exit</text><text fill="#000000" font-family="sans-serif" font-size="12" lengthAdjust="spacingAndGlyphs" textLength="120" x="321" y="345.3418">/ doe iets eenmalig</text><!--MD5=[0851647b0d029610cd0ab4962f9816f7]
link *start to s1--><path d="M26.032,307 C62.4106,307 190.0276,307 280.8647,307 " fill="none" id="*start-&gt;s1" style="stroke: #A80036; stroke-width: 1.0;"/><polygon fill="#A80036" points="285.9764,307,276.9764,303,280.9764,307,276.9764,311,285.9764,307" style="stroke: #A80036; stroke-width: 1.0;"/><path d="M48.5,238 L48.5,278 L259.5,278 L259.5,248 L249.5,238 L48.5,238 " fill="#FBFB77" filter="url(#fwbnuojpyc6t7)" style="stroke: #A80036; stroke-width: 1.0;"/><path d="M249.5,238 L249.5,248 L259.5,248 L249.5,238 " fill="#FBFB77" style="stroke: #A80036; stroke-width: 1.0;"/><text fill="#000000" font-family="sans-serif" font-size="13" font-weight="bold" lengthAdjust="spacingAndGlyphs" textLength="88" x="54.5" y="255.0669">initial state:</text><text fill="#000000" font-family="sans-serif" font-size="13" lengthAdjust="spacingAndGlyphs" textLength="190" x="54.5" y="270.1997">Hier begint de state machine.</text><text fill="#000000" font-family="sans-serif" font-size="13" font-weight="bold" lengthAdjust="spacingAndGlyphs" textLength="53" x="129.5" y="300.3325">turn on</text><!--MD5=[7d98e8d9b6813948cf7e9df54f339954]
link s1 to *end--><path d="M468.3827,307 C556.4355,307 682.4808,307 725.7448,307 " fill="none" id="s1-&gt;*end" style="stroke: #A80036; stroke-width: 1.0;"/><polygon fill="#A80036" points="730.8323,307,721.8323,303,725.8323,307,721.8323,311,730.8323,307" style="stroke: #A80036; stroke-width: 1.0;"/><path d="M490.5,238 L490.5,278 L704.5,278 L704.5,248 L694.5,238 L490.5,238 " fill="#FBFB77" filter="url(#fwbnuojpyc6t7)" style="stroke: #A80036; stroke-width: 1.0;"/><path d="M694.5,238 L694.5,248 L704.5,248 L694.5,238 " fill="#FBFB77" style="stroke: #A80036; stroke-width: 1.0;"/><text fill="#000000" font-family="sans-serif" font-size="13" font-weight="bold" lengthAdjust="spacingAndGlyphs" textLength="80" x="496.5" y="255.0669">final state:</text><text fill="#000000" font-family="sans-serif" font-size="13" lengthAdjust="spacingAndGlyphs" textLength="193" x="496.5" y="270.1997">Hier eindigt de state machine.</text><text fill="#000000" font-family="sans-serif" font-size="13" font-weight="bold" lengthAdjust="spacingAndGlyphs" textLength="56" x="571.5" y="300.3325">turn off</text><!--MD5=[22acfa79aa0f72e6970bf68ba051cfcd]
@startuml



state s1 as "simple state" {
    s1 : **entry** / doe iets eenmalig
    s1 : **do** / doe iets continue
    s1 : doe iets dadelijk / **defer**
    s1 : **exit** / doe iets eenmalig
}

[*] -right-> s1 : **turn on**
note top on link
    **initial state:**
    Hier begint de state machine.
end note

s1 -right-> [*] : **turn off**
note top on link
    **final state:**
    Hier eindigt de state machine.
end note

note as n1
    **entry:**
    Activiteit die eenmalig
    uitgevoerd wordt wanneer
    de state actief wordt.
end note

note as n2
    **do:**
    Activiteit die continue
    uitgevoerd wordt tot dat
    de exit aangeroepen wordt.
end note

note as n3
    **exit:**
    Activiteit die uitgevoerd
    wordt wanneer een transitie
    naar een andere state
    ge-triggerd wordt.
end note

note as n4
    **state naam**
    Geeft de naam van de state
    weer.
end note

note as n5
    **deferable trigger**
    Een bepaalde evenement die
    geen transitie triggerd.

    Wanneer er een defer plaats
    vindt zal deze in de wacht
    gezet worden.
    Wanneer een state transitie
    plaatsvind zal deze defer
    uitgevoerd worden.
end note

note as n6
    **Terminate**
    Wanneer er een evenement
    plaats heeft gevonden waardoor
    de statemachine vroegtijdig is
    afgesloten.
    Terminate wordt weergegeven
    doormiddel van een pijl vanaf
    de state naar een **X** (kruis)

    Terminate kan bijvoorbeeld
    aangeroepen worden door een
    "power off"-activiteit.
end note


n1 -up-> s1
n2 -up-> s1
n3 -up-> s1


n4 -down-> s1
n5 -down-> s1
n6 -down-> s1

@enduml

PlantUML version 1.2020.06(Sun Apr 05 12:38:32 GMT 2020)
(GPL source distribution)
Java Runtime: OpenJDK Runtime Environment
JVM: OpenJDK 64-Bit Server VM
Java Version: 14-ea+33
Operating System: Linux
Default Encoding: UTF-8
Language: en
Country: US
--></g></svg>