<?xml version="1.0" encoding="UTF-8" standalone="no"?><svg xmlns="http://www.w3.org/2000/svg" xmlns:xlink="http://www.w3.org/1999/xlink" contentScriptType="application/ecmascript" contentStyleType="text/css" height="174px" preserveAspectRatio="none" style="width:1094px;height:174px;" version="1.1" viewBox="0 0 1094 174" width="1094px" zoomAndPan="magnify"><defs><filter height="300%" id="fhdnq2zc2fnkp" width="300%" x="-1" y="-1"><feGaussianBlur result="blurOut" stdDeviation="2.0"/><feColorMatrix in="blurOut" result="blurOut2" type="matrix" values="0 0 0 0 0 0 0 0 0 0 0 0 0 0 0 0 0 0 .4 0"/><feOffset dx="4.0" dy="4.0" in="blurOut2" result="blurOut3"/><feBlend in="SourceGraphic" in2="blurOut3" mode="normal"/></filter></defs><g><polygon fill="#FFFFBA" filter="url(#fhdnq2zc2fnkp)" points="6,58.5,134,58.5,141,80.7969,148,80.7969,148,111.0938,6,111.0938,6,58.5" style="stroke: #000000; stroke-width: 1.5;"/><line style="stroke: #000000; stroke-width: 1.5;" x1="6" x2="141" y1="80.7969" y2="80.7969"/><text fill="#000000" font-family="sans-serif" font-size="14" font-weight="bold" lengthAdjust="spacingAndGlyphs" textLength="122" x="10" y="73.4951">Stock Trader UI</text><polygon fill="#FFFFBA" filter="url(#fhdnq2zc2fnkp)" points="499.5,58.5,560.5,58.5,567.5,80.7969,574.5,80.7969,574.5,111.0938,499.5,111.0938,499.5,58.5" style="stroke: #000000; stroke-width: 1.5;"/><line style="stroke: #000000; stroke-width: 1.5;" x1="499.5" x2="567.5" y1="80.7969" y2="80.7969"/><text fill="#000000" font-family="sans-serif" font-size="14" font-weight="bold" lengthAdjust="spacingAndGlyphs" textLength="55" x="503.5" y="73.4951">GUI Lib</text><polygon fill="#FFFFBA" filter="url(#fhdnq2zc2fnkp)" points="609.5,58.5,702.5,58.5,709.5,80.7969,716.5,80.7969,716.5,111.0938,609.5,111.0938,609.5,58.5" style="stroke: #000000; stroke-width: 1.5;"/><line style="stroke: #000000; stroke-width: 1.5;" x1="609.5" x2="709.5" y1="80.7969" y2="80.7969"/><text fill="#000000" font-family="sans-serif" font-size="14" font-weight="bold" lengthAdjust="spacingAndGlyphs" textLength="87" x="613.5" y="73.4951">Portfolio UI</text><path d="M752,8 L752,162.1953 L1082,162.1953 L1082,18 L1072,8 L752,8 " fill="#FCA985" filter="url(#fhdnq2zc2fnkp)" style="stroke: #A80036; stroke-width: 1.0;"/><path d="M1072,8 L1072,18 L1082,18 L1072,8 " fill="#FCA985" style="stroke: #A80036; stroke-width: 1.0;"/><text fill="#000000" font-family="sans-serif" font-size="13" font-weight="bold" lengthAdjust="spacingAndGlyphs" textLength="64" x="758" y="25.0669">package</text><line style="stroke: #A80036; stroke-width: 1.0;" x1="753" x2="1081" y1="28.1328" y2="28.1328"/><text fill="#000000" font-family="sans-serif" font-size="13" lengthAdjust="spacingAndGlyphs" textLength="287" x="758" y="44.1997">Een package geeft een namespace weer van</text><text fill="#000000" font-family="sans-serif" font-size="13" lengthAdjust="spacingAndGlyphs" textLength="263" x="758" y="59.3325">een bepaald onderdeel van de applicatie.</text><text fill="#000000" font-family="sans-serif" font-size="13" lengthAdjust="spacingAndGlyphs" textLength="264" x="758" y="74.4653">Alles wat in een package zit valt onder de</text><text fill="#000000" font-family="sans-serif" font-size="13" lengthAdjust="spacingAndGlyphs" textLength="254" x="758" y="89.5981">namespace van die specifieke package.</text><text fill="#000000" font-family="sans-serif" font-size="13" lengthAdjust="spacingAndGlyphs" textLength="0" x="762" y="104.731"/><text fill="#000000" font-family="sans-serif" font-size="13" lengthAdjust="spacingAndGlyphs" textLength="251" x="758" y="119.8638">het is ook handig om de daadwerkelijke</text><text fill="#000000" font-family="sans-serif" font-size="13" lengthAdjust="spacingAndGlyphs" textLength="274" x="758" y="134.9966">code in de directory structuur te verwerken</text><text fill="#000000" font-family="sans-serif" font-size="13" lengthAdjust="spacingAndGlyphs" textLength="309" x="758" y="150.1294">op de manier dat de packages uitgewerkt staan.</text><!--MD5=[4ef60940496ff64d6ff13fdfdd3cc31c]
link p1 to p2--><path d="M148.1184,85 C244.8519,85 414.9101,85 494.1337,85 " fill="none" id="p1-&gt;p2" style="stroke: #A80036; stroke-width: 1.0; stroke-dasharray: 7.0,7.0;"/><polygon fill="#A80036" points="499.2189,85,490.2189,81,494.2189,85,490.2189,89,499.2189,85" style="stroke: #A80036; stroke-width: 1.0;"/><path d="M170.25,10 L170.25,73 L473.25,73 L473.25,20 L463.25,10 L170.25,10 " fill="#FCA985" filter="url(#fhdnq2zc2fnkp)" style="stroke: #A80036; stroke-width: 1.0;"/><path d="M463.25,10 L463.25,20 L473.25,20 L463.25,10 " fill="#FCA985" style="stroke: #A80036; stroke-width: 1.0;"/><text fill="#000000" font-family="sans-serif" font-size="13" font-weight="bold" lengthAdjust="spacingAndGlyphs" textLength="104" x="176.25" y="27.0669">dependencies</text><line style="stroke: #A80036; stroke-width: 1.0;" x1="171.25" x2="472.25" y1="30.1328" y2="30.1328"/><text fill="#000000" font-family="sans-serif" font-size="13" lengthAdjust="spacingAndGlyphs" textLength="252" x="176.25" y="46.1997">In dit voorbeeld staat weergegeven hoe</text><text fill="#000000" font-family="sans-serif" font-size="13" lengthAdjust="spacingAndGlyphs" textLength="282" x="176.25" y="61.3325">een dependency eruit ziet tussen packages.</text><!--MD5=[9bc8eaadd785cad58f93e528ecc2a1e1]
reverse link p2 to p3--><path d="M580.0069,85 C589.7756,85 599.5444,85 609.3131,85 " fill="none" id="p2&lt;-p3" style="stroke: #A80036; stroke-width: 1.0; stroke-dasharray: 7.0,7.0;"/><polygon fill="#A80036" points="574.8984,85,583.8984,89,579.8984,85,583.8984,81,574.8984,85" style="stroke: #A80036; stroke-width: 1.0;"/><!--MD5=[3246011e96399da82a99ec6c1dff9926]
link p3 to GMN7--><path d="M716.5781,85 C728.3216,85 740.0651,85 751.8085,85 " fill="none" id="p3-GMN7" style="stroke: #A80036; stroke-width: 1.0; stroke-dasharray: 7.0,7.0;"/><!--MD5=[89f4cf5b62e5fe120b93e3c3ad5a6b56]
@startuml

package "Stock Trader UI" as p1 #FFFFBA {}
package "GUI Lib" as p2 #FFFFBA {}
package "Portfolio UI" as p3 #FFFFBA {}

p1 .right.> p2
note on link #FCA985
    **dependencies**
    - -
    In dit voorbeeld staat weergegeven hoe
    een dependency eruit ziet tussen packages.
end note
p2 <.left. p3

note right of p3 #FCA985
    **package**
    - -
    Een package geeft een namespace weer van
    een bepaald onderdeel van de applicatie.
    Alles wat in een package zit valt onder de
    namespace van die specifieke package.

    het is ook handig om de daadwerkelijke
    code in de directory structuur te verwerken
    op de manier dat de packages uitgewerkt staan.
end note

@enduml

PlantUML version 1.2020.06(Sun Apr 05 12:38:32 GMT 2020)
(GPL source distribution)
Java Runtime: OpenJDK Runtime Environment
JVM: OpenJDK 64-Bit Server VM
Java Version: 14-ea+33
Operating System: Linux
Default Encoding: UTF-8
Language: en
Country: US
--></g></svg>