<?xml version="1.0" encoding="UTF-8" standalone="no"?><svg xmlns="http://www.w3.org/2000/svg" xmlns:xlink="http://www.w3.org/1999/xlink" contentScriptType="application/ecmascript" contentStyleType="text/css" height="358px" preserveAspectRatio="none" style="width:1053px;height:358px;" version="1.1" viewBox="0 0 1053 358" width="1053px" zoomAndPan="magnify"><defs><filter height="300%" id="fsh94numfq9hi" width="300%" x="-1" y="-1"><feGaussianBlur result="blurOut" stdDeviation="2.0"/><feColorMatrix in="blurOut" result="blurOut2" type="matrix" values="0 0 0 0 0 0 0 0 0 0 0 0 0 0 0 0 0 0 .4 0"/><feOffset dx="4.0" dy="4.0" in="blurOut2" result="blurOut3"/><feBlend in="SourceGraphic" in2="blurOut3" mode="normal"/></filter></defs><g><!--MD5=[fedee1b5a49a422abb3fa93dface23fd]
cluster p1--><polygon fill="#FFB3BA" filter="url(#fsh94numfq9hi)" points="14,16,167,16,174,54.5938,400,54.5938,400,120,14,120,14,16" style="stroke: #000000; stroke-width: 1.5;"/><line style="stroke: #000000; stroke-width: 1.5;" x1="14" x2="174" y1="54.5938" y2="54.5938"/><text fill="#000000" font-family="sans-serif" font-size="14" font-weight="bold" lengthAdjust="spacingAndGlyphs" textLength="126" x="28.5" y="30.9951">&lt;&lt;expanded&gt;&gt;</text><text fill="#000000" font-family="sans-serif" font-size="14" font-weight="bold" lengthAdjust="spacingAndGlyphs" textLength="147" x="18" y="47.292">presentation_layer</text><!--MD5=[c43102eb9af13b6e0584468567583f91]
cluster p2--><polygon fill="#FFDFBA" filter="url(#fsh94numfq9hi)" points="14,129,146,129,153,167.5938,400,167.5938,400,233,14,233,14,129" style="stroke: #000000; stroke-width: 1.5;"/><line style="stroke: #000000; stroke-width: 1.5;" x1="14" x2="153" y1="167.5938" y2="167.5938"/><text fill="#000000" font-family="sans-serif" font-size="14" font-weight="bold" lengthAdjust="spacingAndGlyphs" textLength="126" x="18" y="143.9951">&lt;&lt;expanded&gt;&gt;</text><text fill="#000000" font-family="sans-serif" font-size="14" font-weight="bold" lengthAdjust="spacingAndGlyphs" textLength="113" x="24.5" y="160.292">services_layer</text><!--MD5=[7f2e6138616fc2c683da5289fe2d6fe4]
cluster p3--><polygon fill="#BAFFC9" filter="url(#fsh94numfq9hi)" points="419,16,551,16,558,54.5938,1031,54.5938,1031,233,419,233,419,16" style="stroke: #000000; stroke-width: 1.5;"/><line style="stroke: #000000; stroke-width: 1.5;" x1="419" x2="558" y1="54.5938" y2="54.5938"/><text fill="#000000" font-family="sans-serif" font-size="14" font-weight="bold" lengthAdjust="spacingAndGlyphs" textLength="126" x="423" y="30.9951">&lt;&lt;expanded&gt;&gt;</text><text fill="#000000" font-family="sans-serif" font-size="14" font-weight="bold" lengthAdjust="spacingAndGlyphs" textLength="117" x="427.5" y="47.292">business_layer</text><!--MD5=[9f7b572157959bf2ad531c4460d7f0a2]
cluster p4--><polygon fill="#BAE1FF" filter="url(#fsh94numfq9hi)" points="58,242,190,242,197,280.5938,400,280.5938,400,346,58,346,58,242" style="stroke: #000000; stroke-width: 1.5;"/><line style="stroke: #000000; stroke-width: 1.5;" x1="58" x2="197" y1="280.5938" y2="280.5938"/><text fill="#000000" font-family="sans-serif" font-size="14" font-weight="bold" lengthAdjust="spacingAndGlyphs" textLength="126" x="62" y="256.9951">&lt;&lt;expanded&gt;&gt;</text><text fill="#000000" font-family="sans-serif" font-size="14" font-weight="bold" lengthAdjust="spacingAndGlyphs" textLength="80" x="85" y="273.292">data_layer</text><!--MD5=[164f16af274aa610d6409b98ce46e3fe]
cluster p5--><polygon fill="#CBAACB" filter="url(#fsh94numfq9hi)" points="419,242,551,242,558,280.5938,982,280.5938,982,346,419,346,419,242" style="stroke: #000000; stroke-width: 1.5;"/><line style="stroke: #000000; stroke-width: 1.5;" x1="419" x2="558" y1="280.5938" y2="280.5938"/><text fill="#000000" font-family="sans-serif" font-size="14" font-weight="bold" lengthAdjust="spacingAndGlyphs" textLength="126" x="423" y="256.9951">&lt;&lt;expanded&gt;&gt;</text><text fill="#000000" font-family="sans-serif" font-size="14" font-weight="bold" lengthAdjust="spacingAndGlyphs" textLength="106" x="433" y="273.292">cross_cutting</text><polygon fill="#DDDDDD" filter="url(#fsh94numfq9hi)" points="223,59,343,59,350,81.2969,357,81.2969,357,111.5938,223,111.5938,223,59" style="stroke: #000000; stroke-width: 1.5;"/><line style="stroke: #000000; stroke-width: 1.5;" x1="223" x2="350" y1="81.2969" y2="81.2969"/><text fill="#000000" font-family="sans-serif" font-size="14" font-weight="bold" lengthAdjust="spacingAndGlyphs" textLength="114" x="227" y="73.9951">user_interface</text><polygon fill="#DDDDDD" filter="url(#fsh94numfq9hi)" points="22.5,59,173.5,59,180.5,81.2969,187.5,81.2969,187.5,111.5938,22.5,111.5938,22.5,59" style="stroke: #000000; stroke-width: 1.5;"/><line style="stroke: #000000; stroke-width: 1.5;" x1="22.5" x2="180.5" y1="81.2969" y2="81.2969"/><text fill="#000000" font-family="sans-serif" font-size="14" font-weight="bold" lengthAdjust="spacingAndGlyphs" textLength="145" x="26.5" y="73.9951">presentation_logic</text><polygon fill="#DDDDDD" filter="url(#fsh94numfq9hi)" points="223,172,343,172,350,194.2969,357,194.2969,357,224.5938,223,224.5938,223,172" style="stroke: #000000; stroke-width: 1.5;"/><line style="stroke: #000000; stroke-width: 1.5;" x1="223" x2="350" y1="194.2969" y2="194.2969"/><text fill="#000000" font-family="sans-serif" font-size="14" font-weight="bold" lengthAdjust="spacingAndGlyphs" textLength="114" x="227" y="186.9951">user_interface</text><polygon fill="#DDDDDD" filter="url(#fsh94numfq9hi)" points="22.5,172,173.5,172,180.5,194.2969,187.5,194.2969,187.5,224.5938,22.5,224.5938,22.5,172" style="stroke: #000000; stroke-width: 1.5;"/><line style="stroke: #000000; stroke-width: 1.5;" x1="22.5" x2="180.5" y1="194.2969" y2="194.2969"/><text fill="#000000" font-family="sans-serif" font-size="14" font-weight="bold" lengthAdjust="spacingAndGlyphs" textLength="145" x="26.5" y="186.9951">presentation_logic</text><polygon fill="#DDDDDD" filter="url(#fsh94numfq9hi)" points="649.5,59,800.5,59,807.5,81.2969,814.5,81.2969,814.5,111.5938,649.5,111.5938,649.5,59" style="stroke: #000000; stroke-width: 1.5;"/><line style="stroke: #000000; stroke-width: 1.5;" x1="649.5" x2="807.5" y1="81.2969" y2="81.2969"/><text fill="#000000" font-family="sans-serif" font-size="14" font-weight="bold" lengthAdjust="spacingAndGlyphs" textLength="145" x="653.5" y="73.9951">application_facade</text><polygon fill="#DDDDDD" filter="url(#fsh94numfq9hi)" points="427,172,585,172,592,194.2969,599,194.2969,599,224.5938,427,224.5938,427,172" style="stroke: #000000; stroke-width: 1.5;"/><line style="stroke: #000000; stroke-width: 1.5;" x1="427" x2="592" y1="194.2969" y2="194.2969"/><text fill="#000000" font-family="sans-serif" font-size="14" font-weight="bold" lengthAdjust="spacingAndGlyphs" textLength="152" x="431" y="186.9951">business_workflow</text><polygon fill="#DDDDDD" filter="url(#fsh94numfq9hi)" points="634,172,816,172,823,194.2969,830,194.2969,830,224.5938,634,224.5938,634,172" style="stroke: #000000; stroke-width: 1.5;"/><line style="stroke: #000000; stroke-width: 1.5;" x1="634" x2="823" y1="194.2969" y2="194.2969"/><text fill="#000000" font-family="sans-serif" font-size="14" font-weight="bold" lengthAdjust="spacingAndGlyphs" textLength="176" x="638" y="186.9951">business_components</text><polygon fill="#DDDDDD" filter="url(#fsh94numfq9hi)" points="865.5,172,1008.5,172,1015.5,194.2969,1022.5,194.2969,1022.5,224.5938,865.5,224.5938,865.5,172" style="stroke: #000000; stroke-width: 1.5;"/><line style="stroke: #000000; stroke-width: 1.5;" x1="865.5" x2="1015.5" y1="194.2969" y2="194.2969"/><text fill="#000000" font-family="sans-serif" font-size="14" font-weight="bold" lengthAdjust="spacingAndGlyphs" textLength="137" x="869.5" y="186.9951">business_entities</text><polygon fill="#DDDDDD" filter="url(#fsh94numfq9hi)" points="241,285,343,285,350,307.2969,357,307.2969,357,337.5938,241,337.5938,241,285" style="stroke: #000000; stroke-width: 1.5;"/><line style="stroke: #000000; stroke-width: 1.5;" x1="241" x2="350" y1="307.2969" y2="307.2969"/><text fill="#000000" font-family="sans-serif" font-size="14" font-weight="bold" lengthAdjust="spacingAndGlyphs" textLength="96" x="245" y="299.9951">data_access</text><polygon fill="#DDDDDD" filter="url(#fsh94numfq9hi)" points="66.5,285,191.5,285,198.5,307.2969,205.5,307.2969,205.5,337.5938,66.5,337.5938,66.5,285" style="stroke: #000000; stroke-width: 1.5;"/><line style="stroke: #000000; stroke-width: 1.5;" x1="66.5" x2="198.5" y1="307.2969" y2="307.2969"/><text fill="#000000" font-family="sans-serif" font-size="14" font-weight="bold" lengthAdjust="spacingAndGlyphs" textLength="119" x="70.5" y="299.9951">service_agents</text><polygon fill="#DDDDDD" filter="url(#fsh94numfq9hi)" points="855,285,925,285,932,307.2969,939,307.2969,939,337.5938,855,337.5938,855,285" style="stroke: #000000; stroke-width: 1.5;"/><line style="stroke: #000000; stroke-width: 1.5;" x1="855" x2="932" y1="307.2969" y2="307.2969"/><text fill="#000000" font-family="sans-serif" font-size="14" font-weight="bold" lengthAdjust="spacingAndGlyphs" textLength="64" x="859" y="299.9951">security</text><polygon fill="#DDDDDD" filter="url(#fsh94numfq9hi)" points="602,285,806,285,813,307.2969,820,307.2969,820,337.5938,602,337.5938,602,285" style="stroke: #000000; stroke-width: 1.5;"/><line style="stroke: #000000; stroke-width: 1.5;" x1="602" x2="813" y1="307.2969" y2="307.2969"/><text fill="#000000" font-family="sans-serif" font-size="14" font-weight="bold" lengthAdjust="spacingAndGlyphs" textLength="198" x="606" y="299.9951">operational_management</text><polygon fill="#DDDDDD" filter="url(#fsh94numfq9hi)" points="427.5,285,552.5,285,559.5,307.2969,566.5,307.2969,566.5,337.5938,427.5,337.5938,427.5,285" style="stroke: #000000; stroke-width: 1.5;"/><line style="stroke: #000000; stroke-width: 1.5;" x1="427.5" x2="559.5" y1="307.2969" y2="307.2969"/><text fill="#000000" font-family="sans-serif" font-size="14" font-weight="bold" lengthAdjust="spacingAndGlyphs" textLength="119" x="431.5" y="299.9951">communication</text><!--MD5=[992da61599c61bf588e93beac70fbe2a]
link p3.1 to p3.2--><path d="M654.5477,112.0224 C641.7865,117.1769 628.862,122.8942 617,129 C594.7411,140.4575 571.4396,155.6896 552.5483,168.9733 " fill="none" id="p3.1-&gt;p3.2" style="stroke: #A80036; stroke-width: 1.0; stroke-dasharray: 7.0,7.0;"/><polygon fill="#A80036" points="548.3401,171.9514,557.9973,170.0176,552.4215,169.0631,553.376,163.4874,548.3401,171.9514" style="stroke: #A80036; stroke-width: 1.0;"/><!--MD5=[fb17eb18d39ddbee3101eafdbbad1f9f]
link p3.1 to p3.3--><path d="M732,112.2794 C732,128.6038 732,149.5556 732,166.7176 " fill="none" id="p3.1-&gt;p3.3" style="stroke: #A80036; stroke-width: 1.0; stroke-dasharray: 7.0,7.0;"/><polygon fill="#A80036" points="732,171.9128,736,162.9128,732,166.9128,728,162.9128,732,171.9128" style="stroke: #A80036; stroke-width: 1.0;"/><!--MD5=[5450d0ad9133aff6a5434e48de0cfc2a]
link p3.1 to p3.4--><path d="M811.5674,112.0911 C824.0105,117.1697 836.5352,122.845 848,129 C868.7232,140.1254 890.0808,155.1728 907.3743,168.4213 " fill="none" id="p3.1-&gt;p3.4" style="stroke: #A80036; stroke-width: 1.0; stroke-dasharray: 7.0,7.0;"/><polygon fill="#A80036" points="911.6805,171.7474,907.003,163.0802,907.7235,168.6909,902.1127,169.4114,911.6805,171.7474" style="stroke: #A80036; stroke-width: 1.0;"/><!--MD5=[4ef60940496ff64d6ff13fdfdd3cc31c]
link p1 to p2--><!--MD5=[9e1d7fb9fc918fc2e85210e92d61802d]
link p2 to p4--><!--MD5=[3dc4d4a0adb5a35897a31bc95392fa3c]
link p4 to p5--><!--MD5=[5a094a267e41dd3e15516d0701569d85]
@startuml

package "<<expanded>>\npresentation_layer" as p1 #FFB3BA{

    package "user_interface" as p1.1 #DDDDDD {}
    package "presentation_logic" as p1.2 #DDDDDD {}
}

package "<<expanded>>\nservices_layer" as p2 #FFDFBA {
    package "user_interface" as p2.1 #DDDDDD {}
    package "presentation_logic" as p2.2 #DDDDDD {}
}

package "<<expanded>>\nbusiness_layer" as p3 #BAFFC9 {
    package "application_facade" as p3.1 #DDDDDD {}
    package "business_workflow" as p3.2 #DDDDDD {}
    package "business_components" as p3.3 #DDDDDD {}
    package "business_entities" as p3.4 #DDDDDD {}

    p3.1 ..> p3.2
    p3.1 ..> p3.3
    p3.1 ..> p3.4
}

package "<<expanded>>\ndata_layer" as p4 #BAE1FF{
    package "data_access" as p4.1 #DDDDDD {}
    package "service_agents" as p4.2 #DDDDDD {}
}

package "<<expanded>>\ncross_cutting" as p5 #CBAACB {
    package "security" as p5.1 #DDDDDD {}
    package "operational_management" as p5.2 #DDDDDD {}
    package "communication" as p5.3 #DDDDDD {}
}

p1 -[hidden]up-> p2
p2 -[hidden]up-> p4
p4 -[hidden]left-> p5

@enduml

PlantUML version 1.2020.06(Sun Apr 05 12:38:32 GMT 2020)
(GPL source distribution)
Java Runtime: OpenJDK Runtime Environment
JVM: OpenJDK 64-Bit Server VM
Java Version: 14-ea+33
Operating System: Linux
Default Encoding: UTF-8
Language: en
Country: US
--></g></svg>