<?xml version="1.0" encoding="UTF-8" standalone="no"?><svg xmlns="http://www.w3.org/2000/svg" xmlns:xlink="http://www.w3.org/1999/xlink" contentScriptType="application/ecmascript" contentStyleType="text/css" height="803px" preserveAspectRatio="none" style="width:1682px;height:803px;" version="1.1" viewBox="0 0 1682 803" width="1682px" zoomAndPan="magnify"><defs><filter height="300%" id="f133alrdvtou7q" width="300%" x="-1" y="-1"><feGaussianBlur result="blurOut" stdDeviation="2.0"/><feColorMatrix in="blurOut" result="blurOut2" type="matrix" values="0 0 0 0 0 0 0 0 0 0 0 0 0 0 0 0 0 0 .4 0"/><feOffset dx="4.0" dy="4.0" in="blurOut2" result="blurOut3"/><feBlend in="SourceGraphic" in2="blurOut3" mode="normal"/></filter></defs><g><!--MD5=[b7453caa40eb68c81094cbe9174d4a6e]
cluster pkg0--><polygon fill="#FFFFBA" filter="url(#f133alrdvtou7q)" points="14,16,152,16,159,38.2969,458,38.2969,458,791,14,791,14,16" style="stroke: #000000; stroke-width: 1.5;"/><line style="stroke: #000000; stroke-width: 1.5;" x1="14" x2="159" y1="38.2969" y2="38.2969"/><text fill="#000000" font-family="sans-serif" font-size="14" font-weight="bold" lengthAdjust="spacingAndGlyphs" textLength="132" x="18" y="30.9951">layered_example</text><!--MD5=[fedee1b5a49a422abb3fa93dface23fd]
cluster p1--><polygon fill="#FFB3BA" filter="url(#f133alrdvtou7q)" points="643,16,796,16,803,54.5938,1029,54.5938,1029,120,643,120,643,16" style="stroke: #000000; stroke-width: 1.5;"/><line style="stroke: #000000; stroke-width: 1.5;" x1="643" x2="803" y1="54.5938" y2="54.5938"/><text fill="#000000" font-family="sans-serif" font-size="14" font-weight="bold" lengthAdjust="spacingAndGlyphs" textLength="126" x="657.5" y="30.9951">&lt;&lt;expanded&gt;&gt;</text><text fill="#000000" font-family="sans-serif" font-size="14" font-weight="bold" lengthAdjust="spacingAndGlyphs" textLength="147" x="647" y="47.292">presentation_layer</text><!--MD5=[c43102eb9af13b6e0584468567583f91]
cluster p2--><polygon fill="#FFDFBA" filter="url(#f133alrdvtou7q)" points="643,161,775,161,782,199.5938,1029,199.5938,1029,265,643,265,643,161" style="stroke: #000000; stroke-width: 1.5;"/><line style="stroke: #000000; stroke-width: 1.5;" x1="643" x2="782" y1="199.5938" y2="199.5938"/><text fill="#000000" font-family="sans-serif" font-size="14" font-weight="bold" lengthAdjust="spacingAndGlyphs" textLength="126" x="647" y="175.9951">&lt;&lt;expanded&gt;&gt;</text><text fill="#000000" font-family="sans-serif" font-size="14" font-weight="bold" lengthAdjust="spacingAndGlyphs" textLength="113" x="653.5" y="192.292">services_layer</text><!--MD5=[7f2e6138616fc2c683da5289fe2d6fe4]
cluster p3--><polygon fill="#BAFFC9" filter="url(#f133alrdvtou7q)" points="1048,16,1180,16,1187,54.5938,1660,54.5938,1660,265,1048,265,1048,16" style="stroke: #000000; stroke-width: 1.5;"/><line style="stroke: #000000; stroke-width: 1.5;" x1="1048" x2="1187" y1="54.5938" y2="54.5938"/><text fill="#000000" font-family="sans-serif" font-size="14" font-weight="bold" lengthAdjust="spacingAndGlyphs" textLength="126" x="1052" y="30.9951">&lt;&lt;expanded&gt;&gt;</text><text fill="#000000" font-family="sans-serif" font-size="14" font-weight="bold" lengthAdjust="spacingAndGlyphs" textLength="117" x="1056.5" y="47.292">business_layer</text><!--MD5=[9f7b572157959bf2ad531c4460d7f0a2]
cluster p4--><polygon fill="#BAE1FF" filter="url(#f133alrdvtou7q)" points="687,306,819,306,826,344.5938,1029,344.5938,1029,410,687,410,687,306" style="stroke: #000000; stroke-width: 1.5;"/><line style="stroke: #000000; stroke-width: 1.5;" x1="687" x2="826" y1="344.5938" y2="344.5938"/><text fill="#000000" font-family="sans-serif" font-size="14" font-weight="bold" lengthAdjust="spacingAndGlyphs" textLength="126" x="691" y="320.9951">&lt;&lt;expanded&gt;&gt;</text><text fill="#000000" font-family="sans-serif" font-size="14" font-weight="bold" lengthAdjust="spacingAndGlyphs" textLength="80" x="714" y="337.292">data_layer</text><!--MD5=[164f16af274aa610d6409b98ce46e3fe]
cluster p5--><polygon fill="#CBAACB" filter="url(#f133alrdvtou7q)" points="466,504.5,598,504.5,605,543.0938,1029,543.0938,1029,608.5,466,608.5,466,504.5" style="stroke: #000000; stroke-width: 1.5;"/><line style="stroke: #000000; stroke-width: 1.5;" x1="466" x2="605" y1="543.0938" y2="543.0938"/><text fill="#000000" font-family="sans-serif" font-size="14" font-weight="bold" lengthAdjust="spacingAndGlyphs" textLength="126" x="470" y="519.4951">&lt;&lt;expanded&gt;&gt;</text><text fill="#000000" font-family="sans-serif" font-size="14" font-weight="bold" lengthAdjust="spacingAndGlyphs" textLength="106" x="480" y="535.792">cross_cutting</text><polygon fill="#DDDDDD" filter="url(#f133alrdvtou7q)" points="201,59,243,59,250,81.2969,257,81.2969,257,111.5938,201,111.5938,201,59" style="stroke: #000000; stroke-width: 1.5;"/><line style="stroke: #000000; stroke-width: 1.5;" x1="201" x2="250" y1="81.2969" y2="81.2969"/><text fill="#000000" font-family="sans-serif" font-size="14" font-weight="bold" lengthAdjust="spacingAndGlyphs" textLength="36" x="205" y="73.9951">user</text><polygon fill="#FFB3BA" filter="url(#f133alrdvtou7q)" points="100.5,188,253.5,188,260.5,226.5938,267.5,226.5938,267.5,273.1875,100.5,273.1875,100.5,188" style="stroke: #000000; stroke-width: 1.5;"/><line style="stroke: #000000; stroke-width: 1.5;" x1="100.5" x2="260.5" y1="226.5938" y2="226.5938"/><text fill="#000000" font-family="sans-serif" font-size="14" font-weight="bold" lengthAdjust="spacingAndGlyphs" textLength="123" x="116.5" y="202.9951">&lt;&lt;collapsed&gt;&gt;</text><text fill="#000000" font-family="sans-serif" font-size="14" font-weight="bold" lengthAdjust="spacingAndGlyphs" textLength="147" x="104.5" y="219.292">presentation_layer</text><polygon fill="#FFDFBA" filter="url(#f133alrdvtou7q)" points="302.5,188,431.5,188,438.5,226.5938,445.5,226.5938,445.5,273.1875,302.5,273.1875,302.5,188" style="stroke: #000000; stroke-width: 1.5;"/><line style="stroke: #000000; stroke-width: 1.5;" x1="302.5" x2="438.5" y1="226.5938" y2="226.5938"/><text fill="#000000" font-family="sans-serif" font-size="14" font-weight="bold" lengthAdjust="spacingAndGlyphs" textLength="123" x="306.5" y="202.9951">&lt;&lt;collapsed&gt;&gt;</text><text fill="#000000" font-family="sans-serif" font-size="14" font-weight="bold" lengthAdjust="spacingAndGlyphs" textLength="113" x="311.5" y="219.292">services_layer</text><polygon fill="#DDDDDD" filter="url(#f133alrdvtou7q)" points="292,59,436,59,443,81.2969,450,81.2969,450,111.5938,292,111.5938,292,59" style="stroke: #000000; stroke-width: 1.5;"/><line style="stroke: #000000; stroke-width: 1.5;" x1="292" x2="443" y1="81.2969" y2="81.2969"/><text fill="#000000" font-family="sans-serif" font-size="14" font-weight="bold" lengthAdjust="spacingAndGlyphs" textLength="138" x="296" y="73.9951">external_systems</text><polygon fill="#BAFFC9" filter="url(#f133alrdvtou7q)" points="88.5,333,217.5,333,224.5,371.5938,231.5,371.5938,231.5,418.1875,88.5,418.1875,88.5,333" style="stroke: #000000; stroke-width: 1.5;"/><line style="stroke: #000000; stroke-width: 1.5;" x1="88.5" x2="224.5" y1="371.5938" y2="371.5938"/><text fill="#000000" font-family="sans-serif" font-size="14" font-weight="bold" lengthAdjust="spacingAndGlyphs" textLength="123" x="92.5" y="347.9951">&lt;&lt;collapsed&gt;&gt;</text><text fill="#000000" font-family="sans-serif" font-size="14" font-weight="bold" lengthAdjust="spacingAndGlyphs" textLength="117" x="95.5" y="364.292">business_layer</text><polygon fill="#BAE1FF" filter="url(#f133alrdvtou7q)" points="88.5,531.5,217.5,531.5,224.5,570.0938,231.5,570.0938,231.5,616.6875,88.5,616.6875,88.5,531.5" style="stroke: #000000; stroke-width: 1.5;"/><line style="stroke: #000000; stroke-width: 1.5;" x1="88.5" x2="224.5" y1="570.0938" y2="570.0938"/><text fill="#000000" font-family="sans-serif" font-size="14" font-weight="bold" lengthAdjust="spacingAndGlyphs" textLength="123" x="92.5" y="546.4951">&lt;&lt;collapsed&gt;&gt;</text><text fill="#000000" font-family="sans-serif" font-size="14" font-weight="bold" lengthAdjust="spacingAndGlyphs" textLength="80" x="114" y="562.792">data_layer</text><polygon fill="#CBAACB" filter="url(#f133alrdvtou7q)" points="22.5,43,151.5,43,158.5,81.5938,165.5,81.5938,165.5,128.1875,22.5,128.1875,22.5,43" style="stroke: #000000; stroke-width: 1.5;"/><line style="stroke: #000000; stroke-width: 1.5;" x1="22.5" x2="158.5" y1="81.5938" y2="81.5938"/><text fill="#000000" font-family="sans-serif" font-size="14" font-weight="bold" lengthAdjust="spacingAndGlyphs" textLength="123" x="26.5" y="57.9951">&lt;&lt;collapsed&gt;&gt;</text><text fill="#000000" font-family="sans-serif" font-size="14" font-weight="bold" lengthAdjust="spacingAndGlyphs" textLength="106" x="35" y="74.292">cross_cutting</text><polygon fill="#DDDDDD" filter="url(#f133alrdvtou7q)" points="58.5,730,169.5,730,176.5,752.2969,183.5,752.2969,183.5,782.5938,58.5,782.5938,58.5,730" style="stroke: #000000; stroke-width: 1.5;"/><line style="stroke: #000000; stroke-width: 1.5;" x1="58.5" x2="176.5" y1="752.2969" y2="752.2969"/><text fill="#000000" font-family="sans-serif" font-size="14" font-weight="bold" lengthAdjust="spacingAndGlyphs" textLength="105" x="62.5" y="744.9951">data_sources</text><polygon fill="#DDDDDD" filter="url(#f133alrdvtou7q)" points="218.5,730,363.5,730,370.5,752.2969,377.5,752.2969,377.5,782.5938,218.5,782.5938,218.5,730" style="stroke: #000000; stroke-width: 1.5;"/><line style="stroke: #000000; stroke-width: 1.5;" x1="218.5" x2="370.5" y1="752.2969" y2="752.2969"/><text fill="#000000" font-family="sans-serif" font-size="14" font-weight="bold" lengthAdjust="spacingAndGlyphs" textLength="139" x="222.5" y="744.9951">external_services</text><polygon fill="#DDDDDD" filter="url(#f133alrdvtou7q)" points="852,59,972,59,979,81.2969,986,81.2969,986,111.5938,852,111.5938,852,59" style="stroke: #000000; stroke-width: 1.5;"/><line style="stroke: #000000; stroke-width: 1.5;" x1="852" x2="979" y1="81.2969" y2="81.2969"/><text fill="#000000" font-family="sans-serif" font-size="14" font-weight="bold" lengthAdjust="spacingAndGlyphs" textLength="114" x="856" y="73.9951">user_interface</text><polygon fill="#DDDDDD" filter="url(#f133alrdvtou7q)" points="651.5,59,802.5,59,809.5,81.2969,816.5,81.2969,816.5,111.5938,651.5,111.5938,651.5,59" style="stroke: #000000; stroke-width: 1.5;"/><line style="stroke: #000000; stroke-width: 1.5;" x1="651.5" x2="809.5" y1="81.2969" y2="81.2969"/><text fill="#000000" font-family="sans-serif" font-size="14" font-weight="bold" lengthAdjust="spacingAndGlyphs" textLength="145" x="655.5" y="73.9951">presentation_logic</text><polygon fill="#DDDDDD" filter="url(#f133alrdvtou7q)" points="852,204,972,204,979,226.2969,986,226.2969,986,256.5938,852,256.5938,852,204" style="stroke: #000000; stroke-width: 1.5;"/><line style="stroke: #000000; stroke-width: 1.5;" x1="852" x2="979" y1="226.2969" y2="226.2969"/><text fill="#000000" font-family="sans-serif" font-size="14" font-weight="bold" lengthAdjust="spacingAndGlyphs" textLength="114" x="856" y="218.9951">user_interface</text><polygon fill="#DDDDDD" filter="url(#f133alrdvtou7q)" points="651.5,204,802.5,204,809.5,226.2969,816.5,226.2969,816.5,256.5938,651.5,256.5938,651.5,204" style="stroke: #000000; stroke-width: 1.5;"/><line style="stroke: #000000; stroke-width: 1.5;" x1="651.5" x2="809.5" y1="226.2969" y2="226.2969"/><text fill="#000000" font-family="sans-serif" font-size="14" font-weight="bold" lengthAdjust="spacingAndGlyphs" textLength="145" x="655.5" y="218.9951">presentation_logic</text><polygon fill="#DDDDDD" filter="url(#f133alrdvtou7q)" points="1252.5,59,1403.5,59,1410.5,81.2969,1417.5,81.2969,1417.5,111.5938,1252.5,111.5938,1252.5,59" style="stroke: #000000; stroke-width: 1.5;"/><line style="stroke: #000000; stroke-width: 1.5;" x1="1252.5" x2="1410.5" y1="81.2969" y2="81.2969"/><text fill="#000000" font-family="sans-serif" font-size="14" font-weight="bold" lengthAdjust="spacingAndGlyphs" textLength="145" x="1256.5" y="73.9951">application_facade</text><polygon fill="#DDDDDD" filter="url(#f133alrdvtou7q)" points="1249,204,1407,204,1414,226.2969,1421,226.2969,1421,256.5938,1249,256.5938,1249,204" style="stroke: #000000; stroke-width: 1.5;"/><line style="stroke: #000000; stroke-width: 1.5;" x1="1249" x2="1414" y1="226.2969" y2="226.2969"/><text fill="#000000" font-family="sans-serif" font-size="14" font-weight="bold" lengthAdjust="spacingAndGlyphs" textLength="152" x="1253" y="218.9951">business_workflow</text><polygon fill="#DDDDDD" filter="url(#f133alrdvtou7q)" points="1456,204,1638,204,1645,226.2969,1652,226.2969,1652,256.5938,1456,256.5938,1456,204" style="stroke: #000000; stroke-width: 1.5;"/><line style="stroke: #000000; stroke-width: 1.5;" x1="1456" x2="1645" y1="226.2969" y2="226.2969"/><text fill="#000000" font-family="sans-serif" font-size="14" font-weight="bold" lengthAdjust="spacingAndGlyphs" textLength="176" x="1460" y="218.9951">business_components</text><polygon fill="#DDDDDD" filter="url(#f133alrdvtou7q)" points="1056.5,204,1199.5,204,1206.5,226.2969,1213.5,226.2969,1213.5,256.5938,1056.5,256.5938,1056.5,204" style="stroke: #000000; stroke-width: 1.5;"/><line style="stroke: #000000; stroke-width: 1.5;" x1="1056.5" x2="1206.5" y1="226.2969" y2="226.2969"/><text fill="#000000" font-family="sans-serif" font-size="14" font-weight="bold" lengthAdjust="spacingAndGlyphs" textLength="137" x="1060.5" y="218.9951">business_entities</text><polygon fill="#DDDDDD" filter="url(#f133alrdvtou7q)" points="870,349,972,349,979,371.2969,986,371.2969,986,401.5938,870,401.5938,870,349" style="stroke: #000000; stroke-width: 1.5;"/><line style="stroke: #000000; stroke-width: 1.5;" x1="870" x2="979" y1="371.2969" y2="371.2969"/><text fill="#000000" font-family="sans-serif" font-size="14" font-weight="bold" lengthAdjust="spacingAndGlyphs" textLength="96" x="874" y="363.9951">data_access</text><polygon fill="#DDDDDD" filter="url(#f133alrdvtou7q)" points="695.5,349,820.5,349,827.5,371.2969,834.5,371.2969,834.5,401.5938,695.5,401.5938,695.5,349" style="stroke: #000000; stroke-width: 1.5;"/><line style="stroke: #000000; stroke-width: 1.5;" x1="695.5" x2="827.5" y1="371.2969" y2="371.2969"/><text fill="#000000" font-family="sans-serif" font-size="14" font-weight="bold" lengthAdjust="spacingAndGlyphs" textLength="119" x="699.5" y="363.9951">service_agents</text><polygon fill="#DDDDDD" filter="url(#f133alrdvtou7q)" points="902,547.5,972,547.5,979,569.7969,986,569.7969,986,600.0938,902,600.0938,902,547.5" style="stroke: #000000; stroke-width: 1.5;"/><line style="stroke: #000000; stroke-width: 1.5;" x1="902" x2="979" y1="569.7969" y2="569.7969"/><text fill="#000000" font-family="sans-serif" font-size="14" font-weight="bold" lengthAdjust="spacingAndGlyphs" textLength="64" x="906" y="562.4951">security</text><polygon fill="#DDDDDD" filter="url(#f133alrdvtou7q)" points="649,547.5,853,547.5,860,569.7969,867,569.7969,867,600.0938,649,600.0938,649,547.5" style="stroke: #000000; stroke-width: 1.5;"/><line style="stroke: #000000; stroke-width: 1.5;" x1="649" x2="860" y1="569.7969" y2="569.7969"/><text fill="#000000" font-family="sans-serif" font-size="14" font-weight="bold" lengthAdjust="spacingAndGlyphs" textLength="198" x="653" y="562.4951">operational_management</text><polygon fill="#DDDDDD" filter="url(#f133alrdvtou7q)" points="474.5,547.5,599.5,547.5,606.5,569.7969,613.5,569.7969,613.5,600.0938,474.5,600.0938,474.5,547.5" style="stroke: #000000; stroke-width: 1.5;"/><line style="stroke: #000000; stroke-width: 1.5;" x1="474.5" x2="606.5" y1="569.7969" y2="569.7969"/><text fill="#000000" font-family="sans-serif" font-size="14" font-weight="bold" lengthAdjust="spacingAndGlyphs" textLength="119" x="478.5" y="562.4951">communication</text><path d="M1056,478 L1056,669.5938 L1488,669.5938 L1488,488 L1478,478 L1056,478 " fill="#FBFB77" filter="url(#f133alrdvtou7q)" style="stroke: #A80036; stroke-width: 1.0;"/><path d="M1478,478 L1478,488 L1488,488 L1478,478 " fill="#FBFB77" style="stroke: #A80036; stroke-width: 1.0;"/><text fill="#000000" font-family="sans-serif" font-size="13" font-weight="bold" lengthAdjust="spacingAndGlyphs" textLength="125" x="1062" y="495.0669">layered_example</text><text fill="#000000" font-family="sans-serif" font-size="13" lengthAdjust="spacingAndGlyphs" textLength="343" x="1062" y="510.1997">In dit voorbeeld heb ik een meer uitgebreidere variant</text><text fill="#000000" font-family="sans-serif" font-size="13" lengthAdjust="spacingAndGlyphs" textLength="290" x="1062" y="525.3325">van een nested package systeem uitgewerkt.</text><text fill="#000000" font-family="sans-serif" font-size="13" lengthAdjust="spacingAndGlyphs" textLength="0" x="1066" y="540.4653"/><text fill="#000000" font-family="sans-serif" font-size="13" lengthAdjust="spacingAndGlyphs" textLength="351" x="1062" y="555.5981">Omdat het positioneren van de verschillende packages</text><text fill="#000000" font-family="sans-serif" font-size="13" lengthAdjust="spacingAndGlyphs" textLength="331" x="1062" y="570.731">erg lastig gaat met plantuml heb ik er voor gekozen</text><text fill="#000000" font-family="sans-serif" font-size="13" lengthAdjust="spacingAndGlyphs" textLength="394" x="1062" y="585.8638">om alle packages zonder inhoud weer te geven in de package</text><text fill="#000000" font-family="sans-serif" font-size="13" font-weight="bold" lengthAdjust="spacingAndGlyphs" textLength="139" x="1062" y="600.9966">"layered_example"</text><text fill="#000000" font-family="sans-serif" font-size="13" lengthAdjust="spacingAndGlyphs" textLength="229" x="1201" y="600.9966">. Naast de "layered_example" staan</text><text fill="#000000" font-family="sans-serif" font-size="13" lengthAdjust="spacingAndGlyphs" textLength="411" x="1062" y="616.1294">de packages die inhoudelijk iets bevatten nogmaals weergegevn</text><text fill="#000000" font-family="sans-serif" font-size="13" lengthAdjust="spacingAndGlyphs" textLength="124" x="1062" y="631.2622">met het stereotype</text><text fill="#000000" font-family="sans-serif" font-size="13" font-weight="bold" lengthAdjust="spacingAndGlyphs" textLength="118" x="1190" y="631.2622">&lt;&lt;expanded&gt;&gt;</text><text fill="#000000" font-family="sans-serif" font-size="13" lengthAdjust="spacingAndGlyphs" textLength="4" x="1308" y="631.2622">.</text><text fill="#000000" font-family="sans-serif" font-size="13" lengthAdjust="spacingAndGlyphs" textLength="382" x="1062" y="646.395">Met het gebruik van verschillende kleuren heb ik een poging</text><text fill="#000000" font-family="sans-serif" font-size="13" lengthAdjust="spacingAndGlyphs" textLength="357" x="1062" y="661.5278">gedaan om er een overzichtelijk diagram van te maken.</text><!--MD5=[152de66f05cf1ae003343a55b4cd00a1]
link pkg3 to pkg2--><!--MD5=[2fdb3a3a0cc41ad46a3ec3964cf9c84d]
link pkg1 to pkg2--><path d="M220.7463,112.0952 C214.611,131.8645 206.075,159.3695 198.7741,182.8944 " fill="none" id="pkg1-&gt;pkg2" style="stroke: #A80036; stroke-width: 1.0; stroke-dasharray: 7.0,7.0;"/><polygon fill="#A80036" points="197.2363,187.8498,203.7242,180.4398,198.7183,183.0745,196.0837,178.0686,197.2363,187.8498" style="stroke: #A80036; stroke-width: 1.0;"/><!--MD5=[0b4dfb19ae367dfb430f7b7674479840]
link pkg4 to pkg3--><path d="M371.5502,112.0952 C371.9576,131.7817 372.5236,159.1395 373.0089,182.5989 " fill="none" id="pkg4-&gt;pkg3" style="stroke: #A80036; stroke-width: 1.0; stroke-dasharray: 7.0,7.0;"/><polygon fill="#A80036" points="373.1176,187.8498,376.9303,178.7689,373.014,182.8509,368.932,178.9346,373.1176,187.8498" style="stroke: #A80036; stroke-width: 1.0;"/><!--MD5=[68541470b3baccbe46c0f026d2c81da0]
link pkg3 to pkg5--><path d="M311.2389,273.025 C284.7816,290.9517 253.9445,311.846 227.0425,330.074 " fill="none" id="pkg3-&gt;pkg5" style="stroke: #A80036; stroke-width: 1.0; stroke-dasharray: 7.0,7.0;"/><polygon fill="#A80036" points="222.76,332.9757,232.4545,331.2388,226.8993,330.1711,227.9671,324.6159,222.76,332.9757" style="stroke: #A80036; stroke-width: 1.0;"/><!--MD5=[909b4121c1961e37504ccc47ee087644]
link pkg2 to pkg5--><path d="M176.929,273.2205 C174.1221,290.1787 170.8798,309.7679 167.9885,327.236 " fill="none" id="pkg2-&gt;pkg5" style="stroke: #A80036; stroke-width: 1.0; stroke-dasharray: 7.0,7.0;"/><polygon fill="#A80036" points="167.1034,332.5838,172.5195,324.3579,167.92,327.6509,164.6269,323.0514,167.1034,332.5838" style="stroke: #A80036; stroke-width: 1.0;"/><!--MD5=[54c7da9a4d51f1a90f3c2579e7ea2fd2]
link pkg5 to pkg6--><!--MD5=[54c7da9a4d51f1a90f3c2579e7ea2fd2]
link pkg5 to pkg6--><path d="M171.3146,418.0832 C174.0824,449.8743 174.2211,493.3305 171.7307,526.2908 " fill="none" id="pkg5-&gt;pkg6-1" style="stroke: #A80036; stroke-width: 1.0; stroke-dasharray: 7.0,7.0;"/><polygon fill="#A80036" points="171.3085,531.4872,176.0244,522.8408,171.7135,526.5036,168.0506,522.1928,171.3085,531.4872" style="stroke: #A80036; stroke-width: 1.0;"/><!--MD5=[eaea97b131caffac09ff520e41d76031]
link pkg6 to pkg8--><path d="M150.8562,616.7881 C143.7903,649.853 134.1687,694.8772 127.7795,724.7754 " fill="none" id="pkg6-&gt;pkg8" style="stroke: #A80036; stroke-width: 1.0; stroke-dasharray: 7.0,7.0;"/><polygon fill="#A80036" points="126.7042,729.8072,132.4969,721.842,127.7492,724.9176,124.6735,720.17,126.7042,729.8072" style="stroke: #A80036; stroke-width: 1.0;"/><!--MD5=[66f363de62ff28e2e547e23fb8b00337]
link pkg6 to pkg9--><path d="M192.3549,616.7881 C217.564,650.1263 251.9664,695.6222 274.5692,725.5136 " fill="none" id="pkg6-&gt;pkg9" style="stroke: #A80036; stroke-width: 1.0; stroke-dasharray: 7.0,7.0;"/><polygon fill="#A80036" points="277.8159,729.8072,275.5779,720.216,274.8001,725.8191,269.197,725.0413,277.8159,729.8072" style="stroke: #A80036; stroke-width: 1.0;"/><!--MD5=[dbb8589502356e87512e6b8563f07bfb]
reverse link pkg7 to pkg2--><path d="M123.2729,132.6619 C134.2443,150.338 146.6423,170.3127 157.3623,187.5838 " fill="none" id="pkg7&lt;-pkg2" style="stroke: #A80036; stroke-width: 1.0; stroke-dasharray: 7.0,7.0;"/><polygon fill="#A80036" points="120.5162,128.2205,121.864,137.9767,123.1531,132.4687,128.6611,133.7577,120.5162,128.2205" style="stroke: #A80036; stroke-width: 1.0;"/><!--MD5=[62849700bd8430fb82368af4d6c9f644]
reverse link pkg7 to pkg3--><path d="M170.7159,122.5067 C175.1865,124.4196 179.6371,126.2651 184,128 C227.8818,145.4501 243.319,138.8004 285,161 C299.0156,168.4648 313.072,178.1636 325.7403,187.9355 " fill="none" id="pkg7&lt;-pkg3" style="stroke: #A80036; stroke-width: 1.0; stroke-dasharray: 7.0,7.0;"/><polygon fill="#A80036" points="165.8601,120.4065,172.5327,127.6506,170.4493,122.3914,175.7085,120.3079,165.8601,120.4065" style="stroke: #A80036; stroke-width: 1.0;"/><!--MD5=[909818997e429af202746826567408b1]
reverse link pkg7 to pkg5--><path d="M81.5986,133.1228 C73.7735,171.8115 67.7353,227.2655 83,273 C90.2931,294.851 104.2752,315.7876 118.3454,332.9776 " fill="none" id="pkg7&lt;-pkg5" style="stroke: #A80036; stroke-width: 1.0; stroke-dasharray: 7.0,7.0;"/><polygon fill="#A80036" points="82.6616,128.0154,76.9116,136.0115,81.6427,132.9105,84.7437,137.6417,82.6616,128.0154" style="stroke: #A80036; stroke-width: 1.0;"/><!--MD5=[8c6760a88e382342d665e7bee1b9defc]
reverse link pkg7 to pkg6--><path d="M73.4931,133.0058 C70.383,142.1375 67.6612,151.743 66,161 C45.8203,273.4475 39.8167,308.0943 71,418 C82.7026,459.2458 107.5093,501.1885 127.9675,531.1806 " fill="none" id="pkg7&lt;-pkg6" style="stroke: #A80036; stroke-width: 1.0; stroke-dasharray: 7.0,7.0;"/><polygon fill="#A80036" points="75.1513,128.2781,68.3978,135.4468,73.4963,132.9963,75.9468,138.0948,75.1513,128.2781" style="stroke: #A80036; stroke-width: 1.0;"/><!--MD5=[992da61599c61bf588e93beac70fbe2a]
link p3.1 to p3.2--><path d="M1335,112.0952 C1335,136.4694 1335,172.6031 1335,198.5379 " fill="none" id="p3.1-&gt;p3.2" style="stroke: #A80036; stroke-width: 1.0; stroke-dasharray: 7.0,7.0;"/><polygon fill="#A80036" points="1335,203.5823,1339,194.5823,1335,198.5823,1331,194.5823,1335,203.5823" style="stroke: #A80036; stroke-width: 1.0;"/><!--MD5=[fb17eb18d39ddbee3101eafdbbad1f9f]
link p3.1 to p3.3--><path d="M1375.168,112.0952 C1413.1743,137.2592 1470.1112,174.9572 1509.4842,201.0261 " fill="none" id="p3.1-&gt;p3.3" style="stroke: #A80036; stroke-width: 1.0; stroke-dasharray: 7.0,7.0;"/><polygon fill="#A80036" points="1513.7164,203.8282,1508.4203,195.5245,1509.5473,201.068,1504.0039,202.195,1513.7164,203.8282" style="stroke: #A80036; stroke-width: 1.0;"/><!--MD5=[5450d0ad9133aff6a5434e48de0cfc2a]
link p3.1 to p3.4--><path d="M1298.3169,112.0952 C1263.7485,137.1574 1212.0315,174.6521 1176.0912,200.7089 " fill="none" id="p3.1-&gt;p3.4" style="stroke: #A80036; stroke-width: 1.0; stroke-dasharray: 7.0,7.0;"/><polygon fill="#A80036" points="1171.7886,203.8282,1181.423,201.784,1175.8367,200.8934,1176.7273,195.3071,1171.7886,203.8282" style="stroke: #A80036; stroke-width: 1.0;"/><!--MD5=[4ef60940496ff64d6ff13fdfdd3cc31c]
link p1 to p2--><!--MD5=[9e1d7fb9fc918fc2e85210e92d61802d]
link p2 to p4--><!--MD5=[3dc4d4a0adb5a35897a31bc95392fa3c]
link p4 to p5--><!--MD5=[66287407699acdd16f870578efa91b01]
reverse link p5 to n1--><!--MD5=[a53515a2f46b4b44f24166323a6f35e4]
@startuml

package layered_example as pkg0 #FFFFBA{
    package "user" as pkg1 #DDDDDD {}
    package "<<collapsed>>\npresentation_layer" as pkg2 #FFB3BA{}
    package "<<collapsed>>\nservices_layer" as pkg3 #FFDFBA{}
    package "external_systems" as pkg4 #DDDDDD {}

    package "<<collapsed>>\nbusiness_layer" as pkg5 #BAFFC9{}
    package "<<collapsed>>\ndata_layer" as pkg6 #BAE1FF{}
    package "<<collapsed>>\ncross_cutting" as pkg7 #CBAACB{}
    package "data_sources" as pkg8 #DDDDDD {}
    package "external_services" as pkg9 #DDDDDD {}

    pkg3 .[hidden]left.> pkg2

    pkg1 ..> pkg2
    pkg4 ..> pkg3

    pkg3 .down.> pkg5
    pkg2 .down.> pkg5

    pkg5 -[hidden]down-> pkg6

    pkg5 .down.> pkg6
    pkg6 ..> pkg8
    pkg6 ..> pkg9

    pkg7 <.. pkg2
    pkg7 <.. pkg3
    pkg7 <.. pkg5
    pkg7 <.. pkg6
}

package "<<expanded>>\npresentation_layer" as p1 #FFB3BA{
    package "user_interface" as p1.1 #DDDDDD {}
    package "presentation_logic" as p1.2 #DDDDDD {}
}

package "<<expanded>>\nservices_layer" as p2 #FFDFBA {
    package "user_interface" as p2.1 #DDDDDD {}
    package "presentation_logic" as p2.2 #DDDDDD {}
}

package "<<expanded>>\nbusiness_layer" as p3 #BAFFC9 {
    package "application_facade" as p3.1 #DDDDDD {}
    package "business_workflow" as p3.2 #DDDDDD {}
    package "business_components" as p3.3 #DDDDDD {}
    package "business_entities" as p3.4 #DDDDDD {}

    p3.1 ..> p3.2
    p3.1 ..> p3.3
    p3.1 ..> p3.4
}

package "<<expanded>>\ndata_layer" as p4 #BAE1FF{
    package "data_access" as p4.1 #DDDDDD {}
    package "service_agents" as p4.2 #DDDDDD {}
}

package "<<expanded>>\ncross_cutting" as p5 #CBAACB {
    package "security" as p5.1 #DDDDDD {}
    package "operational_management" as p5.2 #DDDDDD {}
    package "communication" as p5.3 #DDDDDD {}
}

p1 -[hidden]-> p2
p2 -[hidden]-> p4
p4 -[hidden]-> p5

note as n1
    **layered_example**
    In dit voorbeeld heb ik een meer uitgebreidere variant
    van een nested package systeem uitgewerkt.

    Omdat het positioneren van de verschillende packages
    erg lastig gaat met plantuml heb ik er voor gekozen
    om alle packages zonder inhoud weer te geven in de package
    **"layered_example"**. Naast de "layered_example" staan
    de packages die inhoudelijk iets bevatten nogmaals weergegevn
    met het stereotype **<<expanded>>**.
    Met het gebruik van verschillende kleuren heb ik een poging
    gedaan om er een overzichtelijk diagram van te maken.
end note

n1 -[hidden]left-> p5



@enduml

PlantUML version 1.2020.06(Sun Apr 05 12:38:32 GMT 2020)
(GPL source distribution)
Java Runtime: OpenJDK Runtime Environment
JVM: OpenJDK 64-Bit Server VM
Java Version: 14-ea+33
Operating System: Linux
Default Encoding: UTF-8
Language: en
Country: US
--></g></svg>