<?xml version="1.0" encoding="UTF-8" standalone="no"?><svg xmlns="http://www.w3.org/2000/svg" xmlns:xlink="http://www.w3.org/1999/xlink" contentScriptType="application/ecmascript" contentStyleType="text/css" height="536px" preserveAspectRatio="none" style="width:1320px;height:536px;" version="1.1" viewBox="0 0 1320 536" width="1320px" zoomAndPan="magnify"><defs><filter height="300%" id="f1khduvatxdu13" width="300%" x="-1" y="-1"><feGaussianBlur result="blurOut" stdDeviation="2.0"/><feColorMatrix in="blurOut" result="blurOut2" type="matrix" values="0 0 0 0 0 0 0 0 0 0 0 0 0 0 0 0 0 0 .4 0"/><feOffset dx="4.0" dy="4.0" in="blurOut2" result="blurOut3"/><feBlend in="SourceGraphic" in2="blurOut3" mode="normal"/></filter></defs><g><!--MD5=[b7453caa40eb68c81094cbe9174d4a6e]
cluster pkg0--><polygon fill="#FFFFBA" filter="url(#f1khduvatxdu13)" points="135,208,273,208,280,230.2969,1298,230.2969,1298,523,135,523,135,208" style="stroke: #000000; stroke-width: 1.5;"/><line style="stroke: #000000; stroke-width: 1.5;" x1="135" x2="280" y1="230.2969" y2="230.2969"/><text fill="#000000" font-family="sans-serif" font-size="14" font-weight="bold" lengthAdjust="spacingAndGlyphs" textLength="132" x="139" y="222.9951">layered_example</text><polygon fill="#DDDDDD" filter="url(#f1khduvatxdu13)" points="194,341.5,236,341.5,243,363.7969,250,363.7969,250,394.0938,194,394.0938,194,341.5" style="stroke: #000000; stroke-width: 1.5;"/><line style="stroke: #000000; stroke-width: 1.5;" x1="194" x2="243" y1="363.7969" y2="363.7969"/><text fill="#000000" font-family="sans-serif" font-size="14" font-weight="bold" lengthAdjust="spacingAndGlyphs" textLength="36" x="198" y="356.4951">user</text><polygon fill="#FFB3BA" filter="url(#f1khduvatxdu13)" points="498,355.5,651,355.5,658,394.0938,665,394.0938,665,440.6875,498,440.6875,498,355.5" style="stroke: #000000; stroke-width: 1.5;"/><line style="stroke: #000000; stroke-width: 1.5;" x1="498" x2="658" y1="394.0938" y2="394.0938"/><text fill="#000000" font-family="sans-serif" font-size="14" font-weight="bold" lengthAdjust="spacingAndGlyphs" textLength="123" x="514" y="370.4951">&lt;&lt;collapsed&gt;&gt;</text><text fill="#000000" font-family="sans-serif" font-size="14" font-weight="bold" lengthAdjust="spacingAndGlyphs" textLength="147" x="502" y="386.792">presentation_layer</text><polygon fill="#FFDFBA" filter="url(#f1khduvatxdu13)" points="510,235.5,639,235.5,646,274.0938,653,274.0938,653,320.6875,510,320.6875,510,235.5" style="stroke: #000000; stroke-width: 1.5;"/><line style="stroke: #000000; stroke-width: 1.5;" x1="510" x2="646" y1="274.0938" y2="274.0938"/><text fill="#000000" font-family="sans-serif" font-size="14" font-weight="bold" lengthAdjust="spacingAndGlyphs" textLength="123" x="514" y="250.4951">&lt;&lt;collapsed&gt;&gt;</text><text fill="#000000" font-family="sans-serif" font-size="14" font-weight="bold" lengthAdjust="spacingAndGlyphs" textLength="113" x="519" y="266.792">services_layer</text><polygon fill="#DDDDDD" filter="url(#f1khduvatxdu13)" points="143,251.5,287,251.5,294,273.7969,301,273.7969,301,304.0938,143,304.0938,143,251.5" style="stroke: #000000; stroke-width: 1.5;"/><line style="stroke: #000000; stroke-width: 1.5;" x1="143" x2="294" y1="273.7969" y2="273.7969"/><text fill="#000000" font-family="sans-serif" font-size="14" font-weight="bold" lengthAdjust="spacingAndGlyphs" textLength="138" x="147" y="266.4951">external_systems</text><polygon fill="#BAFFC9" filter="url(#f1khduvatxdu13)" points="725,375.5,854,375.5,861,414.0938,868,414.0938,868,460.6875,725,460.6875,725,375.5" style="stroke: #000000; stroke-width: 1.5;"/><line style="stroke: #000000; stroke-width: 1.5;" x1="725" x2="861" y1="414.0938" y2="414.0938"/><text fill="#000000" font-family="sans-serif" font-size="14" font-weight="bold" lengthAdjust="spacingAndGlyphs" textLength="123" x="729" y="390.4951">&lt;&lt;collapsed&gt;&gt;</text><text fill="#000000" font-family="sans-serif" font-size="14" font-weight="bold" lengthAdjust="spacingAndGlyphs" textLength="117" x="732" y="406.792">business_layer</text><polygon fill="#BAE1FF" filter="url(#f1khduvatxdu13)" points="928,375.5,1057,375.5,1064,414.0938,1071,414.0938,1071,460.6875,928,460.6875,928,375.5" style="stroke: #000000; stroke-width: 1.5;"/><line style="stroke: #000000; stroke-width: 1.5;" x1="928" x2="1064" y1="414.0938" y2="414.0938"/><text fill="#000000" font-family="sans-serif" font-size="14" font-weight="bold" lengthAdjust="spacingAndGlyphs" textLength="123" x="932" y="390.4951">&lt;&lt;collapsed&gt;&gt;</text><text fill="#000000" font-family="sans-serif" font-size="14" font-weight="bold" lengthAdjust="spacingAndGlyphs" textLength="80" x="953.5" y="406.792">data_layer</text><polygon fill="#CBAACB" filter="url(#f1khduvatxdu13)" points="150.5,429.5,279.5,429.5,286.5,468.0938,293.5,468.0938,293.5,514.6875,150.5,514.6875,150.5,429.5" style="stroke: #000000; stroke-width: 1.5;"/><line style="stroke: #000000; stroke-width: 1.5;" x1="150.5" x2="286.5" y1="468.0938" y2="468.0938"/><text fill="#000000" font-family="sans-serif" font-size="14" font-weight="bold" lengthAdjust="spacingAndGlyphs" textLength="123" x="154.5" y="444.4951">&lt;&lt;collapsed&gt;&gt;</text><text fill="#000000" font-family="sans-serif" font-size="14" font-weight="bold" lengthAdjust="spacingAndGlyphs" textLength="106" x="163" y="460.792">cross_cutting</text><polygon fill="#DDDDDD" filter="url(#f1khduvatxdu13)" points="1148,426.5,1259,426.5,1266,448.7969,1273,448.7969,1273,479.0938,1148,479.0938,1148,426.5" style="stroke: #000000; stroke-width: 1.5;"/><line style="stroke: #000000; stroke-width: 1.5;" x1="1148" x2="1266" y1="448.7969" y2="448.7969"/><text fill="#000000" font-family="sans-serif" font-size="14" font-weight="bold" lengthAdjust="spacingAndGlyphs" textLength="105" x="1152" y="441.4951">data_sources</text><polygon fill="#DDDDDD" filter="url(#f1khduvatxdu13)" points="1131,338.5,1276,338.5,1283,360.7969,1290,360.7969,1290,391.0938,1131,391.0938,1131,338.5" style="stroke: #000000; stroke-width: 1.5;"/><line style="stroke: #000000; stroke-width: 1.5;" x1="1131" x2="1283" y1="360.7969" y2="360.7969"/><text fill="#000000" font-family="sans-serif" font-size="14" font-weight="bold" lengthAdjust="spacingAndGlyphs" textLength="139" x="1135" y="353.4951">external_services</text><path d="M6,8 L6,199.5938 L438,199.5938 L438,18 L428,8 L6,8 " fill="#FBFB77" filter="url(#f1khduvatxdu13)" style="stroke: #A80036; stroke-width: 1.0;"/><path d="M428,8 L428,18 L438,18 L428,8 " fill="#FBFB77" style="stroke: #A80036; stroke-width: 1.0;"/><text fill="#000000" font-family="sans-serif" font-size="13" font-weight="bold" lengthAdjust="spacingAndGlyphs" textLength="125" x="12" y="25.0669">layered_example</text><text fill="#000000" font-family="sans-serif" font-size="13" lengthAdjust="spacingAndGlyphs" textLength="343" x="12" y="40.1997">In dit voorbeeld heb ik een meer uitgebreidere variant</text><text fill="#000000" font-family="sans-serif" font-size="13" lengthAdjust="spacingAndGlyphs" textLength="290" x="12" y="55.3325">van een nested package systeem uitgewerkt.</text><text fill="#000000" font-family="sans-serif" font-size="13" lengthAdjust="spacingAndGlyphs" textLength="0" x="16" y="70.4653"/><text fill="#000000" font-family="sans-serif" font-size="13" lengthAdjust="spacingAndGlyphs" textLength="351" x="12" y="85.5981">Omdat het positioneren van de verschillende packages</text><text fill="#000000" font-family="sans-serif" font-size="13" lengthAdjust="spacingAndGlyphs" textLength="331" x="12" y="100.731">erg lastig gaat met plantuml heb ik er voor gekozen</text><text fill="#000000" font-family="sans-serif" font-size="13" lengthAdjust="spacingAndGlyphs" textLength="394" x="12" y="115.8638">om alle packages zonder inhoud weer te geven in de package</text><text fill="#000000" font-family="sans-serif" font-size="13" font-weight="bold" lengthAdjust="spacingAndGlyphs" textLength="139" x="12" y="130.9966">"layered_example"</text><text fill="#000000" font-family="sans-serif" font-size="13" lengthAdjust="spacingAndGlyphs" textLength="229" x="151" y="130.9966">. Naast de "layered_example" staan</text><text fill="#000000" font-family="sans-serif" font-size="13" lengthAdjust="spacingAndGlyphs" textLength="411" x="12" y="146.1294">de packages die inhoudelijk iets bevatten nogmaals weergegevn</text><text fill="#000000" font-family="sans-serif" font-size="13" lengthAdjust="spacingAndGlyphs" textLength="124" x="12" y="161.2622">met het stereotype</text><text fill="#000000" font-family="sans-serif" font-size="13" font-weight="bold" lengthAdjust="spacingAndGlyphs" textLength="118" x="140" y="161.2622">&lt;&lt;expanded&gt;&gt;</text><text fill="#000000" font-family="sans-serif" font-size="13" lengthAdjust="spacingAndGlyphs" textLength="4" x="258" y="161.2622">.</text><text fill="#000000" font-family="sans-serif" font-size="13" lengthAdjust="spacingAndGlyphs" textLength="382" x="12" y="176.395">Met het gebruik van verschillende kleuren heb ik een poging</text><text fill="#000000" font-family="sans-serif" font-size="13" lengthAdjust="spacingAndGlyphs" textLength="357" x="12" y="191.5278">gedaan om er een overzichtelijk diagram van te maken.</text><!--MD5=[152de66f05cf1ae003343a55b4cd00a1]
link pkg3 to pkg2--><!--MD5=[2fdb3a3a0cc41ad46a3ec3964cf9c84d]
link pkg1 to pkg2--><path d="M250.2094,370.354 C301.7964,374.6589 413.3314,383.9665 492.7189,390.5913 " fill="none" id="pkg1-&gt;pkg2" style="stroke: #A80036; stroke-width: 1.0; stroke-dasharray: 7.0,7.0;"/><polygon fill="#A80036" points="497.9006,391.0237,489.2646,386.2888,492.9179,390.6077,488.599,394.261,497.9006,391.0237" style="stroke: #A80036; stroke-width: 1.0;"/><!--MD5=[0b4dfb19ae367dfb430f7b7674479840]
link pkg4 to pkg3--><path d="M301.3388,278 C361.8551,278 444.7283,278 504.626,278 " fill="none" id="pkg4-&gt;pkg3" style="stroke: #A80036; stroke-width: 1.0; stroke-dasharray: 7.0,7.0;"/><polygon fill="#A80036" points="509.9853,278,500.9853,274,504.9853,278,500.9853,282,509.9853,278" style="stroke: #A80036; stroke-width: 1.0;"/><!--MD5=[68541470b3baccbe46c0f026d2c81da0]
link pkg3 to pkg5--><path d="M646.8828,320.5748 C672.1088,337.0011 701.0101,355.8205 726.6433,372.5119 " fill="none" id="pkg3-&gt;pkg5" style="stroke: #A80036; stroke-width: 1.0; stroke-dasharray: 7.0,7.0;"/><polygon fill="#A80036" points="731.0578,375.3865,725.6986,367.1234,726.8678,372.6581,721.3331,373.8273,731.0578,375.3865" style="stroke: #A80036; stroke-width: 1.0;"/><!--MD5=[909b4121c1961e37504ccc47ee087644]
link pkg2 to pkg5--><path d="M665.2402,405.7898 C683.0847,407.4497 701.8487,409.1952 719.4293,410.8306 " fill="none" id="pkg2-&gt;pkg5" style="stroke: #A80036; stroke-width: 1.0; stroke-dasharray: 7.0,7.0;"/><polygon fill="#A80036" points="724.8451,411.3344,716.2543,406.518,719.8666,410.8713,715.5133,414.4836,724.8451,411.3344" style="stroke: #A80036; stroke-width: 1.0;"/><!--MD5=[54c7da9a4d51f1a90f3c2579e7ea2fd2]
link pkg5 to pkg6--><!--MD5=[54c7da9a4d51f1a90f3c2579e7ea2fd2]
link pkg5 to pkg6--><path d="M868.0702,405.0358 C885.8081,404.3832 904.8852,404.3268 922.8549,404.8664 " fill="none" id="pkg5-&gt;pkg6-1" style="stroke: #A80036; stroke-width: 1.0; stroke-dasharray: 7.0,7.0;"/><polygon fill="#A80036" points="927.8919,405.0344,919.0303,400.7365,922.8947,404.8677,918.7635,408.7321,927.8919,405.0344" style="stroke: #A80036; stroke-width: 1.0;"/><!--MD5=[eaea97b131caffac09ff520e41d76031]
link pkg6 to pkg8--><path d="M1071.2294,429.8982 C1094.3321,433.7304 1119.8502,437.9633 1142.6636,441.7475 " fill="none" id="pkg6-&gt;pkg8" style="stroke: #A80036; stroke-width: 1.0; stroke-dasharray: 7.0,7.0;"/><polygon fill="#A80036" points="1147.7911,442.598,1139.5671,437.179,1142.8585,441.7797,1138.2578,445.0712,1147.7911,442.598" style="stroke: #A80036; stroke-width: 1.0;"/><!--MD5=[66f363de62ff28e2e547e23fb8b00337]
link pkg6 to pkg9--><path d="M1071.2294,399.9827 C1088.7021,395.5938 1107.5563,390.8579 1125.5771,386.3313 " fill="none" id="pkg6-&gt;pkg9" style="stroke: #A80036; stroke-width: 1.0; stroke-dasharray: 7.0,7.0;"/><polygon fill="#A80036" points="1130.6359,385.0606,1120.9326,383.3737,1125.7866,386.2787,1122.8816,391.1327,1130.6359,385.0606" style="stroke: #A80036; stroke-width: 1.0;"/><!--MD5=[dbb8589502356e87512e6b8563f07bfb]
reverse link pkg7 to pkg2--><path d="M299.1166,456.1262 C357.5534,444.0975 437.7555,427.5886 497.7572,415.2377 " fill="none" id="pkg7&lt;-pkg2" style="stroke: #A80036; stroke-width: 1.0; stroke-dasharray: 7.0,7.0;"/><polygon fill="#A80036" points="293.8862,457.2028,303.5079,459.306,298.7835,456.1947,301.8949,451.4703,293.8862,457.2028" style="stroke: #A80036; stroke-width: 1.0;"/><!--MD5=[62849700bd8430fb82368af4d6c9f644]
reverse link pkg7 to pkg3--><path d="M298.6859,462.4952 C342.2813,454.3255 396.3147,439.3242 438,412 C473.4118,388.788 467.2014,367.0557 498,338 C504.2326,332.1201 511.0635,326.3358 518.0493,320.818 " fill="none" id="pkg7&lt;-pkg3" style="stroke: #A80036; stroke-width: 1.0; stroke-dasharray: 7.0,7.0;"/><polygon fill="#A80036" points="293.6933,463.4096,303.2667,465.7226,298.6115,462.5088,301.8254,457.8535,293.6933,463.4096" style="stroke: #A80036; stroke-width: 1.0;"/><!--MD5=[909818997e429af202746826567408b1]
reverse link pkg7 to pkg5--><path d="M298.7649,475.6608 C387.5759,478.4941 537.8941,478.9613 665,458 C684.7775,454.7385 705.7341,449.3107 724.9667,443.4894 " fill="none" id="pkg7&lt;-pkg5" style="stroke: #A80036; stroke-width: 1.0; stroke-dasharray: 7.0,7.0;"/><polygon fill="#A80036" points="293.5313,475.4888,302.3949,479.7826,298.5286,475.6532,302.658,471.7869,293.5313,475.4888" style="stroke: #A80036; stroke-width: 1.0;"/><!--MD5=[8c6760a88e382342d665e7bee1b9defc]
reverse link pkg7 to pkg6--><path d="M298.9312,484.1607 C421.2861,500.9638 666.9481,524.2999 868,478 C888.1745,473.354 909.0029,465.4712 927.9684,456.9204 " fill="none" id="pkg7&lt;-pkg6" style="stroke: #A80036; stroke-width: 1.0; stroke-dasharray: 7.0,7.0;"/><polygon fill="#A80036" points="293.9147,483.4659,302.2808,488.6629,298.8674,484.1519,303.3784,480.7385,293.9147,483.4659" style="stroke: #A80036; stroke-width: 1.0;"/><!--MD5=[cb36b7fa021fa9cdca7c6640e19f73ce]
@startuml

left to right direction

note as n1
    **layered_example**
    In dit voorbeeld heb ik een meer uitgebreidere variant
    van een nested package systeem uitgewerkt.

    Omdat het positioneren van de verschillende packages
    erg lastig gaat met plantuml heb ik er voor gekozen
    om alle packages zonder inhoud weer te geven in de package
    **"layered_example"**. Naast de "layered_example" staan
    de packages die inhoudelijk iets bevatten nogmaals weergegevn
    met het stereotype **<<expanded>>**.
    Met het gebruik van verschillende kleuren heb ik een poging
    gedaan om er een overzichtelijk diagram van te maken.
end note

package layered_example as pkg0 #FFFFBA{
    package "user" as pkg1 #DDDDDD {}
    package "<<collapsed>>\npresentation_layer" as pkg2 #FFB3BA{}
    package "<<collapsed>>\nservices_layer" as pkg3 #FFDFBA{}
    package "external_systems" as pkg4 #DDDDDD {}

    package "<<collapsed>>\nbusiness_layer" as pkg5 #BAFFC9{}
    package "<<collapsed>>\ndata_layer" as pkg6 #BAE1FF{}
    package "<<collapsed>>\ncross_cutting" as pkg7 #CBAACB{}
    package "data_sources" as pkg8 #DDDDDD {}
    package "external_services" as pkg9 #DDDDDD {}

    pkg3 .[hidden]left.> pkg2

    pkg1 ..> pkg2
    pkg4 ..> pkg3

    pkg3 .down.> pkg5
    pkg2 .down.> pkg5

    pkg5 -[hidden]down-> pkg6

    pkg5 .down.> pkg6
    pkg6 ..> pkg8
    pkg6 ..> pkg9

    pkg7 <.. pkg2
    pkg7 <.. pkg3
    pkg7 <.. pkg5
    pkg7 <.. pkg6
}

@enduml

PlantUML version 1.2020.06(Sun Apr 05 12:38:32 GMT 2020)
(GPL source distribution)
Java Runtime: OpenJDK Runtime Environment
JVM: OpenJDK 64-Bit Server VM
Java Version: 14-ea+33
Operating System: Linux
Default Encoding: UTF-8
Language: en
Country: US
--></g></svg>