<?xml version="1.0" encoding="UTF-8" standalone="no"?><svg xmlns="http://www.w3.org/2000/svg" xmlns:xlink="http://www.w3.org/1999/xlink" contentScriptType="application/ecmascript" contentStyleType="text/css" height="301px" preserveAspectRatio="none" style="width:674px;height:301px;" version="1.1" viewBox="0 0 674 301" width="674px" zoomAndPan="magnify"><defs><filter height="300%" id="f7o1p99omp18n" width="300%" x="-1" y="-1"><feGaussianBlur result="blurOut" stdDeviation="2.0"/><feColorMatrix in="blurOut" result="blurOut2" type="matrix" values="0 0 0 0 0 0 0 0 0 0 0 0 0 0 0 0 0 0 .4 0"/><feOffset dx="4.0" dy="4.0" in="blurOut2" result="blurOut3"/><feBlend in="SourceGraphic" in2="blurOut3" mode="normal"/></filter></defs><g><!--MD5=[87deaade19ae8b84dc12027f3555a633]
cluster rect1--><rect fill="#FFFFFF" filter="url(#f7o1p99omp18n)" height="104" style="stroke: #000000; stroke-width: 1.5;" width="349" x="14" y="16"/><text fill="#000000" font-family="sans-serif" font-size="14" font-weight="bold" lengthAdjust="spacingAndGlyphs" textLength="99" x="139" y="30.9951">&lt;&lt;import&gt;&gt;</text><text fill="#000000" font-family="sans-serif" font-size="14" font-weight="bold" lengthAdjust="spacingAndGlyphs" textLength="0" x="191" y="47.292"/><!--MD5=[8113b576c6829a370120d8df34fd173e]
cluster rect2--><rect fill="#FFFFFF" filter="url(#f7o1p99omp18n)" height="104" style="stroke: #000000; stroke-width: 1.5;" width="351" x="14" y="162.5"/><text fill="#000000" font-family="sans-serif" font-size="14" font-weight="bold" lengthAdjust="spacingAndGlyphs" textLength="103" x="138" y="177.4951">&lt;&lt;access&gt;&gt;</text><text fill="#000000" font-family="sans-serif" font-size="14" font-weight="bold" lengthAdjust="spacingAndGlyphs" textLength="0" x="192" y="193.792"/><polygon fill="#BAE1FF" filter="url(#f7o1p99omp18n)" points="57,59,145,59,152,81.2969,159,81.2969,159,111.5938,57,111.5938,57,59" style="stroke: #000000; stroke-width: 1.5;"/><line style="stroke: #000000; stroke-width: 1.5;" x1="57" x2="152" y1="81.2969" y2="81.2969"/><text fill="#000000" font-family="sans-serif" font-size="14" font-weight="bold" lengthAdjust="spacingAndGlyphs" textLength="82" x="61" y="73.9951">package A</text><polygon fill="#BAFFC9" filter="url(#f7o1p99omp18n)" points="253.5,59,340.5,59,347.5,81.2969,354.5,81.2969,354.5,111.5938,253.5,111.5938,253.5,59" style="stroke: #000000; stroke-width: 1.5;"/><line style="stroke: #000000; stroke-width: 1.5;" x1="253.5" x2="347.5" y1="81.2969" y2="81.2969"/><text fill="#000000" font-family="sans-serif" font-size="14" font-weight="bold" lengthAdjust="spacingAndGlyphs" textLength="81" x="257.5" y="73.9951">package B</text><polygon fill="#BAE1FF" filter="url(#f7o1p99omp18n)" points="57,205.5,145,205.5,152,227.7969,159,227.7969,159,258.0938,57,258.0938,57,205.5" style="stroke: #000000; stroke-width: 1.5;"/><line style="stroke: #000000; stroke-width: 1.5;" x1="57" x2="152" y1="227.7969" y2="227.7969"/><text fill="#000000" font-family="sans-serif" font-size="14" font-weight="bold" lengthAdjust="spacingAndGlyphs" textLength="82" x="61" y="220.4951">package A</text><polygon fill="#BAFFC9" filter="url(#f7o1p99omp18n)" points="255.5,205.5,342.5,205.5,349.5,227.7969,356.5,227.7969,356.5,258.0938,255.5,258.0938,255.5,205.5" style="stroke: #000000; stroke-width: 1.5;"/><line style="stroke: #000000; stroke-width: 1.5;" x1="255.5" x2="349.5" y1="227.7969" y2="227.7969"/><text fill="#000000" font-family="sans-serif" font-size="14" font-weight="bold" lengthAdjust="spacingAndGlyphs" textLength="81" x="259.5" y="220.4951">package B</text><path d="M389.5,58 L389.5,113.3984 L658.5,113.3984 L658.5,68 L648.5,58 L389.5,58 " fill="#FBFB77" filter="url(#f7o1p99omp18n)" style="stroke: #A80036; stroke-width: 1.0;"/><path d="M648.5,58 L648.5,68 L658.5,68 L648.5,58 " fill="#FBFB77" style="stroke: #A80036; stroke-width: 1.0;"/><text fill="#000000" font-family="sans-serif" font-size="13" font-weight="bold" lengthAdjust="spacingAndGlyphs" textLength="93" x="395.5" y="75.0669">&lt;&lt;import&gt;&gt;</text><text fill="#000000" font-family="sans-serif" font-size="13" lengthAdjust="spacingAndGlyphs" textLength="248" x="395.5" y="90.1997">Dit stereotype geeft aan dat packageA</text><text fill="#000000" font-family="sans-serif" font-size="13" lengthAdjust="spacingAndGlyphs" textLength="142" x="395.5" y="105.3325">packageB importeerd.</text><path d="M391.5,174 L391.5,289.9297 L662.5,289.9297 L662.5,184 L652.5,174 L391.5,174 " fill="#FBFB77" filter="url(#f7o1p99omp18n)" style="stroke: #A80036; stroke-width: 1.0;"/><path d="M652.5,174 L652.5,184 L662.5,184 L652.5,174 " fill="#FBFB77" style="stroke: #A80036; stroke-width: 1.0;"/><text fill="#000000" font-family="sans-serif" font-size="13" font-weight="bold" lengthAdjust="spacingAndGlyphs" textLength="94" x="397.5" y="191.0669">&lt;&lt;access&gt;&gt;</text><text fill="#000000" font-family="sans-serif" font-size="13" lengthAdjust="spacingAndGlyphs" textLength="248" x="397.5" y="206.1997">Dit stereotype geeft aan dat packageC</text><text fill="#000000" font-family="sans-serif" font-size="13" lengthAdjust="spacingAndGlyphs" textLength="124" x="397.5" y="221.3325">packageD gebruikt.</text><text fill="#000000" font-family="sans-serif" font-size="13" lengthAdjust="spacingAndGlyphs" textLength="0" x="401.5" y="236.4653"/><text fill="#000000" font-family="sans-serif" font-size="13" lengthAdjust="spacingAndGlyphs" textLength="243" x="397.5" y="251.5981">Als je dit stereotype gebruikt geef dan</text><text fill="#000000" font-family="sans-serif" font-size="13" lengthAdjust="spacingAndGlyphs" textLength="250" x="397.5" y="266.731">ook nog hoe de ge-'access'-te package</text><text fill="#000000" font-family="sans-serif" font-size="13" lengthAdjust="spacingAndGlyphs" textLength="95" x="397.5" y="281.8638">gebruikt wordt.</text><!--MD5=[4ef60940496ff64d6ff13fdfdd3cc31c]
link p1 to p2--><path d="M159.2407,85.5 C186.5758,85.5 220.2506,85.5 248.2404,85.5 " fill="none" id="p1-&gt;p2" style="stroke: #A80036; stroke-width: 1.0; stroke-dasharray: 7.0,7.0;"/><polygon fill="#A80036" points="253.3977,85.5,244.3977,81.5,248.3977,85.5,244.3977,89.5,253.3977,85.5" style="stroke: #A80036; stroke-width: 1.0;"/><text fill="#000000" font-family="sans-serif" font-size="13" lengthAdjust="spacingAndGlyphs" textLength="58" x="177.25" y="78.5669">«import»</text><!--MD5=[291d41f1a4655cc49ae972ef6668e032]
link p3 to p4--><path d="M159.2474,232 C187.0777,232 221.5285,232 250.0556,232 " fill="none" id="p3-&gt;p4" style="stroke: #A80036; stroke-width: 1.0; stroke-dasharray: 7.0,7.0;"/><polygon fill="#A80036" points="255.3103,232,246.3103,228,250.3103,232,246.3103,236,255.3103,232" style="stroke: #A80036; stroke-width: 1.0;"/><text fill="#000000" font-family="sans-serif" font-size="13" lengthAdjust="spacingAndGlyphs" textLength="60" x="177.25" y="225.0669">«access»</text><!--MD5=[dcbbf1b47a3a35e2c35dd887fdc8f4e9]
link rect1 to rect2--><!--MD5=[559ae2a027d05a4139f4f2992bc0af4f]
link GMN11 to p2--><path d="M389.4222,85.5 C377.8492,85.5 366.2762,85.5 354.7031,85.5 " fill="none" id="GMN11-p2" style="stroke: #A80036; stroke-width: 1.0; stroke-dasharray: 7.0,7.0;"/><!--MD5=[8964bef1bb14498e242d4957f2ed7743]
link GMN14 to p4--><path d="M391.4674,232 C379.8122,232 368.1571,232 356.502,232 " fill="none" id="GMN14-p4" style="stroke: #A80036; stroke-width: 1.0; stroke-dasharray: 7.0,7.0;"/><!--MD5=[f1d6ebf5a43905dca4ea3e1ad5967b9f]
@startuml

rectangle rect1 as "**<<import>>**\n" {
    package "package A" as p1 #BAE1FF {}
    package "package B" as p2 #BAFFC9 {}

    p1 .right.> p2 : <<import>>
}

rectangle rect2 as "**<<access>>**\n" {
    package "package A" as p3 #BAE1FF {}
    package "package B" as p4 #BAFFC9 {}

    p3 .right.> p4 : <<access>>
}

rect1 -[hidden]down-> rect2

note left of p2
    **<<import>>**
    Dit stereotype geeft aan dat packageA
    packageB importeerd.
end note

note left of p4
    **<<access>>**
    Dit stereotype geeft aan dat packageC
    packageD gebruikt.

    Als je dit stereotype gebruikt geef dan
    ook nog hoe de ge-'access'-te package
    gebruikt wordt.
end note

@enduml

PlantUML version 1.2020.06(Sun Apr 05 12:38:32 GMT 2020)
(GPL source distribution)
Java Runtime: OpenJDK Runtime Environment
JVM: OpenJDK 64-Bit Server VM
Java Version: 14-ea+33
Operating System: Linux
Default Encoding: UTF-8
Language: en
Country: US
--></g></svg>