<?xml version="1.0" encoding="UTF-8" standalone="no"?><svg xmlns="http://www.w3.org/2000/svg" xmlns:xlink="http://www.w3.org/1999/xlink" contentScriptType="application/ecmascript" contentStyleType="text/css" height="267px" preserveAspectRatio="none" style="width:623px;height:267px;" version="1.1" viewBox="0 0 623 267" width="623px" zoomAndPan="magnify"><defs><filter height="300%" id="f39lou0pnq734" width="300%" x="-1" y="-1"><feGaussianBlur result="blurOut" stdDeviation="2.0"/><feColorMatrix in="blurOut" result="blurOut2" type="matrix" values="0 0 0 0 0 0 0 0 0 0 0 0 0 0 0 0 0 0 .4 0"/><feOffset dx="4.0" dy="4.0" in="blurOut2" result="blurOut3"/><feBlend in="SourceGraphic" in2="blurOut3" mode="normal"/></filter></defs><g><polygon fill="#FFFFBA" filter="url(#f39lou0pnq734)" points="8,13,96,13,103,35.2969,110,35.2969,110,65.5938,8,65.5938,8,13" style="stroke: #000000; stroke-width: 1.5;"/><line style="stroke: #000000; stroke-width: 1.5;" x1="8" x2="103" y1="35.2969" y2="35.2969"/><text fill="#000000" font-family="sans-serif" font-size="14" font-weight="bold" lengthAdjust="spacingAndGlyphs" textLength="82" x="12" y="27.9951">package A</text><polygon fill="#FFFFBA" filter="url(#f39lou0pnq734)" points="204.5,13,291.5,13,298.5,35.2969,305.5,35.2969,305.5,65.5938,204.5,65.5938,204.5,13" style="stroke: #000000; stroke-width: 1.5;"/><line style="stroke: #000000; stroke-width: 1.5;" x1="204.5" x2="298.5" y1="35.2969" y2="35.2969"/><text fill="#000000" font-family="sans-serif" font-size="14" font-weight="bold" lengthAdjust="spacingAndGlyphs" textLength="81" x="208.5" y="27.9951">package B</text><polygon fill="#FFFFBA" filter="url(#f39lou0pnq734)" points="6,167.5,94,167.5,101,189.7969,108,189.7969,108,220.0938,6,220.0938,6,167.5" style="stroke: #000000; stroke-width: 1.5;"/><line style="stroke: #000000; stroke-width: 1.5;" x1="6" x2="101" y1="189.7969" y2="189.7969"/><text fill="#000000" font-family="sans-serif" font-size="14" font-weight="bold" lengthAdjust="spacingAndGlyphs" textLength="82" x="10" y="182.4951">package A</text><polygon fill="#FFFFBA" filter="url(#f39lou0pnq734)" points="204.5,167.5,291.5,167.5,298.5,189.7969,305.5,189.7969,305.5,220.0938,204.5,220.0938,204.5,167.5" style="stroke: #000000; stroke-width: 1.5;"/><line style="stroke: #000000; stroke-width: 1.5;" x1="204.5" x2="298.5" y1="189.7969" y2="189.7969"/><text fill="#000000" font-family="sans-serif" font-size="14" font-weight="bold" lengthAdjust="spacingAndGlyphs" textLength="81" x="208.5" y="182.4951">package B</text><path d="M340.5,8 L340.5,71.3984 L609.5,71.3984 L609.5,18 L599.5,8 L340.5,8 " fill="#FCA985" filter="url(#f39lou0pnq734)" style="stroke: #A80036; stroke-width: 1.0;"/><path d="M599.5,8 L599.5,18 L609.5,18 L599.5,8 " fill="#FCA985" style="stroke: #A80036; stroke-width: 1.0;"/><text fill="#000000" font-family="sans-serif" font-size="13" font-weight="bold" lengthAdjust="spacingAndGlyphs" textLength="93" x="346.5" y="25.0669">&lt;&lt;import&gt;&gt;</text><line style="stroke: #A80036; stroke-width: 1.0;" x1="341.5" x2="608.5" y1="28.1328" y2="28.1328"/><text fill="#000000" font-family="sans-serif" font-size="13" lengthAdjust="spacingAndGlyphs" textLength="248" x="346.5" y="44.1997">Dit stereotype geeft aan dat packageA</text><text fill="#000000" font-family="sans-serif" font-size="13" lengthAdjust="spacingAndGlyphs" textLength="142" x="346.5" y="59.3325">packageB importeerd.</text><path d="M340.5,132 L340.5,255.9297 L611.5,255.9297 L611.5,142 L601.5,132 L340.5,132 " fill="#FCA985" filter="url(#f39lou0pnq734)" style="stroke: #A80036; stroke-width: 1.0;"/><path d="M601.5,132 L601.5,142 L611.5,142 L601.5,132 " fill="#FCA985" style="stroke: #A80036; stroke-width: 1.0;"/><text fill="#000000" font-family="sans-serif" font-size="13" font-weight="bold" lengthAdjust="spacingAndGlyphs" textLength="94" x="346.5" y="149.0669">&lt;&lt;access&gt;&gt;</text><line style="stroke: #A80036; stroke-width: 1.0;" x1="341.5" x2="610.5" y1="152.1328" y2="152.1328"/><text fill="#000000" font-family="sans-serif" font-size="13" lengthAdjust="spacingAndGlyphs" textLength="248" x="346.5" y="168.1997">Dit stereotype geeft aan dat packageC</text><text fill="#000000" font-family="sans-serif" font-size="13" lengthAdjust="spacingAndGlyphs" textLength="124" x="346.5" y="183.3325">packageD gebruikt.</text><text fill="#000000" font-family="sans-serif" font-size="13" lengthAdjust="spacingAndGlyphs" textLength="0" x="350.5" y="198.4653"/><text fill="#000000" font-family="sans-serif" font-size="13" lengthAdjust="spacingAndGlyphs" textLength="243" x="346.5" y="213.5981">Als je dit stereotype gebruikt geef dan</text><text fill="#000000" font-family="sans-serif" font-size="13" lengthAdjust="spacingAndGlyphs" textLength="250" x="346.5" y="228.731">ook nog hoe de ge-'access'-te package</text><text fill="#000000" font-family="sans-serif" font-size="13" lengthAdjust="spacingAndGlyphs" textLength="95" x="346.5" y="243.8638">gebruikt wordt.</text><!--MD5=[4ef60940496ff64d6ff13fdfdd3cc31c]
link p1 to p2--><path d="M110.2407,39.5 C137.5758,39.5 171.2506,39.5 199.2404,39.5 " fill="none" id="p1-&gt;p2" style="stroke: #A80036; stroke-width: 1.0; stroke-dasharray: 7.0,7.0;"/><polygon fill="#A80036" points="204.3977,39.5,195.3977,35.5,199.3977,39.5,195.3977,43.5,204.3977,39.5" style="stroke: #A80036; stroke-width: 1.0;"/><text fill="#000000" font-family="sans-serif" font-size="13" lengthAdjust="spacingAndGlyphs" textLength="58" x="128.25" y="32.5669">«import»</text><!--MD5=[4ef60940496ff64d6ff13fdfdd3cc31c]
link p1 to p2--><!--MD5=[291d41f1a4655cc49ae972ef6668e032]
link p3 to p4--><path d="M108.2474,194 C136.0777,194 170.5285,194 199.0556,194 " fill="none" id="p3-&gt;p4" style="stroke: #A80036; stroke-width: 1.0; stroke-dasharray: 7.0,7.0;"/><polygon fill="#A80036" points="204.3103,194,195.3103,190,199.3103,194,195.3103,198,204.3103,194" style="stroke: #A80036; stroke-width: 1.0;"/><text fill="#000000" font-family="sans-serif" font-size="13" lengthAdjust="spacingAndGlyphs" textLength="60" x="126.25" y="187.0669">«access»</text><!--MD5=[9e1d7fb9fc918fc2e85210e92d61802d]
link p2 to p4--><!--MD5=[90bc440b7f9b90f994943b96c0a6a495]
link p2 to GMN10--><path d="M305.7031,39.5 C317.2762,39.5 328.8492,39.5 340.4222,39.5 " fill="none" id="p2-GMN10" style="stroke: #A80036; stroke-width: 1.0; stroke-dasharray: 7.0,7.0;"/><!--MD5=[cdf481a47b6f5512f86d9e99e3462196]
link p4 to GMN13--><path d="M305.502,194 C317.1571,194 328.8122,194 340.4674,194 " fill="none" id="p4-GMN13" style="stroke: #A80036; stroke-width: 1.0; stroke-dasharray: 7.0,7.0;"/><!--MD5=[816ca1475828332fed658bef54c05bf5]
@startuml

package "package A" as p1 #FFFFBA {}
package "package B" as p2 #FFFFBA {}

p1 .right.> p2 : <<import>>

package "package A" as p3 #FFFFBA {}
package "package B" as p4 #FFFFBA {}

p3 .right.> p4 : <<access>>

p1 -[hidden]down-> p2
p2 -[hidden]down-> p4

note right of p2 #FCA985
    **<<import>>**
    - -
    Dit stereotype geeft aan dat packageA
    packageB importeerd.
end note

note right of p4 #FCA985
    **<<access>>**
    - -
    Dit stereotype geeft aan dat packageC
    packageD gebruikt.

    Als je dit stereotype gebruikt geef dan
    ook nog hoe de ge-'access'-te package
    gebruikt wordt.
end note

@enduml

PlantUML version 1.2020.06(Sun Apr 05 12:38:32 GMT 2020)
(GPL source distribution)
Java Runtime: OpenJDK Runtime Environment
JVM: OpenJDK 64-Bit Server VM
Java Version: 14-ea+33
Operating System: Linux
Default Encoding: UTF-8
Language: en
Country: US
--></g></svg>