<?xml version="1.0" encoding="UTF-8" standalone="no"?><svg xmlns="http://www.w3.org/2000/svg" xmlns:xlink="http://www.w3.org/1999/xlink" contentScriptType="application/ecmascript" contentStyleType="text/css" height="235px" preserveAspectRatio="none" style="width:831px;height:235px;" version="1.1" viewBox="0 0 831 235" width="831px" zoomAndPan="magnify"><defs><filter height="300%" id="f1bgbd3rzpj4ot" width="300%" x="-1" y="-1"><feGaussianBlur result="blurOut" stdDeviation="2.0"/><feColorMatrix in="blurOut" result="blurOut2" type="matrix" values="0 0 0 0 0 0 0 0 0 0 0 0 0 0 0 0 0 0 .4 0"/><feOffset dx="4.0" dy="4.0" in="blurOut2" result="blurOut3"/><feBlend in="SourceGraphic" in2="blurOut3" mode="normal"/></filter></defs><g><!--MD5=[fedee1b5a49a422abb3fa93dface23fd]
cluster p1--><polygon fill="#FFFFBA" filter="url(#f1bgbd3rzpj4ot)" points="14,62.5,91,62.5,98,84.7969,388,84.7969,388,150.5,14,150.5,14,62.5" style="stroke: #000000; stroke-width: 1.5;"/><line style="stroke: #000000; stroke-width: 1.5;" x1="14" x2="98" y1="84.7969" y2="84.7969"/><text fill="#000000" font-family="sans-serif" font-size="14" font-weight="bold" lengthAdjust="spacingAndGlyphs" textLength="71" x="18" y="77.4951">Business</text><polygon fill="#BAE1FF" filter="url(#f1bgbd3rzpj4ot)" points="22.5,89.5,117.5,89.5,124.5,111.7969,131.5,111.7969,131.5,142.0938,22.5,142.0938,22.5,89.5" style="stroke: #000000; stroke-width: 1.5;"/><line style="stroke: #000000; stroke-width: 1.5;" x1="22.5" x2="124.5" y1="111.7969" y2="111.7969"/><text fill="#000000" font-family="sans-serif" font-size="14" font-weight="bold" lengthAdjust="spacingAndGlyphs" textLength="89" x="26.5" y="104.4951">Accounting</text><polygon fill="#FFDFBA" filter="url(#f1bgbd3rzpj4ot)" points="167,89.5,243,89.5,250,111.7969,257,111.7969,257,142.0938,167,142.0938,167,89.5" style="stroke: #000000; stroke-width: 1.5;"/><line style="stroke: #000000; stroke-width: 1.5;" x1="167" x2="250" y1="111.7969" y2="111.7969"/><text fill="#000000" font-family="sans-serif" font-size="14" font-weight="bold" lengthAdjust="spacingAndGlyphs" textLength="70" x="171" y="104.4951">Ordering</text><polygon fill="#BAFFC9" filter="url(#f1bgbd3rzpj4ot)" points="292,89.5,366,89.5,373,111.7969,380,111.7969,380,142.0938,292,142.0938,292,89.5" style="stroke: #000000; stroke-width: 1.5;"/><line style="stroke: #000000; stroke-width: 1.5;" x1="292" x2="373" y1="111.7969" y2="111.7969"/><text fill="#000000" font-family="sans-serif" font-size="14" font-weight="bold" lengthAdjust="spacingAndGlyphs" textLength="68" x="296" y="104.4951">Shipping</text><path d="M415,8 L415,223.5938 L819,223.5938 L819,18 L809,8 L415,8 " fill="#FCA985" filter="url(#f1bgbd3rzpj4ot)" style="stroke: #A80036; stroke-width: 1.0;"/><path d="M809,8 L809,18 L819,18 L809,8 " fill="#FCA985" style="stroke: #A80036; stroke-width: 1.0;"/><text fill="#000000" font-family="sans-serif" font-size="13" font-weight="bold" lengthAdjust="spacingAndGlyphs" textLength="128" x="421" y="25.0669">nested packages</text><line style="stroke: #A80036; stroke-width: 1.0;" x1="416" x2="818" y1="28.1328" y2="28.1328"/><text fill="#000000" font-family="sans-serif" font-size="13" lengthAdjust="spacingAndGlyphs" textLength="210" x="421" y="44.1997">In dit voorbeeld zijn verschillende</text><text fill="#000000" font-family="sans-serif" font-size="13" font-weight="bold" lengthAdjust="spacingAndGlyphs" textLength="128" x="635" y="44.1997">nested packages</text><text fill="#000000" font-family="sans-serif" font-size="13" lengthAdjust="spacingAndGlyphs" textLength="345" x="421" y="59.3325">te zien. De huidige package 'Shipping' is een ge-neste</text><text fill="#000000" font-family="sans-serif" font-size="13" lengthAdjust="spacingAndGlyphs" textLength="152" x="421" y="74.4653">package van 'Business'.</text><text fill="#000000" font-family="sans-serif" font-size="13" lengthAdjust="spacingAndGlyphs" textLength="0" x="425" y="89.5981"/><text fill="#000000" font-family="sans-serif" font-size="13" lengthAdjust="spacingAndGlyphs" textLength="333" x="421" y="104.731">In code betekend dit dat om de functionaliteiten van</text><text fill="#000000" font-family="sans-serif" font-size="13" lengthAdjust="spacingAndGlyphs" textLength="383" x="421" y="119.8638">Shipping te benaderen je de namespace Business::Shipping</text><text fill="#000000" font-family="sans-serif" font-size="13" lengthAdjust="spacingAndGlyphs" textLength="143" x="421" y="134.9966">zal moeten gebruiken.</text><text fill="#000000" font-family="sans-serif" font-size="13" lengthAdjust="spacingAndGlyphs" textLength="0" x="425" y="150.1294"/><line style="stroke: #A80036; stroke-width: 1.0;" x1="416" x2="818" y1="157.1953" y2="157.1953"/><text fill="#000000" font-family="sans-serif" font-size="13" font-weight="bold" lengthAdjust="spacingAndGlyphs" textLength="33" x="421" y="173.2622">note</text><line style="stroke: #A80036; stroke-width: 1.0;" x1="416" x2="818" y1="180.3281" y2="180.3281"/><text fill="#000000" font-family="sans-serif" font-size="13" lengthAdjust="spacingAndGlyphs" textLength="372" x="421" y="196.395">Het is handig om gebruik te maken van kleur als je nested</text><text fill="#000000" font-family="sans-serif" font-size="13" lengthAdjust="spacingAndGlyphs" textLength="256" x="421" y="211.5278">packages gaat toepassen in je diagram.</text><!--MD5=[8687fd94c60992124a5c1786f845c053]
link p1.2 to p1.3--><path d="M257.0469,116 C266.9393,116 276.8317,116 286.7242,116 " fill="none" id="p1.2-&gt;p1.3" style="stroke: #A80036; stroke-width: 1.0; stroke-dasharray: 7.0,7.0;"/><polygon fill="#A80036" points="291.8973,116,282.8973,112,286.8973,116,282.8973,120,291.8973,116" style="stroke: #A80036; stroke-width: 1.0;"/><!--MD5=[19faf3f4791996202a24bf58b3e17186]
reverse link p1.1 to p1.2--><path d="M136.8027,116 C146.7897,116 156.7767,116 166.7638,116 " fill="none" id="p1.1&lt;-p1.2" style="stroke: #A80036; stroke-width: 1.0; stroke-dasharray: 7.0,7.0;"/><polygon fill="#A80036" points="131.5801,116,140.5801,120,136.5801,116,140.5801,112,131.5801,116" style="stroke: #A80036; stroke-width: 1.0;"/><!--MD5=[38897a9b5c3755be365af0472570ba17]
link GMN8 to p1.3--><path d="M414.871,116 C403.3076,116 391.7441,116 380.1807,116 " fill="none" id="GMN8-p1.3" style="stroke: #A80036; stroke-width: 1.0; stroke-dasharray: 7.0,7.0;"/><!--MD5=[6b56c06a3ea6a411e1fda3309141eca9]
@startuml

allowmixing

package p1 as "Business" #FFFFBA {
    package "Accounting" as p1.1 #BAE1FF{}
    package "Ordering" as p1.2 #FFDFBA{}
    package "Shipping" as p1.3 #BAFFC9{}

    p1.2 .left.> p1.3
    p1.1 <.right. p1.2
}

note left of p1.3 #FCA985
    **nested packages**
    - -
    In dit voorbeeld zijn verschillende **nested packages**
    te zien. De huidige package 'Shipping' is een ge-neste
    package van 'Business'.

    In code betekend dit dat om de functionaliteiten van
    Shipping te benaderen je de namespace Business::Shipping
    zal moeten gebruiken.

    - -
    **note**
    - -
    Het is handig om gebruik te maken van kleur als je nested
    packages gaat toepassen in je diagram.
end note

@enduml

PlantUML version 1.2020.06(Sun Apr 05 12:38:32 GMT 2020)
(GPL source distribution)
Java Runtime: OpenJDK Runtime Environment
JVM: OpenJDK 64-Bit Server VM
Java Version: 14-ea+33
Operating System: Linux
Default Encoding: UTF-8
Language: en
Country: US
--></g></svg>