<?xml version="1.0" encoding="UTF-8" standalone="no"?><svg xmlns="http://www.w3.org/2000/svg" xmlns:xlink="http://www.w3.org/1999/xlink" contentScriptType="application/ecmascript" contentStyleType="text/css" height="317px" preserveAspectRatio="none" style="width:677px;height:317px;" version="1.1" viewBox="0 0 677 317" width="677px" zoomAndPan="magnify"><defs><filter height="300%" id="f1wedboognoq9w" width="300%" x="-1" y="-1"><feGaussianBlur result="blurOut" stdDeviation="2.0"/><feColorMatrix in="blurOut" result="blurOut2" type="matrix" values="0 0 0 0 0 0 0 0 0 0 0 0 0 0 0 0 0 0 .4 0"/><feOffset dx="4.0" dy="4.0" in="blurOut2" result="blurOut3"/><feBlend in="SourceGraphic" in2="blurOut3" mode="normal"/></filter></defs><g><polygon fill="#FFFFBA" filter="url(#f1wedboognoq9w)" points="150,74,227,74,234,96.2969,241,96.2969,241,126.5938,150,126.5938,150,74" style="stroke: #000000; stroke-width: 1.5;"/><line style="stroke: #000000; stroke-width: 1.5;" x1="150" x2="234" y1="96.2969" y2="96.2969"/><text fill="#000000" font-family="sans-serif" font-size="14" font-weight="bold" lengthAdjust="spacingAndGlyphs" textLength="71" x="154" y="88.9951">Business</text><polygon fill="#BAE1FF" filter="url(#f1wedboognoq9w)" points="6,253,101,253,108,275.2969,115,275.2969,115,305.5938,6,305.5938,6,253" style="stroke: #000000; stroke-width: 1.5;"/><line style="stroke: #000000; stroke-width: 1.5;" x1="6" x2="108" y1="275.2969" y2="275.2969"/><text fill="#000000" font-family="sans-serif" font-size="14" font-weight="bold" lengthAdjust="spacingAndGlyphs" textLength="89" x="10" y="267.9951">Accounting</text><polygon fill="#FFDFBA" filter="url(#f1wedboognoq9w)" points="150.5,253,226.5,253,233.5,275.2969,240.5,275.2969,240.5,305.5938,150.5,305.5938,150.5,253" style="stroke: #000000; stroke-width: 1.5;"/><line style="stroke: #000000; stroke-width: 1.5;" x1="150.5" x2="233.5" y1="275.2969" y2="275.2969"/><text fill="#000000" font-family="sans-serif" font-size="14" font-weight="bold" lengthAdjust="spacingAndGlyphs" textLength="70" x="154.5" y="267.9951">Ordering</text><polygon fill="#BAFFC9" filter="url(#f1wedboognoq9w)" points="275.5,253,349.5,253,356.5,275.2969,363.5,275.2969,363.5,305.5938,275.5,305.5938,275.5,253" style="stroke: #000000; stroke-width: 1.5;"/><line style="stroke: #000000; stroke-width: 1.5;" x1="275.5" x2="356.5" y1="275.2969" y2="275.2969"/><text fill="#000000" font-family="sans-serif" font-size="14" font-weight="bold" lengthAdjust="spacingAndGlyphs" textLength="68" x="279.5" y="267.9951">Shipping</text><path d="M276,8 L276,193.3281 L665,193.3281 L665,18 L655,8 L276,8 " fill="#FCA985" filter="url(#f1wedboognoq9w)" style="stroke: #A80036; stroke-width: 1.0;"/><path d="M655,8 L655,18 L665,18 L655,8 " fill="#FCA985" style="stroke: #A80036; stroke-width: 1.0;"/><text fill="#000000" font-family="sans-serif" font-size="13" font-weight="bold" lengthAdjust="spacingAndGlyphs" textLength="135" x="282" y="25.0669">nested alternative</text><line style="stroke: #A80036; stroke-width: 1.0;" x1="277" x2="664" y1="28.1328" y2="28.1328"/><text fill="#000000" font-family="sans-serif" font-size="13" lengthAdjust="spacingAndGlyphs" textLength="302" x="282" y="44.1997">In dit voorbeeld is dezelfde situatie weergegevn</text><text fill="#000000" font-family="sans-serif" font-size="13" lengthAdjust="spacingAndGlyphs" textLength="212" x="282" y="59.3325">als in de voorgaande afbeelding (</text><text fill="#000000" font-family="sans-serif" font-size="13" font-weight="bold" lengthAdjust="spacingAndGlyphs" textLength="130" x="494" y="59.3325">nested_packages</text><text fill="#000000" font-family="sans-serif" font-size="13" lengthAdjust="spacingAndGlyphs" textLength="5" x="624" y="59.3325">)</text><text fill="#000000" font-family="sans-serif" font-size="13" lengthAdjust="spacingAndGlyphs" textLength="305" x="282" y="74.4653">alleen dan op een andere manier weergegeven.</text><text fill="#000000" font-family="sans-serif" font-size="13" lengthAdjust="spacingAndGlyphs" textLength="0" x="286" y="89.5981"/><line style="stroke: #A80036; stroke-width: 1.0;" x1="277" x2="664" y1="96.6641" y2="96.6641"/><text fill="#000000" font-family="sans-serif" font-size="13" font-weight="bold" lengthAdjust="spacingAndGlyphs" textLength="33" x="282" y="112.731">note</text><line style="stroke: #A80036; stroke-width: 1.0;" x1="277" x2="664" y1="119.7969" y2="119.7969"/><text fill="#000000" font-family="sans-serif" font-size="13" lengthAdjust="spacingAndGlyphs" textLength="368" x="282" y="135.8638">Deze methode van weergeven wordt 'native' ondersteund</text><text fill="#000000" font-family="sans-serif" font-size="13" lengthAdjust="spacingAndGlyphs" textLength="332" x="282" y="150.9966">door plantuml, bij de andere methode moest er een</text><text fill="#000000" font-family="sans-serif" font-size="13" font-weight="bold" lengthAdjust="spacingAndGlyphs" textLength="87" x="282" y="166.1294">allowmixing</text><text fill="#000000" font-family="sans-serif" font-size="13" lengthAdjust="spacingAndGlyphs" textLength="186" x="373" y="166.1294">modifier toegevoegd worden.</text><text fill="#000000" font-family="sans-serif" font-size="13" lengthAdjust="spacingAndGlyphs" textLength="284" x="282" y="181.2622">Persoonlijk vind ik de andere overzichtelijker.</text><!--MD5=[146cc6abddbfc6f0a14e2eabe0621727]
reverse link p1 to p2--><path d="M165.9699,139.6548 C140.1085,173.9451 103.2259,222.8486 80.6282,252.8114 " fill="none" id="p1&lt;-p2" style="stroke: #A80036; stroke-width: 1.0;"/><ellipse cx="170.472" cy="133.6852" fill="#FFFFFF" rx="8" ry="8" style="stroke: #A80036; stroke-width: 1.0;"/><line style="stroke: #A80036; stroke-width: 1.0;" x1="165.6549" x2="175.2891" y1="140.0724" y2="127.2981"/><line style="stroke: #A80036; stroke-width: 1.0;" x1="164.0849" x2="176.8592" y1="128.8682" y2="138.5023"/><!--MD5=[2f999483419d8a26aa1690850d8bac33]
reverse link p1 to p3--><path d="M195.5,142.4038 C195.5,176.5171 195.5,223.6406 195.5,252.8114 " fill="none" id="p1&lt;-p3" style="stroke: #A80036; stroke-width: 1.0;"/><ellipse cx="195.5" cy="135.2981" fill="#FFFFFF" rx="8" ry="8" style="stroke: #A80036; stroke-width: 1.0;"/><line style="stroke: #A80036; stroke-width: 1.0;" x1="195.5" x2="195.5" y1="143.2981" y2="127.2981"/><line style="stroke: #A80036; stroke-width: 1.0;" x1="187.5" x2="203.5" y1="135.2981" y2="135.2981"/><!--MD5=[b3abac7e7dffcddddb4acd8036a5aa38]
reverse link p1 to p4--><path d="M222.0623,139.8035 C233.2504,156.2791 246.448,175.6108 258.5,193 C272.4219,213.0872 288.3427,235.65 300.4278,252.6943 " fill="none" id="p1&lt;-p4" style="stroke: #A80036; stroke-width: 1.0;"/><ellipse cx="218.0703" cy="133.916" fill="#FFFFFF" rx="8" ry="8" style="stroke: #A80036; stroke-width: 1.0;"/><line style="stroke: #A80036; stroke-width: 1.0;" x1="222.5599" x2="213.5807" y1="140.5374" y2="127.2945"/><line style="stroke: #A80036; stroke-width: 1.0;" x1="211.4488" x2="224.6917" y1="138.4055" y2="129.4264"/><!--MD5=[cfbd4e82135a8e1321b5ac604209f695]
link p1 to GMN9--><path d="M241.1543,100.5 C252.6514,100.5 264.1486,100.5 275.6457,100.5 " fill="none" id="p1-GMN9" style="stroke: #A80036; stroke-width: 1.0; stroke-dasharray: 7.0,7.0;"/><!--MD5=[ad48f2196beee5ca3f362d3b1ee2dc4a]
@startuml

package "Business" as p1 #FFFFBA {}
package "Accounting" as p2 #BAE1FF {}
package "Ordering" as p3 #FFDFBA {}
package "Shipping" as p4 #BAFFC9{}

p1 +- - p2
p1 +- - p3
p1 +- - p4

note right of p1 #FCA985
    **nested alternative**
    - -
    In dit voorbeeld is dezelfde situatie weergegevn
    als in de voorgaande afbeelding (**nested_packages**)
    alleen dan op een andere manier weergegeven.

    - -
    **note**
    - -
    Deze methode van weergeven wordt 'native' ondersteund
    door plantuml, bij de andere methode moest er een
    **allowmixing** modifier toegevoegd worden.
    Persoonlijk vind ik de andere overzichtelijker.
end note

@enduml

PlantUML version 1.2020.06(Sun Apr 05 12:38:32 GMT 2020)
(GPL source distribution)
Java Runtime: OpenJDK Runtime Environment
JVM: OpenJDK 64-Bit Server VM
Java Version: 14-ea+33
Operating System: Linux
Default Encoding: UTF-8
Language: en
Country: US
--></g></svg>